G04 EAGLE Gerber RS-274X export*
G75*
%MOMM*%
%FSLAX34Y34*%
%LPD*%
%IN*%
%IPPOS*%
%AMOC8*
5,1,8,0,0,1.08239X$1,22.5*%
G01*
%ADD10C,0.254000*%


D10*
X0Y0D02*
X812800Y0D01*
X812800Y990600D01*
X0Y990600D01*
X0Y0D01*
X625602Y615426D02*
X625533Y614381D01*
X625397Y613342D01*
X625192Y612314D01*
X624921Y611302D01*
X624584Y610310D01*
X624183Y609342D01*
X623720Y608403D01*
X623196Y607495D01*
X622614Y606624D01*
X621976Y605793D01*
X621286Y605005D01*
X620545Y604264D01*
X619757Y603574D01*
X618926Y602936D01*
X618055Y602354D01*
X617147Y601830D01*
X616208Y601367D01*
X615240Y600966D01*
X614248Y600629D01*
X613236Y600358D01*
X612208Y600153D01*
X611169Y600017D01*
X610124Y599948D01*
X609076Y599948D01*
X608031Y600017D01*
X606992Y600153D01*
X605964Y600358D01*
X604952Y600629D01*
X603960Y600966D01*
X602992Y601367D01*
X602053Y601830D01*
X601145Y602354D01*
X600274Y602936D01*
X599443Y603574D01*
X598655Y604264D01*
X597914Y605005D01*
X597224Y605793D01*
X596586Y606624D01*
X596004Y607495D01*
X595480Y608403D01*
X595017Y609342D01*
X594616Y610310D01*
X594279Y611302D01*
X594008Y612314D01*
X593803Y613342D01*
X593667Y614381D01*
X593598Y615426D01*
X593598Y616474D01*
X593667Y617519D01*
X593803Y618558D01*
X594008Y619586D01*
X594279Y620598D01*
X594616Y621590D01*
X595017Y622558D01*
X595480Y623497D01*
X596004Y624405D01*
X596586Y625276D01*
X597224Y626107D01*
X597914Y626895D01*
X598655Y627636D01*
X599443Y628326D01*
X600274Y628964D01*
X601145Y629546D01*
X602053Y630070D01*
X602992Y630533D01*
X603960Y630934D01*
X604952Y631271D01*
X605964Y631542D01*
X606992Y631747D01*
X608031Y631883D01*
X609076Y631952D01*
X610124Y631952D01*
X611169Y631883D01*
X612208Y631747D01*
X613236Y631542D01*
X614248Y631271D01*
X615240Y630934D01*
X616208Y630533D01*
X617147Y630070D01*
X618055Y629546D01*
X618926Y628964D01*
X619757Y628326D01*
X620545Y627636D01*
X621286Y626895D01*
X621976Y626107D01*
X622614Y625276D01*
X623196Y624405D01*
X623720Y623497D01*
X624183Y622558D01*
X624584Y621590D01*
X624921Y620598D01*
X625192Y619586D01*
X625397Y618558D01*
X625533Y617519D01*
X625602Y616474D01*
X625602Y615426D01*
X270002Y94726D02*
X269933Y93681D01*
X269797Y92642D01*
X269592Y91614D01*
X269321Y90602D01*
X268984Y89610D01*
X268583Y88642D01*
X268120Y87703D01*
X267596Y86795D01*
X267014Y85924D01*
X266376Y85093D01*
X265686Y84305D01*
X264945Y83564D01*
X264157Y82874D01*
X263326Y82236D01*
X262455Y81654D01*
X261547Y81130D01*
X260608Y80667D01*
X259640Y80266D01*
X258648Y79929D01*
X257636Y79658D01*
X256608Y79453D01*
X255569Y79317D01*
X254524Y79248D01*
X253476Y79248D01*
X252431Y79317D01*
X251392Y79453D01*
X250364Y79658D01*
X249352Y79929D01*
X248360Y80266D01*
X247392Y80667D01*
X246453Y81130D01*
X245545Y81654D01*
X244674Y82236D01*
X243843Y82874D01*
X243055Y83564D01*
X242314Y84305D01*
X241624Y85093D01*
X240986Y85924D01*
X240404Y86795D01*
X239880Y87703D01*
X239417Y88642D01*
X239016Y89610D01*
X238679Y90602D01*
X238408Y91614D01*
X238203Y92642D01*
X238067Y93681D01*
X237998Y94726D01*
X237998Y95774D01*
X238067Y96819D01*
X238203Y97858D01*
X238408Y98886D01*
X238679Y99898D01*
X239016Y100890D01*
X239417Y101858D01*
X239880Y102797D01*
X240404Y103705D01*
X240986Y104576D01*
X241624Y105407D01*
X242314Y106195D01*
X243055Y106936D01*
X243843Y107626D01*
X244674Y108264D01*
X245545Y108846D01*
X246453Y109370D01*
X247392Y109833D01*
X248360Y110234D01*
X249352Y110571D01*
X250364Y110842D01*
X251392Y111047D01*
X252431Y111183D01*
X253476Y111252D01*
X254524Y111252D01*
X255569Y111183D01*
X256608Y111047D01*
X257636Y110842D01*
X258648Y110571D01*
X259640Y110234D01*
X260608Y109833D01*
X261547Y109370D01*
X262455Y108846D01*
X263326Y108264D01*
X264157Y107626D01*
X264945Y106936D01*
X265686Y106195D01*
X266376Y105407D01*
X267014Y104576D01*
X267596Y103705D01*
X268120Y102797D01*
X268583Y101858D01*
X268984Y100890D01*
X269321Y99898D01*
X269592Y98886D01*
X269797Y97858D01*
X269933Y96819D01*
X270002Y95774D01*
X270002Y94726D01*
M02*
