G04 EAGLE Gerber RS-274X export*
G75*
%MOMM*%
%FSLAX34Y34*%
%LPD*%
%INSoldermask Top*%
%IPPOS*%
%AMOC8*
5,1,8,0,0,1.08239X$1,22.5*%
G01*
%ADD10C,3.403600*%
%ADD11C,1.411200*%
%ADD12P,1.649562X8X202.500000*%
%ADD13P,1.649562X8X22.500000*%
%ADD14P,1.951982X8X202.500000*%
%ADD15C,1.803400*%
%ADD16P,1.951982X8X22.500000*%
%ADD17P,1.951982X8X292.500000*%
%ADD18P,1.951982X8X112.500000*%
%ADD19P,1.759533X8X22.500000*%
%ADD20P,1.649562X8X112.500000*%
%ADD21C,1.524000*%
%ADD22P,1.649562X8X292.500000*%
%ADD23C,1.727200*%
%ADD24C,0.959600*%


D10*
X609600Y615950D03*
X254000Y95250D03*
D11*
X565460Y203200D02*
X577540Y203200D01*
X577540Y177800D02*
X565460Y177800D01*
X565460Y152400D02*
X577540Y152400D01*
X577540Y127000D02*
X565460Y127000D01*
X641660Y127000D02*
X653740Y127000D01*
X653740Y152400D02*
X641660Y152400D01*
X641660Y177800D02*
X653740Y177800D01*
X653740Y203200D02*
X641660Y203200D01*
D12*
X647700Y292100D03*
X571500Y292100D03*
X762000Y203200D03*
X685800Y203200D03*
X762000Y228600D03*
X685800Y228600D03*
D13*
X685800Y254000D03*
X762000Y254000D03*
X571500Y266700D03*
X647700Y266700D03*
D14*
X711200Y304800D03*
D15*
X736600Y304800D03*
D14*
X647700Y330200D03*
D15*
X673100Y330200D03*
D12*
X520700Y177800D03*
X469900Y177800D03*
D13*
X469900Y228600D03*
X520700Y228600D03*
D12*
X533400Y254000D03*
X457200Y254000D03*
D13*
X698500Y152400D03*
X749300Y152400D03*
D12*
X749300Y177800D03*
X698500Y177800D03*
X762000Y101600D03*
X685800Y101600D03*
D13*
X685800Y76200D03*
X762000Y76200D03*
D12*
X762000Y127000D03*
X685800Y127000D03*
D16*
X508000Y101600D03*
D15*
X482600Y101600D03*
D14*
X596900Y76200D03*
D15*
X622300Y76200D03*
D12*
X520700Y152400D03*
X469900Y152400D03*
X533400Y203200D03*
X457200Y203200D03*
D17*
X444500Y914400D03*
D15*
X444500Y939800D03*
D18*
X165100Y939800D03*
D15*
X165100Y914400D03*
D19*
X254000Y914400D03*
X254000Y939800D03*
X279400Y914400D03*
X279400Y939800D03*
X304800Y914400D03*
X304800Y939800D03*
X330200Y914400D03*
X330200Y939800D03*
X355600Y914400D03*
X355600Y939800D03*
D11*
X565460Y533400D02*
X577540Y533400D01*
X577540Y508000D02*
X565460Y508000D01*
X565460Y482600D02*
X577540Y482600D01*
X577540Y457200D02*
X565460Y457200D01*
X641660Y457200D02*
X653740Y457200D01*
X653740Y482600D02*
X641660Y482600D01*
X641660Y508000D02*
X653740Y508000D01*
X653740Y533400D02*
X641660Y533400D01*
D12*
X762000Y647700D03*
X685800Y647700D03*
D13*
X685800Y622300D03*
X762000Y622300D03*
X685800Y571500D03*
X762000Y571500D03*
D12*
X762000Y546100D03*
X685800Y546100D03*
D13*
X685800Y596900D03*
X762000Y596900D03*
D18*
X666750Y711200D03*
D15*
X666750Y685800D03*
D16*
X762000Y698500D03*
D15*
X736600Y698500D03*
D12*
X520700Y508000D03*
X469900Y508000D03*
D13*
X469900Y533400D03*
X520700Y533400D03*
X457200Y558800D03*
X533400Y558800D03*
D12*
X533400Y482600D03*
X457200Y482600D03*
D13*
X685800Y508000D03*
X762000Y508000D03*
D18*
X520700Y660400D03*
D15*
X520700Y635000D03*
D13*
X457200Y584200D03*
X533400Y584200D03*
D12*
X762000Y482600D03*
X685800Y482600D03*
D13*
X685800Y457200D03*
X762000Y457200D03*
X685800Y431800D03*
X762000Y431800D03*
X685800Y406400D03*
X762000Y406400D03*
X101600Y596900D03*
X177800Y596900D03*
X101600Y419100D03*
X177800Y419100D03*
X101600Y469900D03*
X177800Y469900D03*
D12*
X177800Y444500D03*
X101600Y444500D03*
D20*
X50800Y469900D03*
X50800Y546100D03*
D17*
X57150Y393700D03*
D15*
X57150Y419100D03*
D11*
X209860Y546100D02*
X221940Y546100D01*
X221940Y520700D02*
X209860Y520700D01*
X209860Y495300D02*
X221940Y495300D01*
X221940Y469900D02*
X209860Y469900D01*
X286060Y469900D02*
X298140Y469900D01*
X298140Y495300D02*
X286060Y495300D01*
X286060Y520700D02*
X298140Y520700D01*
X298140Y546100D02*
X286060Y546100D01*
D20*
X177800Y520700D03*
X177800Y546100D03*
D12*
X152400Y520700D03*
X101600Y520700D03*
D13*
X101600Y546100D03*
X152400Y546100D03*
D21*
X165100Y152654D02*
X165100Y139446D01*
X114300Y139446D02*
X114300Y152654D01*
X139700Y152654D02*
X139700Y139446D01*
D13*
X101600Y101600D03*
X177800Y101600D03*
X114300Y495300D03*
X165100Y495300D03*
D21*
X165100Y260604D02*
X165100Y247396D01*
X114300Y247396D02*
X114300Y260604D01*
X139700Y260604D02*
X139700Y247396D01*
D12*
X177800Y184150D03*
X101600Y184150D03*
X177800Y76200D03*
X101600Y76200D03*
D17*
X63500Y120650D03*
D15*
X63500Y146050D03*
D13*
X101600Y209550D03*
X177800Y209550D03*
X101600Y368300D03*
X177800Y368300D03*
D12*
X177800Y622300D03*
X101600Y622300D03*
D21*
X171196Y647700D02*
X184404Y647700D01*
X108204Y647700D02*
X94996Y647700D01*
D17*
X330200Y635000D03*
D15*
X330200Y660400D03*
D13*
X330200Y698500D03*
X406400Y698500D03*
D12*
X406400Y749300D03*
X330200Y749300D03*
D21*
X298704Y203200D02*
X285496Y203200D01*
X222504Y203200D02*
X209296Y203200D01*
D13*
X342900Y723900D03*
X393700Y723900D03*
D21*
X279400Y298704D02*
X279400Y285496D01*
X228600Y285496D02*
X228600Y298704D01*
X254000Y298704D02*
X254000Y285496D01*
D13*
X228600Y152400D03*
X279400Y152400D03*
X101600Y292100D03*
X177800Y292100D03*
X228600Y431800D03*
X279400Y431800D03*
X101600Y393700D03*
X177800Y393700D03*
D12*
X279400Y177800D03*
X228600Y177800D03*
X279400Y660400D03*
X228600Y660400D03*
D22*
X228600Y381000D03*
X228600Y330200D03*
D21*
X279400Y704596D02*
X279400Y717804D01*
X228600Y717804D02*
X228600Y704596D01*
X254000Y704596D02*
X254000Y717804D01*
D13*
X101600Y342900D03*
X177800Y342900D03*
D12*
X177800Y317500D03*
X101600Y317500D03*
D13*
X101600Y825500D03*
X177800Y825500D03*
D12*
X165100Y749300D03*
X114300Y749300D03*
D13*
X101600Y774700D03*
X177800Y774700D03*
D18*
X139700Y711200D03*
D15*
X139700Y685800D03*
D13*
X101600Y571500D03*
X177800Y571500D03*
D12*
X177800Y50800D03*
X101600Y50800D03*
D13*
X101600Y800100D03*
X177800Y800100D03*
X342900Y520700D03*
X393700Y520700D03*
D14*
X355600Y419100D03*
D15*
X381000Y419100D03*
D12*
X406400Y495300D03*
X330200Y495300D03*
D21*
X368300Y336804D02*
X368300Y323596D01*
X393700Y323596D02*
X393700Y336804D01*
X342900Y336804D02*
X342900Y323596D01*
D13*
X330200Y546100D03*
X406400Y546100D03*
D12*
X406400Y374650D03*
X330200Y374650D03*
D13*
X330200Y469900D03*
X406400Y469900D03*
X330200Y571500D03*
X406400Y571500D03*
D12*
X406400Y596900D03*
X330200Y596900D03*
D18*
X406400Y660400D03*
D15*
X406400Y635000D03*
D12*
X279400Y584200D03*
X228600Y584200D03*
X635000Y234950D03*
X584200Y234950D03*
X635000Y565150D03*
X584200Y565150D03*
D23*
X350520Y850900D02*
X335280Y850900D01*
X335280Y825500D02*
X350520Y825500D01*
X350520Y800100D02*
X335280Y800100D01*
X335280Y774700D02*
X350520Y774700D01*
X33020Y914400D02*
X17780Y914400D01*
X17780Y889000D02*
X33020Y889000D01*
X33020Y863600D02*
X17780Y863600D01*
X17780Y838200D02*
X33020Y838200D01*
X33020Y812800D02*
X17780Y812800D01*
X17780Y787400D02*
X33020Y787400D01*
X33020Y762000D02*
X17780Y762000D01*
X779780Y876300D02*
X795020Y876300D01*
X795020Y901700D02*
X779780Y901700D01*
X779780Y927100D02*
X795020Y927100D01*
X795020Y774700D02*
X779780Y774700D01*
X779780Y800100D02*
X795020Y800100D01*
X795020Y825500D02*
X779780Y825500D01*
X779780Y850900D02*
X795020Y850900D01*
X591820Y800100D02*
X576580Y800100D01*
X576580Y825500D02*
X591820Y825500D01*
X591820Y850900D02*
X576580Y850900D01*
X471170Y742950D02*
X455930Y742950D01*
X455930Y768350D02*
X471170Y768350D01*
X471170Y793750D02*
X455930Y793750D01*
D24*
X787400Y742950D03*
X311150Y565150D03*
X222250Y768350D03*
X190500Y482600D03*
X412750Y228600D03*
X546100Y762000D03*
X546100Y165100D03*
X406400Y355600D03*
X647700Y533400D03*
X787400Y215900D03*
X584200Y685800D03*
X520700Y742950D03*
X203200Y419100D03*
X177800Y685800D03*
X501650Y361950D03*
X501650Y742950D03*
X603250Y774700D03*
X666750Y774700D03*
X38100Y457200D03*
M02*
