M48
;GenerationSoftware,Autodesk,EAGLE,9.6.2*%
;CreationDate,2022-05-17T14:18:01Z*%
FMAT,2
ICI,OFF
METRIC,TZ,000.000
T6C0.350
T5C0.700
T4C0.813
T3C0.914
T2C1.016
T1C3.200
%
G90
M71
T1
X25400Y9525
X60960Y61595
T2
X78740Y77470
X34290Y77470
X78740Y80010
X78740Y82550
X78740Y85090
X2540Y91440
X2540Y88900
X34290Y80010
X46355Y79375
X46355Y76835
X46355Y74295
X58420Y85090
X58420Y82550
X58420Y80010
X34290Y85090
X34290Y82550
X2540Y86360
X2540Y83820
X78740Y92710
X78740Y90170
X78740Y87630
X2540Y76200
X2540Y78740
X2540Y81280
T3
X27940Y94615
X27940Y92075
X25400Y94615
X35560Y94615
X35560Y92075
X33020Y94615
X33020Y92075
X30480Y94615
X30480Y92075
X25400Y92075
T4
X15875Y93345
X6350Y12065
X64770Y29210
X57150Y29210
X76200Y20320
X68580Y20320
X76200Y22860
X68580Y22860
X68580Y25400
X76200Y25400
X57150Y26670
X64770Y26670
X71120Y30480
X73660Y30480
X64770Y33020
X67310Y33020
X52070Y17780
X46990Y17780
X46990Y22860
X52070Y22860
X53340Y25400
X45720Y25400
X69850Y15240
X74930Y15240
X74930Y17780
X69850Y17780
X76200Y10160
X68580Y10160
X68580Y7620
X76200Y7620
X76200Y12700
X68580Y12700
X50800Y10160
X48260Y10160
X59690Y7620
X62230Y7620
X52070Y15240
X46990Y15240
X53340Y20320
X45720Y20320
X13335Y93345
X46355Y94615
X46355Y92075
X17780Y54610
X58420Y56515
X63500Y56515
X58420Y23495
X63500Y23495
X76200Y64770
X68580Y64770
X68580Y62230
X76200Y62230
X68580Y57150
X76200Y57150
X76200Y54610
X68580Y54610
X68580Y59690
X76200Y59690
X66675Y71120
X66675Y68580
X76200Y69850
X73660Y69850
X52070Y50800
X46990Y50800
X46990Y53340
X52070Y53340
X45720Y55880
X53340Y55880
X53340Y48260
X45720Y48260
X68580Y50800
X76200Y50800
X52070Y66040
X52070Y63500
X45720Y58420
X53340Y58420
X76200Y48260
X68580Y48260
X68580Y45720
X76200Y45720
X68580Y43180
X76200Y43180
X68580Y40640
X76200Y40640
X10160Y59690
X17780Y59690
X10160Y41910
X17780Y41910
X10160Y46990
X17780Y46990
X17780Y44450
X10160Y44450
X5080Y46990
X5080Y54610
X5715Y39370
X5715Y41910
X22860Y58420
X27940Y58420
X40640Y63500
X40640Y66040
X33020Y59690
X40640Y59690
X40640Y57150
X33020Y57150
X17780Y52070
X40640Y46990
X15240Y52070
X10160Y52070
X10160Y54610
X15240Y54610
X16510Y14605
X11430Y14605
X13970Y14605
X10160Y10160
X17780Y10160
X11430Y49530
X16510Y49530
X16510Y25400
X11430Y25400
X13970Y25400
X17780Y18415
X10160Y18415
X17780Y7620
X10160Y7620
X33020Y46990
X6350Y14605
X10160Y20955
X17780Y20955
X10160Y36830
X17780Y36830
X17780Y62230
X10160Y62230
X17780Y64770
X10160Y64770
X33020Y63500
X33020Y66040
X33020Y69850
X40640Y69850
X40640Y74930
X33020Y74930
X29210Y20320
X21590Y20320
X34290Y72390
X39370Y72390
X27940Y29210
X22860Y29210
X25400Y29210
X22860Y15240
X27940Y15240
X10160Y29210
X17780Y29210
X22860Y43180
X27940Y43180
X10160Y39370
X17780Y39370
X27940Y17780
X22860Y17780
X27940Y66040
X22860Y66040
X22860Y38100
X22860Y33020
X27940Y71120
X22860Y71120
X25400Y71120
X10160Y34290
X17780Y34290
X17780Y31750
X10160Y31750
X10160Y82550
X17780Y82550
X16510Y74930
X11430Y74930
X10160Y77470
X17780Y77470
X13970Y71120
X13970Y68580
X10160Y57150
X17780Y57150
X17780Y5080
X10160Y5080
X10160Y80010
X17780Y80010
X34290Y52070
X39370Y52070
X35560Y41910
X38100Y41910
X40640Y49530
X33020Y49530
X36830Y33020
X39370Y33020
X34290Y33020
X33020Y54610
X40640Y54610
X40640Y37465
X33020Y37465
T5
X64770Y20320
X64770Y17780
X29210Y54610
X29210Y52070
X29210Y49530
X29210Y46990
X21590Y46990
X21590Y49530
X21590Y52070
X21590Y54610
X64770Y53340
X64770Y50800
X64770Y48260
X64770Y45720
X64770Y15240
X64770Y12700
X57150Y12700
X57150Y15240
X57150Y17780
X57150Y20320
X57150Y53340
X57150Y50800
X57150Y48260
X57150Y45720
T6
X49530Y29210
X17780Y68580
X20320Y41910
X36830Y61595
X44450Y61595
X60960Y48260
X60960Y58420
X53340Y61595
X59690Y40640
X52705Y37465
X71120Y37465
X58420Y68580
X78740Y21590
X64770Y53340
X40640Y35560
X54610Y16510
X54610Y76835
X69850Y36195
X46990Y34925
X62230Y34925
X19050Y48260
X22225Y76835
X31115Y56515
X49530Y74295
X52070Y76835
X52070Y71755
X3810Y45720
X78740Y74295
M30