G04 EAGLE Gerber RS-274X export*
G75*
%MOMM*%
%FSLAX34Y34*%
%LPD*%
%INBoard Outline*%
%IPPOS*%
%AMOC8*
5,1,8,0,0,1.08239X$1,22.5*%
G01*
%ADD10C,0.000000*%
%ADD11C,0.254000*%


D10*
X812800Y990600D02*
X0Y990600D01*
X0Y0D01*
X812800Y0D01*
X812800Y990600D01*
X593598Y615950D02*
X593603Y616343D01*
X593617Y616735D01*
X593641Y617127D01*
X593675Y617518D01*
X593718Y617909D01*
X593771Y618298D01*
X593834Y618686D01*
X593905Y619072D01*
X593987Y619456D01*
X594078Y619838D01*
X594178Y620218D01*
X594287Y620595D01*
X594406Y620970D01*
X594533Y621341D01*
X594670Y621709D01*
X594816Y622074D01*
X594971Y622435D01*
X595134Y622792D01*
X595307Y623145D01*
X595487Y623493D01*
X595677Y623837D01*
X595875Y624177D01*
X596081Y624511D01*
X596295Y624840D01*
X596517Y625164D01*
X596747Y625482D01*
X596985Y625795D01*
X597230Y626102D01*
X597483Y626402D01*
X597743Y626696D01*
X598011Y626984D01*
X598285Y627265D01*
X598566Y627539D01*
X598854Y627807D01*
X599148Y628067D01*
X599448Y628320D01*
X599755Y628565D01*
X600068Y628803D01*
X600386Y629033D01*
X600710Y629255D01*
X601039Y629469D01*
X601373Y629675D01*
X601713Y629873D01*
X602057Y630063D01*
X602405Y630243D01*
X602758Y630416D01*
X603115Y630579D01*
X603476Y630734D01*
X603841Y630880D01*
X604209Y631017D01*
X604580Y631144D01*
X604955Y631263D01*
X605332Y631372D01*
X605712Y631472D01*
X606094Y631563D01*
X606478Y631645D01*
X606864Y631716D01*
X607252Y631779D01*
X607641Y631832D01*
X608032Y631875D01*
X608423Y631909D01*
X608815Y631933D01*
X609207Y631947D01*
X609600Y631952D01*
X609993Y631947D01*
X610385Y631933D01*
X610777Y631909D01*
X611168Y631875D01*
X611559Y631832D01*
X611948Y631779D01*
X612336Y631716D01*
X612722Y631645D01*
X613106Y631563D01*
X613488Y631472D01*
X613868Y631372D01*
X614245Y631263D01*
X614620Y631144D01*
X614991Y631017D01*
X615359Y630880D01*
X615724Y630734D01*
X616085Y630579D01*
X616442Y630416D01*
X616795Y630243D01*
X617143Y630063D01*
X617487Y629873D01*
X617827Y629675D01*
X618161Y629469D01*
X618490Y629255D01*
X618814Y629033D01*
X619132Y628803D01*
X619445Y628565D01*
X619752Y628320D01*
X620052Y628067D01*
X620346Y627807D01*
X620634Y627539D01*
X620915Y627265D01*
X621189Y626984D01*
X621457Y626696D01*
X621717Y626402D01*
X621970Y626102D01*
X622215Y625795D01*
X622453Y625482D01*
X622683Y625164D01*
X622905Y624840D01*
X623119Y624511D01*
X623325Y624177D01*
X623523Y623837D01*
X623713Y623493D01*
X623893Y623145D01*
X624066Y622792D01*
X624229Y622435D01*
X624384Y622074D01*
X624530Y621709D01*
X624667Y621341D01*
X624794Y620970D01*
X624913Y620595D01*
X625022Y620218D01*
X625122Y619838D01*
X625213Y619456D01*
X625295Y619072D01*
X625366Y618686D01*
X625429Y618298D01*
X625482Y617909D01*
X625525Y617518D01*
X625559Y617127D01*
X625583Y616735D01*
X625597Y616343D01*
X625602Y615950D01*
X625597Y615557D01*
X625583Y615165D01*
X625559Y614773D01*
X625525Y614382D01*
X625482Y613991D01*
X625429Y613602D01*
X625366Y613214D01*
X625295Y612828D01*
X625213Y612444D01*
X625122Y612062D01*
X625022Y611682D01*
X624913Y611305D01*
X624794Y610930D01*
X624667Y610559D01*
X624530Y610191D01*
X624384Y609826D01*
X624229Y609465D01*
X624066Y609108D01*
X623893Y608755D01*
X623713Y608407D01*
X623523Y608063D01*
X623325Y607723D01*
X623119Y607389D01*
X622905Y607060D01*
X622683Y606736D01*
X622453Y606418D01*
X622215Y606105D01*
X621970Y605798D01*
X621717Y605498D01*
X621457Y605204D01*
X621189Y604916D01*
X620915Y604635D01*
X620634Y604361D01*
X620346Y604093D01*
X620052Y603833D01*
X619752Y603580D01*
X619445Y603335D01*
X619132Y603097D01*
X618814Y602867D01*
X618490Y602645D01*
X618161Y602431D01*
X617827Y602225D01*
X617487Y602027D01*
X617143Y601837D01*
X616795Y601657D01*
X616442Y601484D01*
X616085Y601321D01*
X615724Y601166D01*
X615359Y601020D01*
X614991Y600883D01*
X614620Y600756D01*
X614245Y600637D01*
X613868Y600528D01*
X613488Y600428D01*
X613106Y600337D01*
X612722Y600255D01*
X612336Y600184D01*
X611948Y600121D01*
X611559Y600068D01*
X611168Y600025D01*
X610777Y599991D01*
X610385Y599967D01*
X609993Y599953D01*
X609600Y599948D01*
X609207Y599953D01*
X608815Y599967D01*
X608423Y599991D01*
X608032Y600025D01*
X607641Y600068D01*
X607252Y600121D01*
X606864Y600184D01*
X606478Y600255D01*
X606094Y600337D01*
X605712Y600428D01*
X605332Y600528D01*
X604955Y600637D01*
X604580Y600756D01*
X604209Y600883D01*
X603841Y601020D01*
X603476Y601166D01*
X603115Y601321D01*
X602758Y601484D01*
X602405Y601657D01*
X602057Y601837D01*
X601713Y602027D01*
X601373Y602225D01*
X601039Y602431D01*
X600710Y602645D01*
X600386Y602867D01*
X600068Y603097D01*
X599755Y603335D01*
X599448Y603580D01*
X599148Y603833D01*
X598854Y604093D01*
X598566Y604361D01*
X598285Y604635D01*
X598011Y604916D01*
X597743Y605204D01*
X597483Y605498D01*
X597230Y605798D01*
X596985Y606105D01*
X596747Y606418D01*
X596517Y606736D01*
X596295Y607060D01*
X596081Y607389D01*
X595875Y607723D01*
X595677Y608063D01*
X595487Y608407D01*
X595307Y608755D01*
X595134Y609108D01*
X594971Y609465D01*
X594816Y609826D01*
X594670Y610191D01*
X594533Y610559D01*
X594406Y610930D01*
X594287Y611305D01*
X594178Y611682D01*
X594078Y612062D01*
X593987Y612444D01*
X593905Y612828D01*
X593834Y613214D01*
X593771Y613602D01*
X593718Y613991D01*
X593675Y614382D01*
X593641Y614773D01*
X593617Y615165D01*
X593603Y615557D01*
X593598Y615950D01*
X237998Y95250D02*
X238003Y95643D01*
X238017Y96035D01*
X238041Y96427D01*
X238075Y96818D01*
X238118Y97209D01*
X238171Y97598D01*
X238234Y97986D01*
X238305Y98372D01*
X238387Y98756D01*
X238478Y99138D01*
X238578Y99518D01*
X238687Y99895D01*
X238806Y100270D01*
X238933Y100641D01*
X239070Y101009D01*
X239216Y101374D01*
X239371Y101735D01*
X239534Y102092D01*
X239707Y102445D01*
X239887Y102793D01*
X240077Y103137D01*
X240275Y103477D01*
X240481Y103811D01*
X240695Y104140D01*
X240917Y104464D01*
X241147Y104782D01*
X241385Y105095D01*
X241630Y105402D01*
X241883Y105702D01*
X242143Y105996D01*
X242411Y106284D01*
X242685Y106565D01*
X242966Y106839D01*
X243254Y107107D01*
X243548Y107367D01*
X243848Y107620D01*
X244155Y107865D01*
X244468Y108103D01*
X244786Y108333D01*
X245110Y108555D01*
X245439Y108769D01*
X245773Y108975D01*
X246113Y109173D01*
X246457Y109363D01*
X246805Y109543D01*
X247158Y109716D01*
X247515Y109879D01*
X247876Y110034D01*
X248241Y110180D01*
X248609Y110317D01*
X248980Y110444D01*
X249355Y110563D01*
X249732Y110672D01*
X250112Y110772D01*
X250494Y110863D01*
X250878Y110945D01*
X251264Y111016D01*
X251652Y111079D01*
X252041Y111132D01*
X252432Y111175D01*
X252823Y111209D01*
X253215Y111233D01*
X253607Y111247D01*
X254000Y111252D01*
X254393Y111247D01*
X254785Y111233D01*
X255177Y111209D01*
X255568Y111175D01*
X255959Y111132D01*
X256348Y111079D01*
X256736Y111016D01*
X257122Y110945D01*
X257506Y110863D01*
X257888Y110772D01*
X258268Y110672D01*
X258645Y110563D01*
X259020Y110444D01*
X259391Y110317D01*
X259759Y110180D01*
X260124Y110034D01*
X260485Y109879D01*
X260842Y109716D01*
X261195Y109543D01*
X261543Y109363D01*
X261887Y109173D01*
X262227Y108975D01*
X262561Y108769D01*
X262890Y108555D01*
X263214Y108333D01*
X263532Y108103D01*
X263845Y107865D01*
X264152Y107620D01*
X264452Y107367D01*
X264746Y107107D01*
X265034Y106839D01*
X265315Y106565D01*
X265589Y106284D01*
X265857Y105996D01*
X266117Y105702D01*
X266370Y105402D01*
X266615Y105095D01*
X266853Y104782D01*
X267083Y104464D01*
X267305Y104140D01*
X267519Y103811D01*
X267725Y103477D01*
X267923Y103137D01*
X268113Y102793D01*
X268293Y102445D01*
X268466Y102092D01*
X268629Y101735D01*
X268784Y101374D01*
X268930Y101009D01*
X269067Y100641D01*
X269194Y100270D01*
X269313Y99895D01*
X269422Y99518D01*
X269522Y99138D01*
X269613Y98756D01*
X269695Y98372D01*
X269766Y97986D01*
X269829Y97598D01*
X269882Y97209D01*
X269925Y96818D01*
X269959Y96427D01*
X269983Y96035D01*
X269997Y95643D01*
X270002Y95250D01*
X269997Y94857D01*
X269983Y94465D01*
X269959Y94073D01*
X269925Y93682D01*
X269882Y93291D01*
X269829Y92902D01*
X269766Y92514D01*
X269695Y92128D01*
X269613Y91744D01*
X269522Y91362D01*
X269422Y90982D01*
X269313Y90605D01*
X269194Y90230D01*
X269067Y89859D01*
X268930Y89491D01*
X268784Y89126D01*
X268629Y88765D01*
X268466Y88408D01*
X268293Y88055D01*
X268113Y87707D01*
X267923Y87363D01*
X267725Y87023D01*
X267519Y86689D01*
X267305Y86360D01*
X267083Y86036D01*
X266853Y85718D01*
X266615Y85405D01*
X266370Y85098D01*
X266117Y84798D01*
X265857Y84504D01*
X265589Y84216D01*
X265315Y83935D01*
X265034Y83661D01*
X264746Y83393D01*
X264452Y83133D01*
X264152Y82880D01*
X263845Y82635D01*
X263532Y82397D01*
X263214Y82167D01*
X262890Y81945D01*
X262561Y81731D01*
X262227Y81525D01*
X261887Y81327D01*
X261543Y81137D01*
X261195Y80957D01*
X260842Y80784D01*
X260485Y80621D01*
X260124Y80466D01*
X259759Y80320D01*
X259391Y80183D01*
X259020Y80056D01*
X258645Y79937D01*
X258268Y79828D01*
X257888Y79728D01*
X257506Y79637D01*
X257122Y79555D01*
X256736Y79484D01*
X256348Y79421D01*
X255959Y79368D01*
X255568Y79325D01*
X255177Y79291D01*
X254785Y79267D01*
X254393Y79253D01*
X254000Y79248D01*
X253607Y79253D01*
X253215Y79267D01*
X252823Y79291D01*
X252432Y79325D01*
X252041Y79368D01*
X251652Y79421D01*
X251264Y79484D01*
X250878Y79555D01*
X250494Y79637D01*
X250112Y79728D01*
X249732Y79828D01*
X249355Y79937D01*
X248980Y80056D01*
X248609Y80183D01*
X248241Y80320D01*
X247876Y80466D01*
X247515Y80621D01*
X247158Y80784D01*
X246805Y80957D01*
X246457Y81137D01*
X246113Y81327D01*
X245773Y81525D01*
X245439Y81731D01*
X245110Y81945D01*
X244786Y82167D01*
X244468Y82397D01*
X244155Y82635D01*
X243848Y82880D01*
X243548Y83133D01*
X243254Y83393D01*
X242966Y83661D01*
X242685Y83935D01*
X242411Y84216D01*
X242143Y84504D01*
X241883Y84798D01*
X241630Y85098D01*
X241385Y85405D01*
X241147Y85718D01*
X240917Y86036D01*
X240695Y86360D01*
X240481Y86689D01*
X240275Y87023D01*
X240077Y87363D01*
X239887Y87707D01*
X239707Y88055D01*
X239534Y88408D01*
X239371Y88765D01*
X239216Y89126D01*
X239070Y89491D01*
X238933Y89859D01*
X238806Y90230D01*
X238687Y90605D01*
X238578Y90982D01*
X238478Y91362D01*
X238387Y91744D01*
X238305Y92128D01*
X238234Y92514D01*
X238171Y92902D01*
X238118Y93291D01*
X238075Y93682D01*
X238041Y94073D01*
X238017Y94465D01*
X238003Y94857D01*
X237998Y95250D01*
D11*
X0Y0D02*
X812800Y0D01*
X812800Y990600D01*
X0Y990600D01*
X0Y0D01*
X625602Y615426D02*
X625533Y614381D01*
X625397Y613342D01*
X625192Y612314D01*
X624921Y611302D01*
X624584Y610310D01*
X624183Y609342D01*
X623720Y608403D01*
X623196Y607495D01*
X622614Y606624D01*
X621976Y605793D01*
X621286Y605005D01*
X620545Y604264D01*
X619757Y603574D01*
X618926Y602936D01*
X618055Y602354D01*
X617147Y601830D01*
X616208Y601367D01*
X615240Y600966D01*
X614248Y600629D01*
X613236Y600358D01*
X612208Y600153D01*
X611169Y600017D01*
X610124Y599948D01*
X609076Y599948D01*
X608031Y600017D01*
X606992Y600153D01*
X605964Y600358D01*
X604952Y600629D01*
X603960Y600966D01*
X602992Y601367D01*
X602053Y601830D01*
X601145Y602354D01*
X600274Y602936D01*
X599443Y603574D01*
X598655Y604264D01*
X597914Y605005D01*
X597224Y605793D01*
X596586Y606624D01*
X596004Y607495D01*
X595480Y608403D01*
X595017Y609342D01*
X594616Y610310D01*
X594279Y611302D01*
X594008Y612314D01*
X593803Y613342D01*
X593667Y614381D01*
X593598Y615426D01*
X593598Y616474D01*
X593667Y617519D01*
X593803Y618558D01*
X594008Y619586D01*
X594279Y620598D01*
X594616Y621590D01*
X595017Y622558D01*
X595480Y623497D01*
X596004Y624405D01*
X596586Y625276D01*
X597224Y626107D01*
X597914Y626895D01*
X598655Y627636D01*
X599443Y628326D01*
X600274Y628964D01*
X601145Y629546D01*
X602053Y630070D01*
X602992Y630533D01*
X603960Y630934D01*
X604952Y631271D01*
X605964Y631542D01*
X606992Y631747D01*
X608031Y631883D01*
X609076Y631952D01*
X610124Y631952D01*
X611169Y631883D01*
X612208Y631747D01*
X613236Y631542D01*
X614248Y631271D01*
X615240Y630934D01*
X616208Y630533D01*
X617147Y630070D01*
X618055Y629546D01*
X618926Y628964D01*
X619757Y628326D01*
X620545Y627636D01*
X621286Y626895D01*
X621976Y626107D01*
X622614Y625276D01*
X623196Y624405D01*
X623720Y623497D01*
X624183Y622558D01*
X624584Y621590D01*
X624921Y620598D01*
X625192Y619586D01*
X625397Y618558D01*
X625533Y617519D01*
X625602Y616474D01*
X625602Y615426D01*
X270002Y94726D02*
X269933Y93681D01*
X269797Y92642D01*
X269592Y91614D01*
X269321Y90602D01*
X268984Y89610D01*
X268583Y88642D01*
X268120Y87703D01*
X267596Y86795D01*
X267014Y85924D01*
X266376Y85093D01*
X265686Y84305D01*
X264945Y83564D01*
X264157Y82874D01*
X263326Y82236D01*
X262455Y81654D01*
X261547Y81130D01*
X260608Y80667D01*
X259640Y80266D01*
X258648Y79929D01*
X257636Y79658D01*
X256608Y79453D01*
X255569Y79317D01*
X254524Y79248D01*
X253476Y79248D01*
X252431Y79317D01*
X251392Y79453D01*
X250364Y79658D01*
X249352Y79929D01*
X248360Y80266D01*
X247392Y80667D01*
X246453Y81130D01*
X245545Y81654D01*
X244674Y82236D01*
X243843Y82874D01*
X243055Y83564D01*
X242314Y84305D01*
X241624Y85093D01*
X240986Y85924D01*
X240404Y86795D01*
X239880Y87703D01*
X239417Y88642D01*
X239016Y89610D01*
X238679Y90602D01*
X238408Y91614D01*
X238203Y92642D01*
X238067Y93681D01*
X237998Y94726D01*
X237998Y95774D01*
X238067Y96819D01*
X238203Y97858D01*
X238408Y98886D01*
X238679Y99898D01*
X239016Y100890D01*
X239417Y101858D01*
X239880Y102797D01*
X240404Y103705D01*
X240986Y104576D01*
X241624Y105407D01*
X242314Y106195D01*
X243055Y106936D01*
X243843Y107626D01*
X244674Y108264D01*
X245545Y108846D01*
X246453Y109370D01*
X247392Y109833D01*
X248360Y110234D01*
X249352Y110571D01*
X250364Y110842D01*
X251392Y111047D01*
X252431Y111183D01*
X253476Y111252D01*
X254524Y111252D01*
X255569Y111183D01*
X256608Y111047D01*
X257636Y110842D01*
X258648Y110571D01*
X259640Y110234D01*
X260608Y109833D01*
X261547Y109370D01*
X262455Y108846D01*
X263326Y108264D01*
X264157Y107626D01*
X264945Y106936D01*
X265686Y106195D01*
X266376Y105407D01*
X267014Y104576D01*
X267596Y103705D01*
X268120Y102797D01*
X268583Y101858D01*
X268984Y100890D01*
X269321Y99898D01*
X269592Y98886D01*
X269797Y97858D01*
X269933Y96819D01*
X270002Y95774D01*
X270002Y94726D01*
M02*
