M48
;GenerationSoftware,Autodesk,EAGLE,9.6.2*%
;CreationDate,2023-01-06T09:36:25Z*%
FMAT,2
ICI,OFF
METRIC,TZ,000.000
T7C0.350
T6C0.700
T5C0.813
T4C1.016
T3C1.100
T2C2.100
T1C3.200
%
G90
M71
T1
X55880Y9525
X20320Y61595
T2
X70430Y44450
X79430Y44450
X52650Y55880
X61650Y55880
X70430Y67310
X61540Y96520
X70540Y96520
X79430Y67310
X52650Y78740
X61650Y78740
X31060Y73660
X40060Y73660
X31060Y96520
X40060Y96520
X31060Y50800
X40060Y50800
X5660Y96520
X14660Y96520
X5660Y73660
X14660Y73660
X5660Y50800
X14660Y50800
T3
X12660Y43800
X10160Y43800
X7660Y66660
X10160Y66660
X12660Y66660
X7660Y43800
X35560Y27860
X7660Y89520
X10160Y89520
X12660Y89520
X35560Y19360
X35560Y16360
X35560Y12850
X35560Y9850
X33060Y43800
X35560Y43800
X38060Y43800
X64770Y27860
X64770Y19360
X33060Y89520
X35560Y89520
X38060Y89520
X64770Y16360
X64770Y1350
X33060Y66660
X35560Y66660
X38060Y66660
X64770Y9850
X64770Y12850
X54650Y71740
X57150Y71740
X59650Y71740
X63540Y89520
X66040Y89520
X72430Y60310
X74930Y60310
X77430Y60310
X68540Y89520
X72430Y37450
X54650Y48880
X57150Y48880
X59650Y48880
X74930Y37450
X77430Y37450
X10160Y1350
X10160Y9850
X10160Y12850
X10160Y27860
X10160Y19360
X10160Y16360
X35560Y1350
T4
X22860Y85090
X78740Y78740
X22860Y82550
X22860Y80010
X46990Y85090
X46990Y82550
X46990Y80010
X46990Y77470
X2540Y92710
X2540Y90170
X2540Y87630
X78740Y81280
X78740Y83820
X78740Y86360
X78740Y88900
X78740Y91440
X78740Y76200
X2540Y85090
X2540Y82550
X2540Y80010
X2540Y77470
T5
X6350Y40640
X13970Y40640
X62230Y86360
X69850Y86360
X71120Y27940
X78740Y51435
X71120Y51435
X77470Y54610
X77470Y57150
X71120Y33020
X78740Y27940
X78740Y33020
X76200Y26670
X43180Y60960
X43180Y63500
X50800Y41910
X50800Y46990
X31750Y86360
X39370Y86360
X13970Y58420
X6350Y58420
X76200Y34290
X73660Y34290
X73660Y26670
X57150Y63500
X49530Y63500
X57150Y66040
X49530Y66040
X73660Y11430
X20320Y48260
X20320Y40640
X22860Y40640
X22860Y48260
X13970Y34290
X6350Y34290
X7620Y31750
X12700Y31750
X22860Y25400
X22860Y17780
X25400Y25400
X25400Y17780
X22860Y6350
X22860Y13970
X20320Y17780
X20320Y25400
X20320Y13970
X20320Y6350
X17780Y17780
X17780Y25400
X17780Y13970
X17780Y6350
X17780Y45720
X17780Y40640
X29210Y35560
X29210Y30480
X73660Y3810
X71120Y3810
X71120Y11430
X78740Y3810
X78740Y11430
X76200Y3810
X76200Y11430
X67310Y31750
X62230Y31750
X68580Y36830
X60960Y36830
X60960Y34290
X68580Y34290
X43180Y41910
X43180Y46990
X54610Y30480
X45720Y48260
X45720Y40640
X48260Y48260
X48260Y40640
X31750Y34290
X39370Y34290
X38100Y31750
X33020Y31750
X48260Y6350
X48260Y13970
X48260Y25400
X48260Y17780
X45720Y17780
X45720Y25400
X50800Y25400
X50800Y17780
X43180Y17780
X43180Y25400
X43180Y13970
X43180Y6350
X45720Y13970
X45720Y6350
X54610Y35560
T6
X71120Y22860
X73660Y22860
X76200Y22860
X78740Y22860
X78740Y15240
X76200Y15240
X73660Y15240
X71120Y15240
X43180Y36830
X45720Y36830
X48260Y36830
X50800Y36830
X50800Y29210
X48260Y29210
X45720Y29210
X43180Y29210
X17780Y36830
X20320Y36830
X22860Y36830
X25400Y36830
X25400Y29210
X22860Y29210
X20320Y29210
X17780Y29210
T7
X62865Y62865
X46990Y24130
X43180Y22860
X48260Y60960
X36830Y85090
X45720Y58420
X77470Y25400
X53340Y25400
X49530Y87630
X72390Y72390
X64135Y81280
X66675Y83820
X63500Y33020
X44450Y33020
X19050Y33020
X27940Y82550
X74930Y31750
X52070Y22860
X74295Y79375
M30