G04 EAGLE Gerber RS-274X export*
G75*
%MOMM*%
%FSLAX34Y34*%
%LPD*%
%IN*%
%IPPOS*%
%AMOC8*
5,1,8,0,0,1.08239X$1,22.5*%
G01*
%ADD10C,0.254000*%


D10*
X0Y0D02*
X812800Y0D01*
X812800Y990600D01*
X0Y990600D01*
X0Y0D01*
X574802Y94726D02*
X574733Y93681D01*
X574597Y92642D01*
X574392Y91614D01*
X574121Y90602D01*
X573784Y89610D01*
X573383Y88642D01*
X572920Y87703D01*
X572396Y86795D01*
X571814Y85924D01*
X571176Y85093D01*
X570486Y84305D01*
X569745Y83564D01*
X568957Y82874D01*
X568126Y82236D01*
X567255Y81654D01*
X566347Y81130D01*
X565408Y80667D01*
X564440Y80266D01*
X563448Y79929D01*
X562436Y79658D01*
X561408Y79453D01*
X560369Y79317D01*
X559324Y79248D01*
X558276Y79248D01*
X557231Y79317D01*
X556192Y79453D01*
X555164Y79658D01*
X554152Y79929D01*
X553160Y80266D01*
X552192Y80667D01*
X551253Y81130D01*
X550345Y81654D01*
X549474Y82236D01*
X548643Y82874D01*
X547855Y83564D01*
X547114Y84305D01*
X546424Y85093D01*
X545786Y85924D01*
X545204Y86795D01*
X544680Y87703D01*
X544217Y88642D01*
X543816Y89610D01*
X543479Y90602D01*
X543208Y91614D01*
X543003Y92642D01*
X542867Y93681D01*
X542798Y94726D01*
X542798Y95774D01*
X542867Y96819D01*
X543003Y97858D01*
X543208Y98886D01*
X543479Y99898D01*
X543816Y100890D01*
X544217Y101858D01*
X544680Y102797D01*
X545204Y103705D01*
X545786Y104576D01*
X546424Y105407D01*
X547114Y106195D01*
X547855Y106936D01*
X548643Y107626D01*
X549474Y108264D01*
X550345Y108846D01*
X551253Y109370D01*
X552192Y109833D01*
X553160Y110234D01*
X554152Y110571D01*
X555164Y110842D01*
X556192Y111047D01*
X557231Y111183D01*
X558276Y111252D01*
X559324Y111252D01*
X560369Y111183D01*
X561408Y111047D01*
X562436Y110842D01*
X563448Y110571D01*
X564440Y110234D01*
X565408Y109833D01*
X566347Y109370D01*
X567255Y108846D01*
X568126Y108264D01*
X568957Y107626D01*
X569745Y106936D01*
X570486Y106195D01*
X571176Y105407D01*
X571814Y104576D01*
X572396Y103705D01*
X572920Y102797D01*
X573383Y101858D01*
X573784Y100890D01*
X574121Y99898D01*
X574392Y98886D01*
X574597Y97858D01*
X574733Y96819D01*
X574802Y95774D01*
X574802Y94726D01*
X219202Y615426D02*
X219133Y614381D01*
X218997Y613342D01*
X218792Y612314D01*
X218521Y611302D01*
X218184Y610310D01*
X217783Y609342D01*
X217320Y608403D01*
X216796Y607495D01*
X216214Y606624D01*
X215576Y605793D01*
X214886Y605005D01*
X214145Y604264D01*
X213357Y603574D01*
X212526Y602936D01*
X211655Y602354D01*
X210747Y601830D01*
X209808Y601367D01*
X208840Y600966D01*
X207848Y600629D01*
X206836Y600358D01*
X205808Y600153D01*
X204769Y600017D01*
X203724Y599948D01*
X202676Y599948D01*
X201631Y600017D01*
X200592Y600153D01*
X199564Y600358D01*
X198552Y600629D01*
X197560Y600966D01*
X196592Y601367D01*
X195653Y601830D01*
X194745Y602354D01*
X193874Y602936D01*
X193043Y603574D01*
X192255Y604264D01*
X191514Y605005D01*
X190824Y605793D01*
X190186Y606624D01*
X189604Y607495D01*
X189080Y608403D01*
X188617Y609342D01*
X188216Y610310D01*
X187879Y611302D01*
X187608Y612314D01*
X187403Y613342D01*
X187267Y614381D01*
X187198Y615426D01*
X187198Y616474D01*
X187267Y617519D01*
X187403Y618558D01*
X187608Y619586D01*
X187879Y620598D01*
X188216Y621590D01*
X188617Y622558D01*
X189080Y623497D01*
X189604Y624405D01*
X190186Y625276D01*
X190824Y626107D01*
X191514Y626895D01*
X192255Y627636D01*
X193043Y628326D01*
X193874Y628964D01*
X194745Y629546D01*
X195653Y630070D01*
X196592Y630533D01*
X197560Y630934D01*
X198552Y631271D01*
X199564Y631542D01*
X200592Y631747D01*
X201631Y631883D01*
X202676Y631952D01*
X203724Y631952D01*
X204769Y631883D01*
X205808Y631747D01*
X206836Y631542D01*
X207848Y631271D01*
X208840Y630934D01*
X209808Y630533D01*
X210747Y630070D01*
X211655Y629546D01*
X212526Y628964D01*
X213357Y628326D01*
X214145Y627636D01*
X214886Y626895D01*
X215576Y626107D01*
X216214Y625276D01*
X216796Y624405D01*
X217320Y623497D01*
X217783Y622558D01*
X218184Y621590D01*
X218521Y620598D01*
X218792Y619586D01*
X218997Y618558D01*
X219133Y617519D01*
X219202Y616474D01*
X219202Y615426D01*
M02*
