G04 EAGLE Gerber RS-274X export*
G75*
%MOMM*%
%FSLAX34Y34*%
%LPD*%
%INSoldermask Top*%
%IPPOS*%
%AMOC8*
5,1,8,0,0,1.08239X$1,22.5*%
G01*
%ADD10C,3.403600*%
%ADD11R,1.879600X1.879600*%
%ADD12P,2.034460X8X292.500000*%
%ADD13R,3.319200X3.319200*%
%ADD14P,1.649562X8X202.500000*%
%ADD15C,1.853200*%
%ADD16C,1.727200*%
%ADD17P,1.951982X8X292.500000*%
%ADD18C,1.803400*%
%ADD19C,1.411200*%
%ADD20P,1.649562X8X292.500000*%
%ADD21P,1.649562X8X112.500000*%
%ADD22P,1.649562X8X22.500000*%
%ADD23C,1.524000*%
%ADD24C,0.959600*%


D10*
X558800Y95250D03*
X203200Y615950D03*
D11*
X76600Y438000D03*
D12*
X101600Y438000D03*
X126600Y438000D03*
D13*
X146600Y508000D03*
X56600Y508000D03*
D11*
X76600Y666600D03*
D12*
X101600Y666600D03*
X126600Y666600D03*
D13*
X146600Y736600D03*
X56600Y736600D03*
D11*
X76600Y895200D03*
D12*
X101600Y895200D03*
X126600Y895200D03*
D13*
X146600Y965200D03*
X56600Y965200D03*
D14*
X139700Y584200D03*
X63500Y584200D03*
D11*
X330600Y438000D03*
D12*
X355600Y438000D03*
X380600Y438000D03*
D13*
X400600Y508000D03*
X310600Y508000D03*
D11*
X330600Y895200D03*
D12*
X355600Y895200D03*
X380600Y895200D03*
D13*
X400600Y965200D03*
X310600Y965200D03*
D11*
X330600Y666600D03*
D12*
X355600Y666600D03*
X380600Y666600D03*
D13*
X400600Y736600D03*
X310600Y736600D03*
D11*
X546500Y717400D03*
D12*
X571500Y717400D03*
X596500Y717400D03*
D13*
X616500Y787400D03*
X526500Y787400D03*
D11*
X724300Y603100D03*
D12*
X749300Y603100D03*
X774300Y603100D03*
D13*
X794300Y673100D03*
X704300Y673100D03*
D11*
X546500Y488800D03*
D12*
X571500Y488800D03*
X596500Y488800D03*
D13*
X616500Y558800D03*
X526500Y558800D03*
D15*
X101600Y13500D03*
X101600Y98500D03*
X101600Y128500D03*
X101600Y278600D03*
X101600Y193600D03*
X101600Y163600D03*
X355600Y13500D03*
X355600Y98500D03*
X355600Y128500D03*
X355600Y278600D03*
X355600Y193600D03*
X355600Y163600D03*
X647700Y278600D03*
X647700Y193600D03*
X647700Y163600D03*
X647700Y13500D03*
X647700Y98500D03*
X647700Y128500D03*
D14*
X393700Y863600D03*
X317500Y863600D03*
D11*
X635400Y895200D03*
D12*
X660400Y895200D03*
X685400Y895200D03*
D13*
X705400Y965200D03*
X615400Y965200D03*
D14*
X698500Y863600D03*
X622300Y863600D03*
X139700Y406400D03*
X63500Y406400D03*
D16*
X33020Y774700D02*
X17780Y774700D01*
X17780Y800100D02*
X33020Y800100D01*
X33020Y825500D02*
X17780Y825500D01*
X17780Y850900D02*
X33020Y850900D01*
D14*
X787400Y514350D03*
X711200Y514350D03*
D17*
X774700Y546100D03*
D18*
X774700Y571500D03*
D11*
X724300Y374500D03*
D12*
X749300Y374500D03*
X774300Y374500D03*
D13*
X794300Y444500D03*
X704300Y444500D03*
D16*
X779780Y914400D02*
X795020Y914400D01*
X795020Y889000D02*
X779780Y889000D01*
X779780Y863600D02*
X795020Y863600D01*
X795020Y838200D02*
X779780Y838200D01*
X779780Y812800D02*
X795020Y812800D01*
X795020Y787400D02*
X779780Y787400D01*
X779780Y762000D02*
X795020Y762000D01*
D19*
X177800Y298140D02*
X177800Y286060D01*
X203200Y286060D02*
X203200Y298140D01*
X228600Y298140D02*
X228600Y286060D01*
X254000Y286060D02*
X254000Y298140D01*
X254000Y362260D02*
X254000Y374340D01*
X228600Y374340D02*
X228600Y362260D01*
X203200Y362260D02*
X203200Y374340D01*
X177800Y374340D02*
X177800Y362260D01*
D20*
X203200Y482600D03*
X203200Y406400D03*
D21*
X228600Y406400D03*
X228600Y482600D03*
D14*
X139700Y342900D03*
X63500Y342900D03*
D22*
X76200Y317500D03*
X127000Y317500D03*
D20*
X228600Y254000D03*
X228600Y177800D03*
X254000Y254000D03*
X254000Y177800D03*
D23*
X228600Y70104D02*
X228600Y56896D01*
X228600Y133096D02*
X228600Y146304D01*
D21*
X203200Y177800D03*
X203200Y254000D03*
D20*
X203200Y139700D03*
X203200Y63500D03*
D23*
X177800Y171196D02*
X177800Y184404D01*
X177800Y247396D02*
X177800Y260604D01*
D20*
X177800Y139700D03*
X177800Y63500D03*
X177800Y457200D03*
X177800Y406400D03*
X292100Y355600D03*
X292100Y304800D03*
D19*
X431800Y298140D02*
X431800Y286060D01*
X457200Y286060D02*
X457200Y298140D01*
X482600Y298140D02*
X482600Y286060D01*
X508000Y286060D02*
X508000Y298140D01*
X508000Y362260D02*
X508000Y374340D01*
X482600Y374340D02*
X482600Y362260D01*
X457200Y362260D02*
X457200Y374340D01*
X431800Y374340D02*
X431800Y362260D01*
X711200Y158440D02*
X711200Y146360D01*
X736600Y146360D02*
X736600Y158440D01*
X762000Y158440D02*
X762000Y146360D01*
X787400Y146360D02*
X787400Y158440D01*
X787400Y222560D02*
X787400Y234640D01*
X762000Y234640D02*
X762000Y222560D01*
X736600Y222560D02*
X736600Y234640D01*
X711200Y234640D02*
X711200Y222560D01*
D20*
X457200Y482600D03*
X457200Y406400D03*
X482600Y482600D03*
X482600Y406400D03*
D22*
X317500Y342900D03*
X393700Y342900D03*
D14*
X381000Y317500D03*
X330200Y317500D03*
D23*
X482600Y70104D02*
X482600Y56896D01*
X482600Y133096D02*
X482600Y146304D01*
D20*
X482600Y254000D03*
X482600Y177800D03*
D21*
X457200Y177800D03*
X457200Y254000D03*
D20*
X508000Y254000D03*
X508000Y177800D03*
D23*
X431800Y171196D02*
X431800Y184404D01*
X431800Y247396D02*
X431800Y260604D01*
D20*
X431800Y139700D03*
X431800Y63500D03*
X457200Y139700D03*
X457200Y63500D03*
X546100Y355600D03*
X546100Y304800D03*
X431800Y469900D03*
X431800Y419100D03*
D14*
X685800Y342900D03*
X609600Y342900D03*
D23*
X602996Y368300D02*
X616204Y368300D01*
X679196Y368300D02*
X692404Y368300D01*
D22*
X622300Y317500D03*
X673100Y317500D03*
D20*
X762000Y114300D03*
X762000Y38100D03*
X787400Y114300D03*
X787400Y38100D03*
X711200Y114300D03*
X711200Y38100D03*
D21*
X736600Y38100D03*
X736600Y114300D03*
D23*
X501904Y660400D02*
X488696Y660400D01*
X564896Y660400D02*
X578104Y660400D01*
D22*
X495300Y635000D03*
X571500Y635000D03*
D21*
X736600Y266700D03*
X736600Y342900D03*
D20*
X762000Y342900D03*
X762000Y266700D03*
X787400Y330200D03*
X787400Y279400D03*
X711200Y330200D03*
X711200Y279400D03*
D17*
X431800Y609600D03*
D18*
X431800Y635000D03*
D21*
X508000Y419100D03*
X508000Y469900D03*
D16*
X33020Y876300D02*
X17780Y876300D01*
X17780Y901700D02*
X33020Y901700D01*
X33020Y927100D02*
X17780Y927100D01*
X462280Y774700D02*
X477520Y774700D01*
X477520Y800100D02*
X462280Y800100D01*
X462280Y825500D02*
X477520Y825500D01*
X477520Y850900D02*
X462280Y850900D01*
X236220Y800100D02*
X220980Y800100D01*
X220980Y825500D02*
X236220Y825500D01*
X236220Y850900D02*
X220980Y850900D01*
D24*
X742950Y793750D03*
X628650Y628650D03*
X469900Y241300D03*
X431800Y228600D03*
X482600Y609600D03*
X368300Y850900D03*
X457200Y584200D03*
X723900Y254000D03*
X533400Y254000D03*
X495300Y876300D03*
X723900Y723900D03*
X647700Y812800D03*
X673100Y838200D03*
X635000Y330200D03*
X444500Y330200D03*
X190500Y330200D03*
X279400Y825500D03*
X749300Y317500D03*
X520700Y228600D03*
M02*
