G04 EAGLE Gerber RS-274X export*
G75*
%MOMM*%
%FSLAX34Y34*%
%LPD*%
%INBottom Copper*%
%IPPOS*%
%AMOC8*
5,1,8,0,0,1.08239X$1,22.5*%
G01*
%ADD10R,1.676400X1.676400*%
%ADD11P,1.814519X8X292.500000*%
%ADD12R,3.116000X3.116000*%
%ADD13P,1.429621X8X202.500000*%
%ADD14C,1.650000*%
%ADD15C,1.524000*%
%ADD16P,1.732040X8X292.500000*%
%ADD17C,1.600200*%
%ADD18C,1.208000*%
%ADD19P,1.429621X8X292.500000*%
%ADD20P,1.429621X8X112.500000*%
%ADD21P,1.429621X8X22.500000*%
%ADD22C,1.320800*%
%ADD23C,0.406400*%
%ADD24C,0.756400*%
%ADD25C,0.609600*%

G36*
X89812Y10163D02*
X89812Y10163D01*
X89830Y10161D01*
X90012Y10182D01*
X90195Y10201D01*
X90212Y10206D01*
X90229Y10208D01*
X90404Y10265D01*
X90580Y10319D01*
X90595Y10327D01*
X90612Y10333D01*
X90772Y10423D01*
X90934Y10511D01*
X90947Y10522D01*
X90963Y10531D01*
X91102Y10651D01*
X91243Y10768D01*
X91254Y10782D01*
X91268Y10794D01*
X91380Y10939D01*
X91495Y11082D01*
X91503Y11098D01*
X91514Y11112D01*
X91596Y11277D01*
X91681Y11439D01*
X91686Y11456D01*
X91694Y11472D01*
X91741Y11651D01*
X91792Y11826D01*
X91794Y11844D01*
X91798Y11861D01*
X91825Y12192D01*
X91825Y15444D01*
X93313Y19037D01*
X96063Y21787D01*
X97800Y22506D01*
X99656Y23275D01*
X103544Y23275D01*
X107137Y21787D01*
X109887Y19037D01*
X111375Y15444D01*
X111375Y12192D01*
X111377Y12174D01*
X111375Y12156D01*
X111396Y11974D01*
X111415Y11791D01*
X111420Y11774D01*
X111422Y11757D01*
X111479Y11582D01*
X111533Y11406D01*
X111541Y11391D01*
X111547Y11374D01*
X111637Y11214D01*
X111725Y11052D01*
X111736Y11039D01*
X111745Y11023D01*
X111865Y10884D01*
X111982Y10743D01*
X111996Y10732D01*
X112008Y10718D01*
X112153Y10606D01*
X112296Y10491D01*
X112312Y10483D01*
X112326Y10472D01*
X112491Y10390D01*
X112653Y10305D01*
X112670Y10300D01*
X112686Y10292D01*
X112865Y10245D01*
X113040Y10194D01*
X113058Y10192D01*
X113075Y10188D01*
X113406Y10161D01*
X343794Y10161D01*
X343812Y10163D01*
X343830Y10161D01*
X344012Y10182D01*
X344195Y10201D01*
X344212Y10206D01*
X344229Y10208D01*
X344404Y10265D01*
X344580Y10319D01*
X344595Y10327D01*
X344612Y10333D01*
X344772Y10423D01*
X344934Y10511D01*
X344947Y10522D01*
X344963Y10531D01*
X345102Y10651D01*
X345243Y10768D01*
X345254Y10782D01*
X345268Y10794D01*
X345380Y10939D01*
X345495Y11082D01*
X345503Y11098D01*
X345514Y11112D01*
X345596Y11277D01*
X345681Y11439D01*
X345686Y11456D01*
X345694Y11472D01*
X345741Y11651D01*
X345792Y11826D01*
X345794Y11844D01*
X345798Y11861D01*
X345825Y12192D01*
X345825Y15444D01*
X347313Y19037D01*
X350063Y21787D01*
X351800Y22506D01*
X353656Y23275D01*
X357544Y23275D01*
X361137Y21787D01*
X363887Y19037D01*
X365375Y15444D01*
X365375Y12192D01*
X365377Y12174D01*
X365375Y12156D01*
X365396Y11974D01*
X365415Y11791D01*
X365420Y11774D01*
X365422Y11757D01*
X365479Y11582D01*
X365533Y11406D01*
X365541Y11391D01*
X365547Y11374D01*
X365637Y11214D01*
X365725Y11052D01*
X365736Y11039D01*
X365745Y11023D01*
X365865Y10884D01*
X365982Y10743D01*
X365996Y10732D01*
X366008Y10718D01*
X366153Y10606D01*
X366296Y10491D01*
X366312Y10483D01*
X366326Y10472D01*
X366491Y10390D01*
X366653Y10305D01*
X366670Y10300D01*
X366686Y10292D01*
X366865Y10245D01*
X367040Y10194D01*
X367058Y10192D01*
X367075Y10188D01*
X367406Y10161D01*
X635894Y10161D01*
X635912Y10163D01*
X635930Y10161D01*
X636112Y10182D01*
X636295Y10201D01*
X636312Y10206D01*
X636329Y10208D01*
X636504Y10265D01*
X636680Y10319D01*
X636695Y10327D01*
X636712Y10333D01*
X636872Y10423D01*
X637034Y10511D01*
X637047Y10522D01*
X637063Y10531D01*
X637202Y10651D01*
X637343Y10768D01*
X637354Y10782D01*
X637368Y10794D01*
X637480Y10939D01*
X637595Y11082D01*
X637603Y11098D01*
X637614Y11112D01*
X637696Y11277D01*
X637781Y11439D01*
X637786Y11456D01*
X637794Y11472D01*
X637841Y11651D01*
X637892Y11826D01*
X637894Y11844D01*
X637898Y11861D01*
X637925Y12192D01*
X637925Y15444D01*
X639413Y19037D01*
X642163Y21787D01*
X643900Y22506D01*
X645756Y23275D01*
X649644Y23275D01*
X653237Y21787D01*
X655987Y19037D01*
X657475Y15444D01*
X657475Y12192D01*
X657477Y12174D01*
X657475Y12156D01*
X657496Y11974D01*
X657515Y11791D01*
X657520Y11774D01*
X657522Y11757D01*
X657579Y11582D01*
X657633Y11406D01*
X657641Y11391D01*
X657647Y11374D01*
X657737Y11214D01*
X657825Y11052D01*
X657836Y11039D01*
X657845Y11023D01*
X657965Y10884D01*
X658082Y10743D01*
X658096Y10732D01*
X658108Y10718D01*
X658253Y10606D01*
X658396Y10491D01*
X658412Y10483D01*
X658426Y10472D01*
X658591Y10390D01*
X658753Y10305D01*
X658770Y10300D01*
X658786Y10292D01*
X658965Y10245D01*
X659140Y10194D01*
X659158Y10192D01*
X659175Y10188D01*
X659506Y10161D01*
X800608Y10161D01*
X800626Y10163D01*
X800644Y10161D01*
X800826Y10182D01*
X801009Y10201D01*
X801026Y10206D01*
X801043Y10208D01*
X801218Y10265D01*
X801394Y10319D01*
X801409Y10327D01*
X801426Y10333D01*
X801586Y10423D01*
X801748Y10511D01*
X801761Y10522D01*
X801777Y10531D01*
X801916Y10651D01*
X802057Y10768D01*
X802068Y10782D01*
X802082Y10794D01*
X802194Y10939D01*
X802309Y11082D01*
X802317Y11098D01*
X802328Y11112D01*
X802410Y11277D01*
X802495Y11439D01*
X802500Y11456D01*
X802508Y11472D01*
X802555Y11651D01*
X802606Y11826D01*
X802608Y11844D01*
X802612Y11861D01*
X802639Y12192D01*
X802639Y425364D01*
X802637Y425382D01*
X802639Y425400D01*
X802618Y425582D01*
X802599Y425765D01*
X802594Y425782D01*
X802592Y425799D01*
X802535Y425974D01*
X802481Y426150D01*
X802473Y426165D01*
X802467Y426182D01*
X802377Y426342D01*
X802289Y426504D01*
X802278Y426517D01*
X802269Y426533D01*
X802149Y426672D01*
X802032Y426813D01*
X802018Y426824D01*
X802006Y426838D01*
X801861Y426950D01*
X801718Y427065D01*
X801702Y427073D01*
X801688Y427084D01*
X801523Y427166D01*
X801361Y427251D01*
X801344Y427256D01*
X801328Y427264D01*
X801149Y427311D01*
X800974Y427362D01*
X800956Y427364D01*
X800939Y427368D01*
X800608Y427395D01*
X778088Y427395D01*
X777195Y428288D01*
X777195Y460712D01*
X778088Y461605D01*
X800608Y461605D01*
X800626Y461607D01*
X800644Y461605D01*
X800826Y461626D01*
X801009Y461645D01*
X801026Y461650D01*
X801043Y461652D01*
X801218Y461709D01*
X801394Y461763D01*
X801409Y461771D01*
X801426Y461777D01*
X801586Y461867D01*
X801748Y461955D01*
X801761Y461966D01*
X801777Y461975D01*
X801916Y462095D01*
X802057Y462212D01*
X802068Y462226D01*
X802082Y462238D01*
X802194Y462383D01*
X802309Y462526D01*
X802317Y462542D01*
X802328Y462556D01*
X802410Y462721D01*
X802495Y462883D01*
X802500Y462900D01*
X802508Y462916D01*
X802555Y463095D01*
X802606Y463270D01*
X802608Y463288D01*
X802612Y463305D01*
X802639Y463636D01*
X802639Y653964D01*
X802637Y653982D01*
X802639Y654000D01*
X802618Y654182D01*
X802599Y654365D01*
X802594Y654382D01*
X802592Y654399D01*
X802535Y654574D01*
X802481Y654750D01*
X802473Y654765D01*
X802467Y654782D01*
X802377Y654942D01*
X802289Y655104D01*
X802278Y655117D01*
X802269Y655133D01*
X802149Y655272D01*
X802032Y655413D01*
X802018Y655424D01*
X802006Y655438D01*
X801861Y655550D01*
X801718Y655665D01*
X801702Y655673D01*
X801688Y655684D01*
X801523Y655766D01*
X801361Y655851D01*
X801344Y655856D01*
X801328Y655864D01*
X801149Y655911D01*
X800974Y655962D01*
X800956Y655964D01*
X800939Y655968D01*
X800608Y655995D01*
X778088Y655995D01*
X777195Y656888D01*
X777195Y689312D01*
X778088Y690205D01*
X800608Y690205D01*
X800626Y690207D01*
X800644Y690205D01*
X800826Y690226D01*
X801009Y690245D01*
X801026Y690250D01*
X801043Y690252D01*
X801218Y690309D01*
X801394Y690363D01*
X801409Y690371D01*
X801426Y690377D01*
X801586Y690467D01*
X801748Y690555D01*
X801761Y690566D01*
X801777Y690575D01*
X801916Y690695D01*
X802057Y690812D01*
X802068Y690826D01*
X802082Y690838D01*
X802194Y690983D01*
X802309Y691126D01*
X802317Y691142D01*
X802328Y691156D01*
X802410Y691321D01*
X802495Y691483D01*
X802500Y691500D01*
X802508Y691516D01*
X802555Y691695D01*
X802606Y691870D01*
X802608Y691888D01*
X802612Y691905D01*
X802639Y692236D01*
X802639Y752218D01*
X802638Y752231D01*
X802639Y752245D01*
X802618Y752429D01*
X802599Y752618D01*
X802595Y752631D01*
X802594Y752645D01*
X802536Y752824D01*
X802481Y753003D01*
X802475Y753015D01*
X802471Y753028D01*
X802379Y753193D01*
X802289Y753357D01*
X802281Y753368D01*
X802274Y753379D01*
X802152Y753523D01*
X802032Y753667D01*
X802021Y753675D01*
X802013Y753685D01*
X801864Y753802D01*
X801718Y753919D01*
X801706Y753925D01*
X801696Y753933D01*
X801526Y754018D01*
X801361Y754105D01*
X801348Y754108D01*
X801336Y754114D01*
X801153Y754164D01*
X800974Y754216D01*
X800960Y754217D01*
X800947Y754221D01*
X800759Y754233D01*
X800572Y754249D01*
X800559Y754247D01*
X800546Y754248D01*
X800358Y754224D01*
X800173Y754202D01*
X800160Y754198D01*
X800147Y754196D01*
X799831Y754094D01*
X796839Y752855D01*
X777961Y752855D01*
X774600Y754247D01*
X772027Y756820D01*
X770635Y760181D01*
X770635Y763819D01*
X772027Y767180D01*
X774600Y769753D01*
X777961Y771145D01*
X796839Y771145D01*
X799831Y769906D01*
X799844Y769902D01*
X799855Y769895D01*
X800035Y769844D01*
X800216Y769789D01*
X800229Y769788D01*
X800242Y769784D01*
X800430Y769769D01*
X800617Y769751D01*
X800630Y769752D01*
X800644Y769751D01*
X800830Y769773D01*
X801017Y769793D01*
X801030Y769797D01*
X801043Y769798D01*
X801222Y769856D01*
X801402Y769912D01*
X801413Y769919D01*
X801426Y769923D01*
X801590Y770015D01*
X801755Y770106D01*
X801765Y770114D01*
X801777Y770121D01*
X801919Y770243D01*
X802063Y770365D01*
X802071Y770375D01*
X802082Y770384D01*
X802196Y770532D01*
X802314Y770680D01*
X802320Y770692D01*
X802328Y770702D01*
X802412Y770870D01*
X802498Y771038D01*
X802502Y771051D01*
X802508Y771063D01*
X802557Y771245D01*
X802608Y771425D01*
X802609Y771438D01*
X802612Y771451D01*
X802639Y771782D01*
X802639Y777618D01*
X802638Y777631D01*
X802639Y777645D01*
X802618Y777831D01*
X802599Y778018D01*
X802595Y778031D01*
X802594Y778045D01*
X802536Y778224D01*
X802481Y778403D01*
X802475Y778415D01*
X802471Y778428D01*
X802379Y778593D01*
X802289Y778757D01*
X802281Y778768D01*
X802274Y778779D01*
X802152Y778923D01*
X802032Y779067D01*
X802021Y779075D01*
X802013Y779085D01*
X801864Y779202D01*
X801718Y779319D01*
X801706Y779325D01*
X801696Y779333D01*
X801526Y779418D01*
X801361Y779505D01*
X801348Y779508D01*
X801336Y779514D01*
X801153Y779564D01*
X800974Y779616D01*
X800960Y779617D01*
X800947Y779621D01*
X800759Y779633D01*
X800572Y779649D01*
X800559Y779647D01*
X800546Y779648D01*
X800358Y779624D01*
X800173Y779602D01*
X800160Y779598D01*
X800147Y779596D01*
X799831Y779494D01*
X796839Y778255D01*
X777961Y778255D01*
X774600Y779647D01*
X772027Y782220D01*
X770635Y785581D01*
X770635Y789219D01*
X772027Y792580D01*
X774600Y795153D01*
X777961Y796545D01*
X796839Y796545D01*
X799831Y795306D01*
X799844Y795302D01*
X799855Y795295D01*
X800035Y795244D01*
X800216Y795189D01*
X800229Y795188D01*
X800242Y795184D01*
X800430Y795169D01*
X800617Y795151D01*
X800630Y795152D01*
X800644Y795151D01*
X800830Y795173D01*
X801017Y795193D01*
X801030Y795197D01*
X801043Y795198D01*
X801222Y795256D01*
X801402Y795312D01*
X801413Y795319D01*
X801426Y795323D01*
X801590Y795415D01*
X801755Y795506D01*
X801765Y795514D01*
X801777Y795521D01*
X801919Y795643D01*
X802063Y795765D01*
X802071Y795775D01*
X802082Y795784D01*
X802196Y795932D01*
X802314Y796080D01*
X802320Y796092D01*
X802328Y796102D01*
X802412Y796270D01*
X802498Y796438D01*
X802502Y796451D01*
X802508Y796463D01*
X802557Y796645D01*
X802608Y796825D01*
X802609Y796838D01*
X802612Y796851D01*
X802639Y797182D01*
X802639Y803018D01*
X802638Y803031D01*
X802639Y803045D01*
X802618Y803231D01*
X802599Y803418D01*
X802595Y803431D01*
X802594Y803445D01*
X802536Y803624D01*
X802481Y803803D01*
X802475Y803815D01*
X802471Y803828D01*
X802379Y803993D01*
X802289Y804157D01*
X802281Y804168D01*
X802274Y804179D01*
X802152Y804323D01*
X802032Y804467D01*
X802021Y804475D01*
X802013Y804485D01*
X801864Y804602D01*
X801718Y804719D01*
X801706Y804725D01*
X801696Y804733D01*
X801526Y804818D01*
X801361Y804905D01*
X801348Y804908D01*
X801336Y804914D01*
X801153Y804964D01*
X800974Y805016D01*
X800960Y805017D01*
X800947Y805021D01*
X800759Y805033D01*
X800572Y805049D01*
X800559Y805047D01*
X800546Y805048D01*
X800358Y805024D01*
X800173Y805002D01*
X800160Y804998D01*
X800147Y804996D01*
X799831Y804894D01*
X796839Y803655D01*
X777961Y803655D01*
X774600Y805047D01*
X772027Y807620D01*
X771874Y807989D01*
X771864Y808009D01*
X771857Y808030D01*
X771769Y808186D01*
X771684Y808344D01*
X771670Y808361D01*
X771659Y808381D01*
X771542Y808516D01*
X771428Y808655D01*
X771411Y808669D01*
X771396Y808686D01*
X771255Y808795D01*
X771115Y808908D01*
X771095Y808919D01*
X771078Y808932D01*
X770918Y809012D01*
X770759Y809095D01*
X770737Y809102D01*
X770717Y809112D01*
X770544Y809158D01*
X770372Y809208D01*
X770350Y809210D01*
X770329Y809216D01*
X769998Y809243D01*
X652490Y809243D01*
X652463Y809241D01*
X652436Y809243D01*
X652262Y809221D01*
X652089Y809203D01*
X652063Y809196D01*
X652037Y809192D01*
X651871Y809137D01*
X651704Y809085D01*
X651680Y809072D01*
X651655Y809064D01*
X651503Y808977D01*
X651350Y808893D01*
X651329Y808876D01*
X651306Y808863D01*
X651053Y808648D01*
X650706Y808301D01*
X650665Y808284D01*
X650664Y808284D01*
X648756Y807493D01*
X646644Y807493D01*
X644694Y808301D01*
X643201Y809794D01*
X642393Y811744D01*
X642393Y813856D01*
X643201Y815806D01*
X644694Y817299D01*
X646644Y818107D01*
X648756Y818107D01*
X650706Y817299D01*
X651053Y816952D01*
X651074Y816935D01*
X651091Y816914D01*
X651229Y816807D01*
X651365Y816697D01*
X651388Y816684D01*
X651409Y816668D01*
X651566Y816590D01*
X651720Y816508D01*
X651746Y816500D01*
X651770Y816488D01*
X651939Y816443D01*
X652106Y816393D01*
X652133Y816391D01*
X652159Y816384D01*
X652490Y816357D01*
X769998Y816357D01*
X770020Y816359D01*
X770042Y816357D01*
X770220Y816379D01*
X770398Y816397D01*
X770420Y816403D01*
X770442Y816406D01*
X770612Y816462D01*
X770783Y816515D01*
X770803Y816525D01*
X770824Y816532D01*
X770980Y816621D01*
X771137Y816707D01*
X771155Y816721D01*
X771174Y816732D01*
X771309Y816850D01*
X771447Y816964D01*
X771461Y816982D01*
X771477Y816996D01*
X771587Y817139D01*
X771699Y817278D01*
X771709Y817298D01*
X771723Y817316D01*
X771874Y817611D01*
X772027Y817980D01*
X774600Y820553D01*
X775167Y820787D01*
X775167Y820788D01*
X777961Y821945D01*
X796839Y821945D01*
X799831Y820706D01*
X799844Y820702D01*
X799855Y820695D01*
X800035Y820644D01*
X800216Y820589D01*
X800229Y820588D01*
X800242Y820584D01*
X800430Y820569D01*
X800617Y820551D01*
X800630Y820552D01*
X800644Y820551D01*
X800830Y820573D01*
X801017Y820593D01*
X801030Y820597D01*
X801043Y820598D01*
X801222Y820656D01*
X801402Y820712D01*
X801413Y820719D01*
X801426Y820723D01*
X801590Y820815D01*
X801755Y820906D01*
X801765Y820914D01*
X801777Y820921D01*
X801919Y821043D01*
X802063Y821165D01*
X802071Y821175D01*
X802082Y821184D01*
X802196Y821332D01*
X802314Y821480D01*
X802320Y821492D01*
X802328Y821502D01*
X802412Y821670D01*
X802498Y821838D01*
X802502Y821851D01*
X802508Y821863D01*
X802557Y822045D01*
X802608Y822225D01*
X802609Y822238D01*
X802612Y822251D01*
X802639Y822582D01*
X802639Y828418D01*
X802638Y828431D01*
X802639Y828445D01*
X802618Y828630D01*
X802599Y828818D01*
X802595Y828831D01*
X802594Y828845D01*
X802536Y829024D01*
X802481Y829203D01*
X802475Y829215D01*
X802471Y829228D01*
X802379Y829393D01*
X802289Y829557D01*
X802281Y829568D01*
X802274Y829579D01*
X802152Y829723D01*
X802032Y829867D01*
X802021Y829875D01*
X802013Y829885D01*
X801864Y830002D01*
X801718Y830119D01*
X801706Y830125D01*
X801696Y830133D01*
X801526Y830218D01*
X801361Y830305D01*
X801348Y830308D01*
X801336Y830314D01*
X801153Y830364D01*
X800974Y830416D01*
X800960Y830417D01*
X800947Y830421D01*
X800759Y830433D01*
X800572Y830449D01*
X800559Y830447D01*
X800546Y830448D01*
X800358Y830424D01*
X800173Y830402D01*
X800160Y830398D01*
X800147Y830396D01*
X799831Y830294D01*
X796839Y829055D01*
X777961Y829055D01*
X774600Y830447D01*
X772027Y833020D01*
X771874Y833389D01*
X771864Y833409D01*
X771857Y833430D01*
X771769Y833586D01*
X771684Y833744D01*
X771670Y833761D01*
X771659Y833781D01*
X771542Y833917D01*
X771428Y834055D01*
X771411Y834069D01*
X771396Y834086D01*
X771255Y834195D01*
X771115Y834308D01*
X771095Y834319D01*
X771078Y834332D01*
X770918Y834412D01*
X770759Y834495D01*
X770737Y834502D01*
X770717Y834512D01*
X770544Y834558D01*
X770372Y834608D01*
X770350Y834610D01*
X770329Y834616D01*
X769998Y834643D01*
X677890Y834643D01*
X677863Y834641D01*
X677836Y834643D01*
X677662Y834621D01*
X677489Y834603D01*
X677463Y834596D01*
X677437Y834592D01*
X677271Y834537D01*
X677104Y834485D01*
X677080Y834472D01*
X677055Y834464D01*
X676903Y834377D01*
X676750Y834293D01*
X676729Y834276D01*
X676706Y834263D01*
X676453Y834048D01*
X676106Y833701D01*
X674156Y832893D01*
X672044Y832893D01*
X670094Y833701D01*
X668601Y835194D01*
X667793Y837144D01*
X667793Y839256D01*
X668601Y841206D01*
X670094Y842699D01*
X671872Y843435D01*
X671876Y843438D01*
X671880Y843439D01*
X672052Y843532D01*
X672227Y843626D01*
X672231Y843628D01*
X672234Y843631D01*
X672385Y843756D01*
X672537Y843882D01*
X672540Y843885D01*
X672544Y843888D01*
X672667Y844041D01*
X672791Y844195D01*
X672793Y844199D01*
X672796Y844202D01*
X672886Y844375D01*
X672978Y844551D01*
X672980Y844555D01*
X672982Y844559D01*
X673036Y844747D01*
X673091Y844938D01*
X673092Y844942D01*
X673093Y844946D01*
X673109Y845144D01*
X673126Y845339D01*
X673125Y845343D01*
X673126Y845348D01*
X673103Y845538D01*
X673081Y845739D01*
X673079Y845743D01*
X673079Y845747D01*
X673018Y845933D01*
X672958Y846122D01*
X672955Y846126D01*
X672954Y846130D01*
X672858Y846300D01*
X672761Y846474D01*
X672758Y846477D01*
X672756Y846481D01*
X672628Y846629D01*
X672499Y846779D01*
X672496Y846782D01*
X672493Y846786D01*
X672338Y846906D01*
X672182Y847028D01*
X672178Y847030D01*
X672175Y847032D01*
X671999Y847120D01*
X671823Y847208D01*
X671818Y847210D01*
X671814Y847212D01*
X671623Y847263D01*
X671434Y847315D01*
X671430Y847315D01*
X671426Y847316D01*
X671095Y847343D01*
X599215Y847343D01*
X599188Y847341D01*
X599161Y847343D01*
X598987Y847321D01*
X598814Y847303D01*
X598789Y847296D01*
X598762Y847292D01*
X598596Y847237D01*
X598429Y847185D01*
X598406Y847172D01*
X598380Y847164D01*
X598229Y847077D01*
X598075Y846993D01*
X598055Y846976D01*
X598031Y846963D01*
X597778Y846748D01*
X575652Y824622D01*
X575635Y824601D01*
X575614Y824583D01*
X575507Y824446D01*
X575397Y824310D01*
X575384Y824287D01*
X575368Y824265D01*
X575290Y824108D01*
X575208Y823954D01*
X575200Y823929D01*
X575188Y823905D01*
X575143Y823735D01*
X575093Y823569D01*
X575091Y823542D01*
X575084Y823516D01*
X575057Y823185D01*
X575057Y728695D01*
X575059Y728668D01*
X575057Y728642D01*
X575079Y728468D01*
X575097Y728294D01*
X575104Y728269D01*
X575108Y728242D01*
X575163Y728076D01*
X575215Y727909D01*
X575228Y727886D01*
X575236Y727860D01*
X575324Y727708D01*
X575407Y727555D01*
X575424Y727535D01*
X575437Y727512D01*
X575652Y727259D01*
X581407Y721503D01*
X581407Y713297D01*
X575603Y707493D01*
X567397Y707493D01*
X561593Y713297D01*
X561593Y721503D01*
X567348Y727259D01*
X567365Y727279D01*
X567386Y727297D01*
X567493Y727435D01*
X567603Y727570D01*
X567616Y727594D01*
X567632Y727615D01*
X567710Y727772D01*
X567792Y727926D01*
X567800Y727951D01*
X567812Y727975D01*
X567857Y728145D01*
X567907Y728312D01*
X567909Y728338D01*
X567916Y728364D01*
X567943Y728695D01*
X567943Y826973D01*
X595427Y854457D01*
X615044Y854457D01*
X615052Y854458D01*
X615061Y854457D01*
X615253Y854478D01*
X615444Y854497D01*
X615453Y854499D01*
X615462Y854500D01*
X615644Y854558D01*
X615829Y854615D01*
X615837Y854619D01*
X615846Y854622D01*
X616014Y854715D01*
X616183Y854807D01*
X616190Y854812D01*
X616198Y854817D01*
X616345Y854941D01*
X616492Y855064D01*
X616498Y855071D01*
X616505Y855077D01*
X616624Y855228D01*
X616745Y855378D01*
X616749Y855386D01*
X616754Y855393D01*
X616842Y855566D01*
X616930Y855735D01*
X616933Y855744D01*
X616937Y855752D01*
X616989Y855938D01*
X617042Y856122D01*
X617042Y856131D01*
X617045Y856140D01*
X617059Y856333D01*
X617075Y856524D01*
X617074Y856532D01*
X617074Y856541D01*
X617050Y856734D01*
X617028Y856923D01*
X617025Y856932D01*
X617024Y856941D01*
X616962Y857124D01*
X616903Y857306D01*
X616898Y857314D01*
X616896Y857322D01*
X616802Y857485D01*
X616705Y857657D01*
X616699Y857664D01*
X616695Y857671D01*
X616480Y857924D01*
X614171Y860233D01*
X614171Y866967D01*
X616480Y869276D01*
X616486Y869283D01*
X616492Y869288D01*
X616613Y869438D01*
X616735Y869587D01*
X616739Y869595D01*
X616745Y869602D01*
X616833Y869772D01*
X616924Y869943D01*
X616926Y869952D01*
X616930Y869959D01*
X616983Y870144D01*
X617038Y870329D01*
X617039Y870338D01*
X617042Y870346D01*
X617057Y870537D01*
X617075Y870730D01*
X617074Y870739D01*
X617075Y870748D01*
X617052Y870937D01*
X617031Y871130D01*
X617029Y871139D01*
X617028Y871147D01*
X616968Y871329D01*
X616910Y871514D01*
X616906Y871522D01*
X616903Y871530D01*
X616808Y871699D01*
X616715Y871866D01*
X616709Y871873D01*
X616705Y871881D01*
X616579Y872027D01*
X616455Y872173D01*
X616448Y872179D01*
X616442Y872186D01*
X616290Y872303D01*
X616139Y872423D01*
X616131Y872427D01*
X616124Y872432D01*
X615952Y872518D01*
X615780Y872605D01*
X615771Y872608D01*
X615763Y872612D01*
X615577Y872662D01*
X615392Y872713D01*
X615383Y872714D01*
X615374Y872716D01*
X615044Y872743D01*
X500090Y872743D01*
X500063Y872741D01*
X500036Y872743D01*
X499862Y872721D01*
X499689Y872703D01*
X499663Y872696D01*
X499637Y872692D01*
X499471Y872637D01*
X499304Y872585D01*
X499280Y872572D01*
X499255Y872564D01*
X499103Y872477D01*
X498950Y872393D01*
X498929Y872376D01*
X498906Y872363D01*
X498653Y872148D01*
X498306Y871801D01*
X496982Y871253D01*
X496356Y870993D01*
X494244Y870993D01*
X492294Y871801D01*
X490801Y873294D01*
X489993Y875244D01*
X489993Y877356D01*
X490801Y879306D01*
X492294Y880799D01*
X494244Y881607D01*
X496356Y881607D01*
X498306Y880799D01*
X498653Y880452D01*
X498674Y880435D01*
X498691Y880414D01*
X498829Y880307D01*
X498965Y880197D01*
X498988Y880184D01*
X499009Y880168D01*
X499166Y880090D01*
X499320Y880008D01*
X499346Y880000D01*
X499370Y879988D01*
X499539Y879943D01*
X499706Y879893D01*
X499733Y879891D01*
X499759Y879884D01*
X500090Y879857D01*
X696185Y879857D01*
X696212Y879859D01*
X696239Y879857D01*
X696413Y879879D01*
X696586Y879897D01*
X696611Y879904D01*
X696638Y879908D01*
X696804Y879963D01*
X696971Y880015D01*
X696994Y880028D01*
X697020Y880036D01*
X697171Y880123D01*
X697325Y880207D01*
X697345Y880224D01*
X697369Y880237D01*
X697622Y880452D01*
X735127Y917957D01*
X769998Y917957D01*
X770020Y917959D01*
X770042Y917957D01*
X770220Y917979D01*
X770398Y917997D01*
X770420Y918003D01*
X770442Y918006D01*
X770612Y918062D01*
X770783Y918115D01*
X770803Y918125D01*
X770824Y918132D01*
X770980Y918221D01*
X771137Y918307D01*
X771155Y918321D01*
X771174Y918332D01*
X771309Y918450D01*
X771447Y918564D01*
X771461Y918582D01*
X771477Y918596D01*
X771587Y918739D01*
X771699Y918878D01*
X771709Y918898D01*
X771723Y918916D01*
X771874Y919211D01*
X772027Y919580D01*
X774600Y922153D01*
X777961Y923545D01*
X796839Y923545D01*
X799831Y922306D01*
X799844Y922302D01*
X799855Y922296D01*
X800036Y922244D01*
X800216Y922189D01*
X800229Y922188D01*
X800242Y922184D01*
X800430Y922169D01*
X800617Y922151D01*
X800630Y922152D01*
X800644Y922151D01*
X800831Y922173D01*
X801017Y922193D01*
X801030Y922197D01*
X801043Y922198D01*
X801223Y922257D01*
X801402Y922312D01*
X801413Y922319D01*
X801426Y922323D01*
X801591Y922416D01*
X801755Y922506D01*
X801765Y922514D01*
X801777Y922521D01*
X801919Y922644D01*
X802063Y922765D01*
X802071Y922775D01*
X802082Y922784D01*
X802197Y922933D01*
X802314Y923080D01*
X802320Y923092D01*
X802328Y923102D01*
X802412Y923271D01*
X802498Y923438D01*
X802502Y923451D01*
X802508Y923463D01*
X802557Y923646D01*
X802608Y923825D01*
X802609Y923838D01*
X802612Y923851D01*
X802639Y924182D01*
X802639Y978408D01*
X802637Y978426D01*
X802639Y978444D01*
X802618Y978626D01*
X802599Y978809D01*
X802594Y978826D01*
X802592Y978843D01*
X802535Y979018D01*
X802481Y979194D01*
X802473Y979209D01*
X802467Y979226D01*
X802377Y979386D01*
X802289Y979548D01*
X802278Y979561D01*
X802269Y979577D01*
X802149Y979716D01*
X802032Y979857D01*
X802018Y979868D01*
X802006Y979882D01*
X801861Y979994D01*
X801718Y980109D01*
X801702Y980117D01*
X801688Y980128D01*
X801523Y980210D01*
X801361Y980295D01*
X801344Y980300D01*
X801328Y980308D01*
X801149Y980355D01*
X800974Y980406D01*
X800956Y980408D01*
X800939Y980412D01*
X800608Y980439D01*
X724536Y980439D01*
X724518Y980437D01*
X724500Y980439D01*
X724318Y980418D01*
X724135Y980399D01*
X724118Y980394D01*
X724101Y980392D01*
X723926Y980335D01*
X723750Y980281D01*
X723735Y980273D01*
X723718Y980267D01*
X723558Y980177D01*
X723396Y980089D01*
X723383Y980078D01*
X723367Y980069D01*
X723228Y979949D01*
X723087Y979832D01*
X723076Y979818D01*
X723062Y979806D01*
X722950Y979661D01*
X722835Y979518D01*
X722827Y979502D01*
X722816Y979488D01*
X722734Y979323D01*
X722649Y979161D01*
X722644Y979144D01*
X722636Y979128D01*
X722589Y978949D01*
X722538Y978774D01*
X722536Y978756D01*
X722532Y978739D01*
X722505Y978408D01*
X722505Y948988D01*
X721612Y948095D01*
X689188Y948095D01*
X688295Y948988D01*
X688295Y978408D01*
X688293Y978426D01*
X688295Y978444D01*
X688274Y978626D01*
X688255Y978809D01*
X688250Y978826D01*
X688248Y978843D01*
X688191Y979018D01*
X688137Y979194D01*
X688129Y979209D01*
X688123Y979226D01*
X688033Y979386D01*
X687945Y979548D01*
X687934Y979561D01*
X687925Y979577D01*
X687805Y979716D01*
X687688Y979857D01*
X687674Y979868D01*
X687662Y979882D01*
X687517Y979994D01*
X687374Y980109D01*
X687358Y980117D01*
X687344Y980128D01*
X687179Y980210D01*
X687017Y980295D01*
X687000Y980300D01*
X686984Y980308D01*
X686805Y980355D01*
X686630Y980406D01*
X686612Y980408D01*
X686595Y980412D01*
X686264Y980439D01*
X634536Y980439D01*
X634518Y980437D01*
X634500Y980439D01*
X634318Y980418D01*
X634135Y980399D01*
X634118Y980394D01*
X634101Y980392D01*
X633926Y980335D01*
X633750Y980281D01*
X633735Y980273D01*
X633718Y980267D01*
X633558Y980177D01*
X633396Y980089D01*
X633383Y980078D01*
X633367Y980069D01*
X633228Y979949D01*
X633087Y979832D01*
X633076Y979818D01*
X633062Y979806D01*
X632950Y979661D01*
X632835Y979518D01*
X632827Y979502D01*
X632816Y979488D01*
X632734Y979323D01*
X632649Y979161D01*
X632644Y979144D01*
X632636Y979128D01*
X632589Y978949D01*
X632538Y978774D01*
X632536Y978756D01*
X632532Y978739D01*
X632505Y978408D01*
X632505Y948988D01*
X631612Y948095D01*
X599188Y948095D01*
X598295Y948988D01*
X598295Y978408D01*
X598293Y978426D01*
X598295Y978444D01*
X598274Y978626D01*
X598255Y978809D01*
X598250Y978826D01*
X598248Y978843D01*
X598191Y979018D01*
X598137Y979194D01*
X598129Y979209D01*
X598123Y979226D01*
X598033Y979386D01*
X597945Y979548D01*
X597934Y979561D01*
X597925Y979577D01*
X597805Y979716D01*
X597688Y979857D01*
X597674Y979868D01*
X597662Y979882D01*
X597517Y979994D01*
X597374Y980109D01*
X597358Y980117D01*
X597344Y980128D01*
X597179Y980210D01*
X597017Y980295D01*
X597000Y980300D01*
X596984Y980308D01*
X596805Y980355D01*
X596630Y980406D01*
X596612Y980408D01*
X596595Y980412D01*
X596264Y980439D01*
X419736Y980439D01*
X419718Y980437D01*
X419700Y980439D01*
X419518Y980418D01*
X419335Y980399D01*
X419318Y980394D01*
X419301Y980392D01*
X419126Y980335D01*
X418950Y980281D01*
X418935Y980273D01*
X418918Y980267D01*
X418758Y980177D01*
X418596Y980089D01*
X418583Y980078D01*
X418567Y980069D01*
X418428Y979949D01*
X418287Y979832D01*
X418276Y979818D01*
X418262Y979806D01*
X418150Y979661D01*
X418035Y979518D01*
X418027Y979502D01*
X418016Y979488D01*
X417934Y979323D01*
X417849Y979161D01*
X417844Y979144D01*
X417836Y979128D01*
X417789Y978949D01*
X417738Y978774D01*
X417736Y978756D01*
X417732Y978739D01*
X417705Y978408D01*
X417705Y948988D01*
X416812Y948095D01*
X384388Y948095D01*
X383495Y948988D01*
X383495Y978408D01*
X383493Y978426D01*
X383495Y978444D01*
X383474Y978626D01*
X383455Y978809D01*
X383450Y978826D01*
X383448Y978843D01*
X383391Y979018D01*
X383337Y979194D01*
X383329Y979209D01*
X383323Y979226D01*
X383233Y979386D01*
X383145Y979548D01*
X383134Y979561D01*
X383125Y979577D01*
X383005Y979716D01*
X382888Y979857D01*
X382874Y979868D01*
X382862Y979882D01*
X382717Y979994D01*
X382574Y980109D01*
X382558Y980117D01*
X382544Y980128D01*
X382379Y980210D01*
X382217Y980295D01*
X382200Y980300D01*
X382184Y980308D01*
X382005Y980355D01*
X381830Y980406D01*
X381812Y980408D01*
X381795Y980412D01*
X381464Y980439D01*
X329736Y980439D01*
X329718Y980437D01*
X329700Y980439D01*
X329518Y980418D01*
X329335Y980399D01*
X329318Y980394D01*
X329301Y980392D01*
X329126Y980335D01*
X328950Y980281D01*
X328935Y980273D01*
X328918Y980267D01*
X328758Y980177D01*
X328596Y980089D01*
X328583Y980078D01*
X328567Y980069D01*
X328428Y979949D01*
X328287Y979832D01*
X328276Y979818D01*
X328262Y979806D01*
X328150Y979661D01*
X328035Y979518D01*
X328027Y979502D01*
X328016Y979488D01*
X327934Y979323D01*
X327849Y979161D01*
X327844Y979144D01*
X327836Y979128D01*
X327789Y978949D01*
X327738Y978774D01*
X327736Y978756D01*
X327732Y978739D01*
X327705Y978408D01*
X327705Y948988D01*
X326812Y948095D01*
X294388Y948095D01*
X293495Y948988D01*
X293495Y978408D01*
X293493Y978426D01*
X293495Y978444D01*
X293474Y978626D01*
X293455Y978809D01*
X293450Y978826D01*
X293448Y978843D01*
X293391Y979018D01*
X293337Y979194D01*
X293329Y979209D01*
X293323Y979226D01*
X293233Y979386D01*
X293145Y979548D01*
X293134Y979561D01*
X293125Y979577D01*
X293005Y979716D01*
X292888Y979857D01*
X292874Y979868D01*
X292862Y979882D01*
X292717Y979994D01*
X292574Y980109D01*
X292558Y980117D01*
X292544Y980128D01*
X292379Y980210D01*
X292217Y980295D01*
X292200Y980300D01*
X292184Y980308D01*
X292005Y980355D01*
X291830Y980406D01*
X291812Y980408D01*
X291795Y980412D01*
X291464Y980439D01*
X165736Y980439D01*
X165718Y980437D01*
X165700Y980439D01*
X165518Y980418D01*
X165335Y980399D01*
X165318Y980394D01*
X165301Y980392D01*
X165126Y980335D01*
X164950Y980281D01*
X164935Y980273D01*
X164918Y980267D01*
X164758Y980177D01*
X164596Y980089D01*
X164583Y980078D01*
X164567Y980069D01*
X164428Y979949D01*
X164287Y979832D01*
X164276Y979818D01*
X164262Y979806D01*
X164150Y979661D01*
X164035Y979518D01*
X164027Y979502D01*
X164016Y979488D01*
X163934Y979323D01*
X163849Y979161D01*
X163844Y979144D01*
X163836Y979128D01*
X163789Y978949D01*
X163738Y978774D01*
X163736Y978756D01*
X163732Y978739D01*
X163705Y978408D01*
X163705Y948988D01*
X162812Y948095D01*
X130388Y948095D01*
X129495Y948988D01*
X129495Y978408D01*
X129493Y978426D01*
X129495Y978444D01*
X129474Y978626D01*
X129455Y978809D01*
X129450Y978826D01*
X129448Y978843D01*
X129391Y979018D01*
X129337Y979194D01*
X129329Y979209D01*
X129323Y979226D01*
X129233Y979386D01*
X129145Y979548D01*
X129134Y979561D01*
X129125Y979577D01*
X129005Y979716D01*
X128888Y979857D01*
X128874Y979868D01*
X128862Y979882D01*
X128717Y979994D01*
X128574Y980109D01*
X128558Y980117D01*
X128544Y980128D01*
X128379Y980210D01*
X128217Y980295D01*
X128200Y980300D01*
X128184Y980308D01*
X128005Y980355D01*
X127830Y980406D01*
X127812Y980408D01*
X127795Y980412D01*
X127464Y980439D01*
X75736Y980439D01*
X75718Y980437D01*
X75700Y980439D01*
X75518Y980418D01*
X75335Y980399D01*
X75318Y980394D01*
X75301Y980392D01*
X75126Y980335D01*
X74950Y980281D01*
X74935Y980273D01*
X74918Y980267D01*
X74758Y980177D01*
X74596Y980089D01*
X74583Y980078D01*
X74567Y980069D01*
X74428Y979949D01*
X74287Y979832D01*
X74276Y979818D01*
X74262Y979806D01*
X74150Y979661D01*
X74035Y979518D01*
X74027Y979502D01*
X74016Y979488D01*
X73934Y979323D01*
X73849Y979161D01*
X73844Y979144D01*
X73836Y979128D01*
X73789Y978949D01*
X73738Y978774D01*
X73736Y978756D01*
X73732Y978739D01*
X73705Y978408D01*
X73705Y948988D01*
X72812Y948095D01*
X40388Y948095D01*
X39495Y948988D01*
X39495Y978408D01*
X39493Y978426D01*
X39495Y978444D01*
X39474Y978626D01*
X39455Y978809D01*
X39450Y978826D01*
X39448Y978843D01*
X39391Y979018D01*
X39337Y979194D01*
X39329Y979209D01*
X39323Y979226D01*
X39233Y979386D01*
X39145Y979548D01*
X39134Y979561D01*
X39125Y979577D01*
X39005Y979716D01*
X38888Y979857D01*
X38874Y979868D01*
X38862Y979882D01*
X38717Y979994D01*
X38574Y980109D01*
X38558Y980117D01*
X38544Y980128D01*
X38379Y980210D01*
X38217Y980295D01*
X38200Y980300D01*
X38184Y980308D01*
X38005Y980355D01*
X37830Y980406D01*
X37812Y980408D01*
X37795Y980412D01*
X37464Y980439D01*
X12192Y980439D01*
X12174Y980437D01*
X12156Y980439D01*
X11974Y980418D01*
X11791Y980399D01*
X11774Y980394D01*
X11757Y980392D01*
X11582Y980335D01*
X11406Y980281D01*
X11391Y980273D01*
X11374Y980267D01*
X11214Y980177D01*
X11052Y980089D01*
X11039Y980078D01*
X11023Y980069D01*
X10884Y979949D01*
X10743Y979832D01*
X10732Y979818D01*
X10718Y979806D01*
X10606Y979661D01*
X10491Y979518D01*
X10483Y979502D01*
X10472Y979488D01*
X10390Y979323D01*
X10305Y979161D01*
X10300Y979144D01*
X10292Y979128D01*
X10245Y978949D01*
X10194Y978774D01*
X10192Y978756D01*
X10188Y978739D01*
X10161Y978408D01*
X10161Y937936D01*
X10170Y937843D01*
X10169Y937750D01*
X10190Y937643D01*
X10201Y937535D01*
X10228Y937446D01*
X10246Y937355D01*
X10287Y937254D01*
X10319Y937151D01*
X10363Y937069D01*
X10399Y936982D01*
X10459Y936892D01*
X10511Y936797D01*
X10570Y936725D01*
X10622Y936647D01*
X10699Y936571D01*
X10768Y936487D01*
X10841Y936429D01*
X10907Y936363D01*
X10997Y936303D01*
X11082Y936235D01*
X11165Y936192D01*
X11242Y936140D01*
X11343Y936099D01*
X11439Y936049D01*
X11529Y936024D01*
X11615Y935988D01*
X11722Y935968D01*
X11826Y935938D01*
X11919Y935930D01*
X12011Y935913D01*
X12119Y935914D01*
X12228Y935905D01*
X12320Y935916D01*
X12413Y935917D01*
X12520Y935939D01*
X12627Y935952D01*
X12716Y935981D01*
X12807Y936000D01*
X12931Y936051D01*
X13010Y936077D01*
X13053Y936101D01*
X13114Y936126D01*
X13880Y936516D01*
X15401Y937011D01*
X16980Y937261D01*
X22861Y937261D01*
X22861Y927608D01*
X22862Y927590D01*
X22861Y927573D01*
X22882Y927390D01*
X22901Y927208D01*
X22906Y927191D01*
X22908Y927173D01*
X22933Y927095D01*
X22894Y926958D01*
X22892Y926940D01*
X22888Y926923D01*
X22861Y926592D01*
X22861Y916939D01*
X16980Y916939D01*
X15401Y917189D01*
X13880Y917684D01*
X13114Y918074D01*
X13027Y918108D01*
X12945Y918151D01*
X12840Y918181D01*
X12739Y918220D01*
X12647Y918236D01*
X12558Y918262D01*
X12449Y918271D01*
X12343Y918290D01*
X12249Y918287D01*
X12156Y918295D01*
X12049Y918282D01*
X11940Y918279D01*
X11849Y918259D01*
X11757Y918248D01*
X11653Y918214D01*
X11547Y918190D01*
X11462Y918152D01*
X11374Y918123D01*
X11279Y918070D01*
X11180Y918025D01*
X11104Y917971D01*
X11023Y917925D01*
X10941Y917854D01*
X10853Y917791D01*
X10789Y917723D01*
X10718Y917662D01*
X10652Y917576D01*
X10578Y917497D01*
X10529Y917417D01*
X10472Y917344D01*
X10423Y917247D01*
X10366Y917154D01*
X10334Y917067D01*
X10292Y916983D01*
X10264Y916878D01*
X10227Y916777D01*
X10212Y916685D01*
X10188Y916595D01*
X10177Y916461D01*
X10164Y916379D01*
X10166Y916329D01*
X10161Y916264D01*
X10161Y911482D01*
X10162Y911469D01*
X10161Y911456D01*
X10182Y911269D01*
X10201Y911082D01*
X10205Y911069D01*
X10206Y911055D01*
X10264Y910877D01*
X10319Y910697D01*
X10325Y910685D01*
X10329Y910672D01*
X10421Y910508D01*
X10511Y910343D01*
X10519Y910332D01*
X10526Y910321D01*
X10648Y910177D01*
X10768Y910033D01*
X10779Y910025D01*
X10787Y910015D01*
X10936Y909899D01*
X11082Y909781D01*
X11094Y909775D01*
X11104Y909767D01*
X11273Y909682D01*
X11439Y909596D01*
X11452Y909592D01*
X11464Y909586D01*
X11646Y909536D01*
X11826Y909484D01*
X11840Y909483D01*
X11853Y909479D01*
X12041Y909467D01*
X12228Y909451D01*
X12241Y909453D01*
X12254Y909452D01*
X12442Y909476D01*
X12627Y909498D01*
X12640Y909502D01*
X12653Y909504D01*
X12969Y909606D01*
X15961Y910845D01*
X34839Y910845D01*
X38200Y909453D01*
X40773Y906880D01*
X42165Y903519D01*
X42165Y899881D01*
X40773Y896520D01*
X38200Y893947D01*
X37353Y893596D01*
X34839Y892555D01*
X15961Y892555D01*
X12969Y893794D01*
X12956Y893798D01*
X12945Y893804D01*
X12764Y893856D01*
X12584Y893911D01*
X12571Y893912D01*
X12558Y893916D01*
X12370Y893931D01*
X12183Y893949D01*
X12170Y893948D01*
X12156Y893949D01*
X11969Y893927D01*
X11783Y893907D01*
X11770Y893903D01*
X11757Y893902D01*
X11577Y893843D01*
X11398Y893788D01*
X11387Y893781D01*
X11374Y893777D01*
X11209Y893684D01*
X11045Y893594D01*
X11035Y893586D01*
X11023Y893579D01*
X10881Y893456D01*
X10737Y893335D01*
X10729Y893325D01*
X10718Y893316D01*
X10603Y893167D01*
X10486Y893020D01*
X10480Y893008D01*
X10472Y892998D01*
X10388Y892829D01*
X10302Y892662D01*
X10298Y892649D01*
X10292Y892637D01*
X10243Y892454D01*
X10192Y892275D01*
X10191Y892262D01*
X10188Y892249D01*
X10161Y891918D01*
X10161Y886082D01*
X10162Y886069D01*
X10161Y886056D01*
X10182Y885869D01*
X10201Y885682D01*
X10205Y885669D01*
X10206Y885655D01*
X10264Y885477D01*
X10319Y885297D01*
X10325Y885285D01*
X10329Y885272D01*
X10421Y885108D01*
X10511Y884943D01*
X10519Y884932D01*
X10526Y884921D01*
X10648Y884777D01*
X10768Y884633D01*
X10779Y884625D01*
X10787Y884615D01*
X10936Y884499D01*
X11082Y884381D01*
X11094Y884375D01*
X11104Y884367D01*
X11273Y884282D01*
X11439Y884196D01*
X11452Y884192D01*
X11464Y884186D01*
X11646Y884136D01*
X11826Y884084D01*
X11840Y884083D01*
X11853Y884079D01*
X12041Y884067D01*
X12228Y884051D01*
X12241Y884053D01*
X12254Y884052D01*
X12442Y884076D01*
X12627Y884098D01*
X12640Y884102D01*
X12653Y884104D01*
X12969Y884206D01*
X15961Y885445D01*
X34839Y885445D01*
X38200Y884053D01*
X40773Y881480D01*
X42165Y878119D01*
X42165Y874481D01*
X40773Y871120D01*
X38200Y868547D01*
X34923Y867190D01*
X34839Y867155D01*
X15961Y867155D01*
X12969Y868394D01*
X12956Y868398D01*
X12945Y868404D01*
X12764Y868456D01*
X12584Y868511D01*
X12571Y868512D01*
X12558Y868516D01*
X12370Y868531D01*
X12183Y868549D01*
X12170Y868548D01*
X12156Y868549D01*
X11969Y868527D01*
X11783Y868507D01*
X11770Y868503D01*
X11757Y868502D01*
X11577Y868443D01*
X11398Y868388D01*
X11387Y868381D01*
X11374Y868377D01*
X11209Y868284D01*
X11045Y868194D01*
X11035Y868186D01*
X11023Y868179D01*
X10881Y868056D01*
X10737Y867935D01*
X10729Y867925D01*
X10718Y867916D01*
X10603Y867767D01*
X10486Y867620D01*
X10480Y867608D01*
X10472Y867598D01*
X10388Y867429D01*
X10302Y867262D01*
X10298Y867249D01*
X10292Y867237D01*
X10243Y867054D01*
X10192Y866875D01*
X10191Y866862D01*
X10188Y866849D01*
X10161Y866518D01*
X10161Y860682D01*
X10162Y860669D01*
X10161Y860655D01*
X10182Y860469D01*
X10201Y860282D01*
X10205Y860269D01*
X10206Y860255D01*
X10264Y860076D01*
X10319Y859897D01*
X10325Y859885D01*
X10329Y859872D01*
X10421Y859707D01*
X10511Y859543D01*
X10519Y859532D01*
X10526Y859521D01*
X10648Y859377D01*
X10768Y859233D01*
X10779Y859225D01*
X10787Y859215D01*
X10936Y859098D01*
X11082Y858981D01*
X11094Y858975D01*
X11104Y858967D01*
X11274Y858882D01*
X11439Y858795D01*
X11452Y858792D01*
X11464Y858786D01*
X11647Y858736D01*
X11826Y858684D01*
X11840Y858683D01*
X11853Y858679D01*
X12041Y858667D01*
X12228Y858651D01*
X12241Y858653D01*
X12254Y858652D01*
X12442Y858676D01*
X12627Y858698D01*
X12640Y858702D01*
X12653Y858704D01*
X12969Y858806D01*
X15961Y860045D01*
X34839Y860045D01*
X38200Y858653D01*
X40773Y856080D01*
X42165Y852719D01*
X42165Y849081D01*
X40773Y845720D01*
X38200Y843147D01*
X34839Y841755D01*
X15961Y841755D01*
X12969Y842994D01*
X12956Y842998D01*
X12945Y843005D01*
X12765Y843056D01*
X12584Y843111D01*
X12571Y843112D01*
X12558Y843116D01*
X12370Y843131D01*
X12183Y843149D01*
X12170Y843148D01*
X12156Y843149D01*
X11970Y843127D01*
X11783Y843107D01*
X11770Y843103D01*
X11757Y843102D01*
X11578Y843044D01*
X11398Y842988D01*
X11387Y842981D01*
X11374Y842977D01*
X11210Y842885D01*
X11045Y842794D01*
X11035Y842786D01*
X11023Y842779D01*
X10881Y842657D01*
X10737Y842535D01*
X10729Y842525D01*
X10718Y842516D01*
X10604Y842368D01*
X10486Y842220D01*
X10480Y842208D01*
X10472Y842198D01*
X10388Y842030D01*
X10302Y841862D01*
X10298Y841849D01*
X10292Y841837D01*
X10243Y841655D01*
X10192Y841475D01*
X10191Y841462D01*
X10188Y841449D01*
X10161Y841118D01*
X10161Y835282D01*
X10162Y835269D01*
X10161Y835255D01*
X10182Y835069D01*
X10201Y834882D01*
X10205Y834869D01*
X10206Y834855D01*
X10264Y834676D01*
X10319Y834497D01*
X10325Y834485D01*
X10329Y834472D01*
X10421Y834307D01*
X10511Y834143D01*
X10519Y834132D01*
X10526Y834121D01*
X10648Y833977D01*
X10768Y833833D01*
X10779Y833825D01*
X10787Y833815D01*
X10936Y833698D01*
X11082Y833581D01*
X11094Y833575D01*
X11104Y833567D01*
X11274Y833482D01*
X11439Y833395D01*
X11452Y833392D01*
X11464Y833386D01*
X11647Y833336D01*
X11826Y833284D01*
X11840Y833283D01*
X11853Y833279D01*
X12041Y833267D01*
X12228Y833251D01*
X12241Y833253D01*
X12254Y833252D01*
X12442Y833276D01*
X12627Y833298D01*
X12640Y833302D01*
X12653Y833304D01*
X12969Y833406D01*
X15961Y834645D01*
X34839Y834645D01*
X38200Y833253D01*
X40773Y830680D01*
X42165Y827319D01*
X42165Y823681D01*
X40773Y820320D01*
X38200Y817747D01*
X34839Y816355D01*
X15961Y816355D01*
X12969Y817594D01*
X12956Y817598D01*
X12945Y817605D01*
X12765Y817656D01*
X12584Y817711D01*
X12571Y817712D01*
X12558Y817716D01*
X12370Y817731D01*
X12183Y817749D01*
X12170Y817748D01*
X12156Y817749D01*
X11970Y817727D01*
X11783Y817707D01*
X11770Y817703D01*
X11757Y817702D01*
X11578Y817644D01*
X11398Y817588D01*
X11387Y817581D01*
X11374Y817577D01*
X11210Y817485D01*
X11045Y817394D01*
X11035Y817386D01*
X11023Y817379D01*
X10881Y817257D01*
X10737Y817135D01*
X10729Y817125D01*
X10718Y817116D01*
X10604Y816968D01*
X10486Y816820D01*
X10480Y816808D01*
X10472Y816798D01*
X10388Y816630D01*
X10302Y816462D01*
X10298Y816449D01*
X10292Y816437D01*
X10243Y816255D01*
X10192Y816075D01*
X10191Y816062D01*
X10188Y816049D01*
X10161Y815718D01*
X10161Y809882D01*
X10162Y809869D01*
X10161Y809855D01*
X10182Y809669D01*
X10201Y809482D01*
X10205Y809469D01*
X10206Y809455D01*
X10264Y809276D01*
X10319Y809097D01*
X10325Y809085D01*
X10329Y809072D01*
X10421Y808907D01*
X10511Y808743D01*
X10519Y808732D01*
X10526Y808721D01*
X10648Y808577D01*
X10768Y808433D01*
X10779Y808425D01*
X10787Y808415D01*
X10936Y808298D01*
X11082Y808181D01*
X11094Y808175D01*
X11104Y808167D01*
X11274Y808082D01*
X11439Y807995D01*
X11452Y807992D01*
X11464Y807986D01*
X11647Y807936D01*
X11826Y807884D01*
X11840Y807883D01*
X11853Y807879D01*
X12041Y807867D01*
X12228Y807851D01*
X12241Y807853D01*
X12254Y807852D01*
X12442Y807876D01*
X12627Y807898D01*
X12640Y807902D01*
X12653Y807904D01*
X12969Y808006D01*
X15961Y809245D01*
X34839Y809245D01*
X38200Y807853D01*
X40773Y805280D01*
X40926Y804911D01*
X40936Y804891D01*
X40943Y804870D01*
X41031Y804714D01*
X41116Y804556D01*
X41130Y804539D01*
X41141Y804519D01*
X41258Y804383D01*
X41372Y804245D01*
X41389Y804231D01*
X41404Y804214D01*
X41545Y804105D01*
X41685Y803992D01*
X41705Y803981D01*
X41722Y803968D01*
X41882Y803888D01*
X42041Y803805D01*
X42063Y803798D01*
X42083Y803788D01*
X42256Y803742D01*
X42428Y803692D01*
X42450Y803690D01*
X42471Y803684D01*
X42802Y803657D01*
X64973Y803657D01*
X117857Y750773D01*
X117857Y700815D01*
X117859Y700788D01*
X117857Y700761D01*
X117879Y700587D01*
X117897Y700414D01*
X117904Y700389D01*
X117908Y700362D01*
X117963Y700196D01*
X118015Y700029D01*
X118028Y700006D01*
X118036Y699980D01*
X118123Y699829D01*
X118207Y699675D01*
X118224Y699655D01*
X118237Y699631D01*
X118452Y699378D01*
X130557Y687273D01*
X130557Y677495D01*
X130559Y677468D01*
X130557Y677442D01*
X130579Y677268D01*
X130597Y677094D01*
X130604Y677069D01*
X130608Y677042D01*
X130664Y676876D01*
X130715Y676709D01*
X130728Y676686D01*
X130736Y676660D01*
X130823Y676509D01*
X130907Y676355D01*
X130924Y676335D01*
X130937Y676312D01*
X131152Y676059D01*
X136507Y670703D01*
X136507Y662497D01*
X130703Y656693D01*
X122497Y656693D01*
X116693Y662497D01*
X116693Y670703D01*
X122848Y676859D01*
X122865Y676879D01*
X122886Y676897D01*
X122993Y677035D01*
X123103Y677170D01*
X123116Y677194D01*
X123132Y677215D01*
X123210Y677371D01*
X123292Y677526D01*
X123300Y677551D01*
X123312Y677575D01*
X123357Y677745D01*
X123407Y677912D01*
X123409Y677938D01*
X123416Y677964D01*
X123443Y678295D01*
X123443Y683485D01*
X123441Y683512D01*
X123443Y683539D01*
X123421Y683713D01*
X123403Y683886D01*
X123396Y683911D01*
X123392Y683938D01*
X123337Y684104D01*
X123285Y684271D01*
X123272Y684294D01*
X123264Y684320D01*
X123177Y684471D01*
X123093Y684625D01*
X123076Y684645D01*
X123063Y684669D01*
X122848Y684922D01*
X110743Y697027D01*
X110743Y746985D01*
X110741Y747012D01*
X110743Y747039D01*
X110721Y747213D01*
X110703Y747386D01*
X110696Y747411D01*
X110692Y747438D01*
X110637Y747604D01*
X110585Y747771D01*
X110572Y747794D01*
X110564Y747820D01*
X110477Y747971D01*
X110393Y748125D01*
X110376Y748145D01*
X110363Y748169D01*
X110148Y748422D01*
X62622Y795948D01*
X62601Y795965D01*
X62583Y795986D01*
X62446Y796093D01*
X62310Y796203D01*
X62287Y796216D01*
X62265Y796232D01*
X62108Y796310D01*
X61954Y796392D01*
X61929Y796400D01*
X61905Y796412D01*
X61735Y796457D01*
X61569Y796507D01*
X61542Y796509D01*
X61516Y796516D01*
X61185Y796543D01*
X42802Y796543D01*
X42780Y796541D01*
X42758Y796543D01*
X42580Y796521D01*
X42402Y796503D01*
X42380Y796497D01*
X42358Y796494D01*
X42188Y796438D01*
X42017Y796385D01*
X41997Y796375D01*
X41976Y796368D01*
X41820Y796279D01*
X41663Y796193D01*
X41645Y796179D01*
X41626Y796168D01*
X41491Y796050D01*
X41353Y795936D01*
X41339Y795918D01*
X41323Y795904D01*
X41213Y795761D01*
X41101Y795622D01*
X41091Y795602D01*
X41077Y795584D01*
X40926Y795289D01*
X40773Y794920D01*
X38200Y792347D01*
X34839Y790955D01*
X15961Y790955D01*
X12969Y792194D01*
X12956Y792198D01*
X12945Y792205D01*
X12765Y792256D01*
X12584Y792311D01*
X12571Y792312D01*
X12558Y792316D01*
X12370Y792331D01*
X12183Y792349D01*
X12170Y792348D01*
X12156Y792349D01*
X11970Y792327D01*
X11783Y792307D01*
X11770Y792303D01*
X11757Y792302D01*
X11578Y792244D01*
X11398Y792188D01*
X11387Y792181D01*
X11374Y792177D01*
X11210Y792085D01*
X11045Y791994D01*
X11035Y791986D01*
X11023Y791979D01*
X10881Y791857D01*
X10737Y791735D01*
X10729Y791725D01*
X10718Y791716D01*
X10604Y791568D01*
X10486Y791420D01*
X10480Y791408D01*
X10472Y791398D01*
X10388Y791230D01*
X10302Y791062D01*
X10298Y791049D01*
X10292Y791037D01*
X10243Y790855D01*
X10192Y790675D01*
X10191Y790662D01*
X10188Y790649D01*
X10161Y790318D01*
X10161Y784482D01*
X10162Y784469D01*
X10161Y784455D01*
X10182Y784269D01*
X10201Y784082D01*
X10205Y784069D01*
X10206Y784055D01*
X10264Y783876D01*
X10319Y783697D01*
X10325Y783685D01*
X10329Y783672D01*
X10421Y783507D01*
X10511Y783343D01*
X10519Y783332D01*
X10526Y783321D01*
X10648Y783177D01*
X10768Y783033D01*
X10779Y783025D01*
X10787Y783015D01*
X10936Y782898D01*
X11082Y782781D01*
X11094Y782775D01*
X11104Y782767D01*
X11274Y782682D01*
X11439Y782595D01*
X11452Y782592D01*
X11464Y782586D01*
X11647Y782536D01*
X11826Y782484D01*
X11840Y782483D01*
X11853Y782479D01*
X12041Y782467D01*
X12228Y782451D01*
X12241Y782453D01*
X12254Y782452D01*
X12442Y782476D01*
X12627Y782498D01*
X12640Y782502D01*
X12653Y782504D01*
X12969Y782606D01*
X15961Y783845D01*
X34839Y783845D01*
X38200Y782453D01*
X40773Y779880D01*
X42165Y776519D01*
X42165Y772881D01*
X40773Y769520D01*
X38200Y766947D01*
X35014Y765628D01*
X34839Y765555D01*
X30988Y765555D01*
X30970Y765553D01*
X30952Y765555D01*
X30770Y765534D01*
X30587Y765515D01*
X30570Y765510D01*
X30553Y765508D01*
X30378Y765451D01*
X30202Y765397D01*
X30187Y765389D01*
X30170Y765383D01*
X30010Y765293D01*
X29848Y765205D01*
X29835Y765194D01*
X29819Y765185D01*
X29680Y765065D01*
X29539Y764948D01*
X29528Y764934D01*
X29514Y764922D01*
X29402Y764777D01*
X29287Y764634D01*
X29279Y764618D01*
X29268Y764604D01*
X29186Y764439D01*
X29101Y764277D01*
X29096Y764260D01*
X29088Y764244D01*
X29041Y764065D01*
X28990Y763890D01*
X28988Y763872D01*
X28984Y763855D01*
X28957Y763524D01*
X28957Y662715D01*
X28959Y662688D01*
X28957Y662661D01*
X28979Y662487D01*
X28997Y662314D01*
X29004Y662289D01*
X29008Y662262D01*
X29063Y662096D01*
X29115Y661929D01*
X29128Y661906D01*
X29136Y661880D01*
X29223Y661729D01*
X29307Y661575D01*
X29324Y661555D01*
X29337Y661531D01*
X29552Y661278D01*
X92457Y598373D01*
X92457Y481127D01*
X42252Y430922D01*
X42235Y430901D01*
X42214Y430883D01*
X42107Y430746D01*
X41997Y430610D01*
X41984Y430587D01*
X41968Y430565D01*
X41890Y430408D01*
X41808Y430254D01*
X41800Y430229D01*
X41788Y430205D01*
X41743Y430035D01*
X41693Y429869D01*
X41691Y429842D01*
X41684Y429816D01*
X41657Y429485D01*
X41657Y269015D01*
X41659Y268988D01*
X41657Y268961D01*
X41679Y268787D01*
X41697Y268614D01*
X41704Y268589D01*
X41708Y268562D01*
X41763Y268396D01*
X41815Y268229D01*
X41828Y268206D01*
X41836Y268180D01*
X41923Y268029D01*
X42007Y267875D01*
X42024Y267855D01*
X42037Y267831D01*
X42252Y267578D01*
X77078Y232752D01*
X77099Y232735D01*
X77117Y232714D01*
X77254Y232607D01*
X77390Y232497D01*
X77413Y232484D01*
X77435Y232468D01*
X77592Y232390D01*
X77746Y232308D01*
X77771Y232300D01*
X77795Y232288D01*
X77965Y232243D01*
X78131Y232193D01*
X78158Y232191D01*
X78184Y232184D01*
X78515Y232157D01*
X166573Y232157D01*
X181357Y217373D01*
X181357Y193086D01*
X181359Y193064D01*
X181357Y193042D01*
X181379Y192865D01*
X181397Y192686D01*
X181403Y192665D01*
X181406Y192642D01*
X181462Y192473D01*
X181515Y192301D01*
X181525Y192281D01*
X181532Y192260D01*
X181621Y192105D01*
X181707Y191947D01*
X181721Y191930D01*
X181732Y191910D01*
X181850Y191775D01*
X181964Y191638D01*
X181982Y191624D01*
X181996Y191607D01*
X182138Y191498D01*
X182278Y191385D01*
X182298Y191375D01*
X182316Y191361D01*
X182362Y191337D01*
X184691Y189009D01*
X185929Y186021D01*
X185929Y169579D01*
X184691Y166591D01*
X182405Y164305D01*
X179417Y163067D01*
X176183Y163067D01*
X173195Y164305D01*
X170909Y166591D01*
X169671Y169579D01*
X169671Y186021D01*
X170909Y189009D01*
X173249Y191349D01*
X173344Y191400D01*
X173361Y191414D01*
X173381Y191425D01*
X173516Y191542D01*
X173655Y191656D01*
X173669Y191674D01*
X173686Y191688D01*
X173795Y191830D01*
X173908Y191969D01*
X173919Y191989D01*
X173932Y192006D01*
X174012Y192167D01*
X174095Y192326D01*
X174102Y192347D01*
X174112Y192367D01*
X174158Y192541D01*
X174208Y192712D01*
X174210Y192734D01*
X174216Y192756D01*
X174243Y193086D01*
X174243Y213585D01*
X174241Y213612D01*
X174243Y213639D01*
X174221Y213813D01*
X174203Y213986D01*
X174196Y214011D01*
X174192Y214038D01*
X174137Y214204D01*
X174085Y214371D01*
X174072Y214394D01*
X174064Y214420D01*
X173977Y214571D01*
X173893Y214725D01*
X173876Y214745D01*
X173863Y214769D01*
X173648Y215022D01*
X164222Y224448D01*
X164201Y224465D01*
X164183Y224486D01*
X164046Y224593D01*
X163910Y224703D01*
X163887Y224716D01*
X163865Y224732D01*
X163708Y224810D01*
X163554Y224892D01*
X163529Y224900D01*
X163505Y224912D01*
X163335Y224957D01*
X163169Y225007D01*
X163142Y225009D01*
X163116Y225016D01*
X162785Y225043D01*
X74727Y225043D01*
X34543Y265227D01*
X34543Y433273D01*
X84748Y483478D01*
X84765Y483499D01*
X84786Y483517D01*
X84893Y483654D01*
X85003Y483790D01*
X85016Y483813D01*
X85032Y483835D01*
X85110Y483992D01*
X85192Y484146D01*
X85200Y484171D01*
X85212Y484195D01*
X85257Y484365D01*
X85307Y484531D01*
X85309Y484558D01*
X85316Y484584D01*
X85343Y484915D01*
X85343Y594585D01*
X85341Y594612D01*
X85343Y594639D01*
X85321Y594813D01*
X85303Y594986D01*
X85296Y595011D01*
X85292Y595038D01*
X85237Y595204D01*
X85185Y595371D01*
X85172Y595394D01*
X85164Y595420D01*
X85077Y595571D01*
X84993Y595725D01*
X84976Y595745D01*
X84963Y595769D01*
X84748Y596022D01*
X21843Y658927D01*
X21843Y763524D01*
X21841Y763542D01*
X21843Y763560D01*
X21822Y763742D01*
X21803Y763925D01*
X21798Y763942D01*
X21796Y763959D01*
X21739Y764134D01*
X21685Y764310D01*
X21677Y764325D01*
X21671Y764342D01*
X21581Y764502D01*
X21493Y764664D01*
X21482Y764677D01*
X21473Y764693D01*
X21353Y764832D01*
X21236Y764973D01*
X21222Y764984D01*
X21210Y764998D01*
X21065Y765110D01*
X20922Y765225D01*
X20906Y765233D01*
X20892Y765244D01*
X20727Y765326D01*
X20565Y765411D01*
X20548Y765416D01*
X20532Y765424D01*
X20353Y765471D01*
X20178Y765522D01*
X20160Y765524D01*
X20143Y765528D01*
X19812Y765555D01*
X15961Y765555D01*
X12969Y766794D01*
X12956Y766798D01*
X12945Y766805D01*
X12765Y766856D01*
X12584Y766911D01*
X12571Y766912D01*
X12558Y766916D01*
X12370Y766931D01*
X12183Y766949D01*
X12170Y766948D01*
X12156Y766949D01*
X11970Y766927D01*
X11783Y766907D01*
X11770Y766903D01*
X11757Y766902D01*
X11578Y766844D01*
X11398Y766788D01*
X11387Y766781D01*
X11374Y766777D01*
X11210Y766685D01*
X11045Y766594D01*
X11035Y766586D01*
X11023Y766579D01*
X10881Y766457D01*
X10737Y766335D01*
X10729Y766325D01*
X10718Y766316D01*
X10604Y766168D01*
X10486Y766020D01*
X10480Y766008D01*
X10472Y765998D01*
X10388Y765830D01*
X10302Y765662D01*
X10298Y765649D01*
X10292Y765637D01*
X10243Y765455D01*
X10192Y765275D01*
X10191Y765262D01*
X10188Y765249D01*
X10161Y764918D01*
X10161Y12192D01*
X10163Y12174D01*
X10161Y12156D01*
X10182Y11974D01*
X10201Y11791D01*
X10206Y11774D01*
X10208Y11757D01*
X10265Y11582D01*
X10319Y11406D01*
X10327Y11391D01*
X10333Y11374D01*
X10423Y11214D01*
X10511Y11052D01*
X10522Y11039D01*
X10531Y11023D01*
X10651Y10884D01*
X10768Y10743D01*
X10782Y10732D01*
X10794Y10718D01*
X10939Y10606D01*
X11082Y10491D01*
X11098Y10483D01*
X11112Y10472D01*
X11277Y10390D01*
X11439Y10305D01*
X11456Y10300D01*
X11472Y10292D01*
X11651Y10245D01*
X11826Y10194D01*
X11844Y10192D01*
X11861Y10188D01*
X12192Y10161D01*
X89794Y10161D01*
X89812Y10163D01*
G37*
%LPC*%
G36*
X784033Y271271D02*
X784033Y271271D01*
X779271Y276033D01*
X779271Y280221D01*
X779269Y280247D01*
X779271Y280274D01*
X779249Y280448D01*
X779231Y280621D01*
X779224Y280647D01*
X779220Y280673D01*
X779165Y280839D01*
X779113Y281006D01*
X779100Y281030D01*
X779092Y281055D01*
X779005Y281207D01*
X778921Y281360D01*
X778904Y281381D01*
X778891Y281404D01*
X778676Y281657D01*
X760701Y299632D01*
X760680Y299649D01*
X760663Y299670D01*
X760525Y299777D01*
X760389Y299887D01*
X760366Y299900D01*
X760345Y299916D01*
X760188Y299994D01*
X760034Y300076D01*
X760008Y300084D01*
X759984Y300096D01*
X759815Y300141D01*
X759648Y300191D01*
X759621Y300193D01*
X759595Y300200D01*
X759265Y300227D01*
X553864Y300227D01*
X553838Y300225D01*
X553811Y300227D01*
X553637Y300205D01*
X553464Y300187D01*
X553438Y300180D01*
X553412Y300176D01*
X553246Y300121D01*
X553079Y300069D01*
X553055Y300056D01*
X553030Y300048D01*
X552878Y299961D01*
X552725Y299877D01*
X552704Y299860D01*
X552681Y299847D01*
X552428Y299632D01*
X549467Y296671D01*
X542733Y296671D01*
X537971Y301433D01*
X537971Y305621D01*
X537969Y305647D01*
X537971Y305674D01*
X537949Y305848D01*
X537931Y306021D01*
X537924Y306047D01*
X537920Y306073D01*
X537865Y306239D01*
X537813Y306406D01*
X537800Y306430D01*
X537792Y306455D01*
X537705Y306607D01*
X537621Y306760D01*
X537604Y306781D01*
X537591Y306804D01*
X537376Y307057D01*
X532101Y312332D01*
X532080Y312349D01*
X532063Y312370D01*
X531925Y312477D01*
X531789Y312587D01*
X531766Y312600D01*
X531745Y312616D01*
X531588Y312694D01*
X531434Y312776D01*
X531408Y312784D01*
X531384Y312796D01*
X531215Y312841D01*
X531048Y312891D01*
X531021Y312893D01*
X530995Y312900D01*
X530665Y312927D01*
X514604Y312927D01*
X514586Y312925D01*
X514568Y312927D01*
X514386Y312906D01*
X514203Y312887D01*
X514186Y312882D01*
X514169Y312880D01*
X513994Y312823D01*
X513818Y312769D01*
X513803Y312761D01*
X513786Y312755D01*
X513626Y312665D01*
X513464Y312577D01*
X513451Y312566D01*
X513435Y312557D01*
X513296Y312437D01*
X513155Y312320D01*
X513144Y312306D01*
X513130Y312294D01*
X513017Y312148D01*
X512903Y312006D01*
X512895Y311990D01*
X512884Y311976D01*
X512802Y311811D01*
X512717Y311649D01*
X512712Y311632D01*
X512704Y311616D01*
X512657Y311437D01*
X512606Y311262D01*
X512604Y311244D01*
X512600Y311227D01*
X512573Y310896D01*
X512573Y305107D01*
X512575Y305080D01*
X512573Y305053D01*
X512595Y304879D01*
X512613Y304706D01*
X512620Y304681D01*
X512624Y304654D01*
X512680Y304488D01*
X512731Y304321D01*
X512744Y304298D01*
X512752Y304272D01*
X512839Y304121D01*
X512923Y303967D01*
X512940Y303947D01*
X512953Y303923D01*
X513168Y303670D01*
X514413Y302425D01*
X515565Y299645D01*
X515565Y284555D01*
X514413Y281775D01*
X512285Y279647D01*
X509505Y278495D01*
X506495Y278495D01*
X503715Y279647D01*
X501587Y281775D01*
X500435Y284555D01*
X500435Y299645D01*
X501587Y302425D01*
X502832Y303670D01*
X502849Y303691D01*
X502870Y303709D01*
X502977Y303847D01*
X503087Y303982D01*
X503100Y304006D01*
X503116Y304027D01*
X503194Y304183D01*
X503276Y304338D01*
X503284Y304363D01*
X503296Y304387D01*
X503341Y304556D01*
X503391Y304724D01*
X503393Y304750D01*
X503400Y304776D01*
X503427Y305107D01*
X503427Y310896D01*
X503425Y310914D01*
X503427Y310932D01*
X503406Y311114D01*
X503387Y311297D01*
X503382Y311314D01*
X503380Y311331D01*
X503323Y311506D01*
X503269Y311682D01*
X503261Y311697D01*
X503255Y311714D01*
X503165Y311874D01*
X503077Y312036D01*
X503066Y312049D01*
X503057Y312065D01*
X502937Y312204D01*
X502820Y312345D01*
X502806Y312356D01*
X502794Y312370D01*
X502649Y312482D01*
X502506Y312597D01*
X502490Y312605D01*
X502476Y312616D01*
X502311Y312698D01*
X502149Y312783D01*
X502132Y312788D01*
X502116Y312796D01*
X501937Y312843D01*
X501762Y312894D01*
X501744Y312896D01*
X501727Y312900D01*
X501396Y312927D01*
X421835Y312927D01*
X421809Y312925D01*
X421782Y312927D01*
X421608Y312905D01*
X421435Y312887D01*
X421409Y312880D01*
X421383Y312876D01*
X421217Y312821D01*
X421050Y312769D01*
X421026Y312756D01*
X421001Y312748D01*
X420849Y312661D01*
X420696Y312577D01*
X420675Y312560D01*
X420652Y312547D01*
X420399Y312332D01*
X408990Y300923D01*
X407310Y300227D01*
X299864Y300227D01*
X299838Y300225D01*
X299811Y300227D01*
X299637Y300205D01*
X299464Y300187D01*
X299438Y300180D01*
X299412Y300176D01*
X299246Y300121D01*
X299079Y300069D01*
X299055Y300056D01*
X299030Y300048D01*
X298878Y299961D01*
X298725Y299877D01*
X298704Y299860D01*
X298681Y299847D01*
X298428Y299632D01*
X295467Y296671D01*
X291279Y296671D01*
X291253Y296669D01*
X291226Y296671D01*
X291052Y296649D01*
X290879Y296631D01*
X290853Y296624D01*
X290827Y296620D01*
X290661Y296565D01*
X290494Y296513D01*
X290470Y296500D01*
X290445Y296492D01*
X290293Y296405D01*
X290140Y296321D01*
X290119Y296304D01*
X290096Y296291D01*
X289843Y296076D01*
X281990Y288223D01*
X280310Y287527D01*
X263596Y287527D01*
X263578Y287525D01*
X263560Y287527D01*
X263378Y287506D01*
X263195Y287487D01*
X263178Y287482D01*
X263161Y287480D01*
X262986Y287423D01*
X262810Y287369D01*
X262795Y287361D01*
X262778Y287355D01*
X262618Y287265D01*
X262456Y287177D01*
X262443Y287166D01*
X262427Y287157D01*
X262288Y287037D01*
X262147Y286920D01*
X262136Y286906D01*
X262122Y286894D01*
X262010Y286749D01*
X261895Y286606D01*
X261887Y286590D01*
X261876Y286576D01*
X261793Y286411D01*
X261709Y286249D01*
X261704Y286232D01*
X261696Y286216D01*
X261649Y286037D01*
X261598Y285862D01*
X261596Y285844D01*
X261592Y285827D01*
X261565Y285496D01*
X261565Y284555D01*
X260413Y281775D01*
X258285Y279647D01*
X255505Y278495D01*
X252495Y278495D01*
X249715Y279647D01*
X247587Y281775D01*
X246435Y284555D01*
X246435Y299645D01*
X247587Y302425D01*
X249715Y304553D01*
X250432Y304850D01*
X252495Y305705D01*
X255505Y305705D01*
X258285Y304553D01*
X260413Y302425D01*
X261565Y299645D01*
X261565Y298704D01*
X261567Y298686D01*
X261565Y298668D01*
X261586Y298486D01*
X261605Y298303D01*
X261610Y298286D01*
X261612Y298269D01*
X261669Y298094D01*
X261723Y297918D01*
X261731Y297903D01*
X261737Y297886D01*
X261827Y297726D01*
X261915Y297564D01*
X261926Y297551D01*
X261935Y297535D01*
X262055Y297396D01*
X262172Y297255D01*
X262186Y297244D01*
X262198Y297230D01*
X262343Y297118D01*
X262486Y297003D01*
X262502Y296995D01*
X262516Y296984D01*
X262681Y296902D01*
X262843Y296817D01*
X262860Y296812D01*
X262876Y296804D01*
X263055Y296757D01*
X263230Y296706D01*
X263248Y296704D01*
X263265Y296700D01*
X263596Y296673D01*
X276665Y296673D01*
X276691Y296675D01*
X276718Y296673D01*
X276892Y296695D01*
X277065Y296713D01*
X277091Y296720D01*
X277117Y296724D01*
X277283Y296779D01*
X277450Y296831D01*
X277474Y296844D01*
X277499Y296852D01*
X277651Y296939D01*
X277804Y297023D01*
X277825Y297040D01*
X277848Y297053D01*
X278101Y297268D01*
X283376Y302543D01*
X283393Y302564D01*
X283414Y302581D01*
X283521Y302719D01*
X283631Y302855D01*
X283644Y302878D01*
X283660Y302899D01*
X283738Y303056D01*
X283820Y303210D01*
X283828Y303236D01*
X283840Y303260D01*
X283885Y303429D01*
X283935Y303596D01*
X283937Y303623D01*
X283944Y303649D01*
X283971Y303979D01*
X283971Y308167D01*
X288733Y312929D01*
X295467Y312929D01*
X298428Y309968D01*
X298449Y309951D01*
X298466Y309930D01*
X298604Y309823D01*
X298740Y309713D01*
X298763Y309700D01*
X298784Y309684D01*
X298941Y309606D01*
X299095Y309524D01*
X299121Y309516D01*
X299145Y309504D01*
X299314Y309459D01*
X299481Y309409D01*
X299508Y309407D01*
X299534Y309400D01*
X299864Y309373D01*
X321928Y309373D01*
X321936Y309374D01*
X321945Y309373D01*
X322137Y309394D01*
X322328Y309413D01*
X322337Y309415D01*
X322346Y309416D01*
X322528Y309474D01*
X322713Y309531D01*
X322721Y309535D01*
X322730Y309538D01*
X322898Y309631D01*
X323067Y309723D01*
X323074Y309728D01*
X323082Y309733D01*
X323230Y309858D01*
X323376Y309980D01*
X323382Y309987D01*
X323389Y309993D01*
X323509Y310145D01*
X323629Y310294D01*
X323633Y310302D01*
X323638Y310309D01*
X323726Y310481D01*
X323814Y310651D01*
X323817Y310660D01*
X323821Y310668D01*
X323873Y310854D01*
X323926Y311038D01*
X323926Y311047D01*
X323929Y311056D01*
X323943Y311248D01*
X323959Y311440D01*
X323958Y311448D01*
X323958Y311457D01*
X323934Y311648D01*
X323912Y311839D01*
X323909Y311848D01*
X323908Y311857D01*
X323846Y312040D01*
X323787Y312222D01*
X323782Y312230D01*
X323780Y312238D01*
X323684Y312404D01*
X323589Y312573D01*
X323583Y312580D01*
X323579Y312587D01*
X323364Y312840D01*
X322071Y314133D01*
X322071Y320867D01*
X323364Y322160D01*
X323370Y322167D01*
X323376Y322172D01*
X323497Y322322D01*
X323619Y322471D01*
X323623Y322479D01*
X323629Y322486D01*
X323717Y322656D01*
X323808Y322827D01*
X323810Y322836D01*
X323814Y322843D01*
X323867Y323028D01*
X323922Y323213D01*
X323923Y323222D01*
X323926Y323230D01*
X323941Y323421D01*
X323959Y323614D01*
X323958Y323623D01*
X323959Y323632D01*
X323936Y323821D01*
X323915Y324014D01*
X323913Y324023D01*
X323912Y324031D01*
X323853Y324213D01*
X323794Y324398D01*
X323790Y324406D01*
X323787Y324414D01*
X323693Y324581D01*
X323599Y324750D01*
X323593Y324757D01*
X323589Y324765D01*
X323464Y324910D01*
X323339Y325057D01*
X323332Y325063D01*
X323326Y325070D01*
X323175Y325186D01*
X323023Y325307D01*
X323015Y325311D01*
X323008Y325316D01*
X322836Y325402D01*
X322664Y325489D01*
X322655Y325492D01*
X322647Y325496D01*
X322461Y325546D01*
X322276Y325597D01*
X322267Y325598D01*
X322258Y325600D01*
X321928Y325627D01*
X193732Y325627D01*
X193701Y325624D01*
X193669Y325626D01*
X193500Y325604D01*
X193331Y325587D01*
X193301Y325578D01*
X193270Y325574D01*
X192954Y325473D01*
X191556Y324893D01*
X189444Y324893D01*
X187494Y325701D01*
X186001Y327194D01*
X185193Y329144D01*
X185193Y331256D01*
X186001Y333206D01*
X187494Y334699D01*
X189444Y335507D01*
X191556Y335507D01*
X192954Y334927D01*
X192984Y334918D01*
X193012Y334904D01*
X193177Y334860D01*
X193340Y334811D01*
X193371Y334808D01*
X193401Y334800D01*
X193732Y334773D01*
X307791Y334773D01*
X307800Y334774D01*
X307809Y334773D01*
X308000Y334794D01*
X308191Y334813D01*
X308200Y334815D01*
X308209Y334816D01*
X308391Y334874D01*
X308576Y334931D01*
X308584Y334935D01*
X308593Y334938D01*
X308761Y335031D01*
X308930Y335123D01*
X308937Y335128D01*
X308945Y335133D01*
X309093Y335258D01*
X309240Y335380D01*
X309245Y335387D01*
X309252Y335393D01*
X309372Y335545D01*
X309492Y335694D01*
X309496Y335702D01*
X309502Y335709D01*
X309589Y335881D01*
X309677Y336051D01*
X309680Y336060D01*
X309684Y336068D01*
X309736Y336254D01*
X309789Y336438D01*
X309790Y336447D01*
X309792Y336456D01*
X309806Y336648D01*
X309822Y336840D01*
X309821Y336848D01*
X309821Y336857D01*
X309797Y337050D01*
X309775Y337239D01*
X309772Y337248D01*
X309771Y337257D01*
X309710Y337440D01*
X309650Y337622D01*
X309646Y337630D01*
X309643Y337638D01*
X309547Y337804D01*
X309452Y337973D01*
X309446Y337980D01*
X309442Y337987D01*
X309227Y338240D01*
X308355Y339112D01*
X308355Y340869D01*
X317500Y340869D01*
X326645Y340869D01*
X326645Y339112D01*
X325773Y338240D01*
X325767Y338233D01*
X325760Y338228D01*
X325639Y338077D01*
X325518Y337929D01*
X325514Y337921D01*
X325508Y337914D01*
X325420Y337744D01*
X325329Y337573D01*
X325327Y337564D01*
X325323Y337557D01*
X325269Y337372D01*
X325214Y337187D01*
X325214Y337178D01*
X325211Y337170D01*
X325195Y336979D01*
X325178Y336786D01*
X325179Y336777D01*
X325178Y336768D01*
X325200Y336579D01*
X325221Y336386D01*
X325224Y336377D01*
X325225Y336369D01*
X325285Y336187D01*
X325343Y336002D01*
X325347Y335994D01*
X325350Y335986D01*
X325444Y335819D01*
X325538Y335650D01*
X325544Y335643D01*
X325548Y335635D01*
X325673Y335490D01*
X325798Y335343D01*
X325805Y335337D01*
X325811Y335330D01*
X325962Y335214D01*
X326114Y335093D01*
X326122Y335089D01*
X326129Y335084D01*
X326300Y334999D01*
X326473Y334911D01*
X326482Y334908D01*
X326490Y334904D01*
X326675Y334855D01*
X326861Y334803D01*
X326870Y334802D01*
X326878Y334800D01*
X327209Y334773D01*
X385428Y334773D01*
X385436Y334774D01*
X385445Y334773D01*
X385637Y334794D01*
X385828Y334813D01*
X385837Y334815D01*
X385846Y334816D01*
X386028Y334874D01*
X386213Y334931D01*
X386221Y334935D01*
X386230Y334938D01*
X386398Y335031D01*
X386567Y335123D01*
X386574Y335128D01*
X386582Y335133D01*
X386730Y335258D01*
X386876Y335380D01*
X386882Y335387D01*
X386889Y335393D01*
X387009Y335545D01*
X387129Y335694D01*
X387133Y335702D01*
X387138Y335709D01*
X387226Y335881D01*
X387314Y336051D01*
X387317Y336060D01*
X387321Y336068D01*
X387373Y336254D01*
X387426Y336438D01*
X387426Y336447D01*
X387429Y336456D01*
X387443Y336648D01*
X387459Y336840D01*
X387458Y336848D01*
X387458Y336857D01*
X387434Y337050D01*
X387412Y337239D01*
X387409Y337248D01*
X387408Y337257D01*
X387346Y337440D01*
X387287Y337622D01*
X387282Y337630D01*
X387280Y337638D01*
X387184Y337804D01*
X387089Y337973D01*
X387083Y337980D01*
X387079Y337987D01*
X386864Y338240D01*
X385571Y339533D01*
X385571Y346267D01*
X390333Y351029D01*
X397067Y351029D01*
X401829Y346267D01*
X401829Y339533D01*
X400536Y338240D01*
X400530Y338233D01*
X400524Y338228D01*
X400403Y338078D01*
X400281Y337929D01*
X400277Y337921D01*
X400271Y337914D01*
X400183Y337744D01*
X400092Y337573D01*
X400090Y337564D01*
X400086Y337557D01*
X400033Y337372D01*
X399978Y337187D01*
X399977Y337178D01*
X399974Y337170D01*
X399959Y336979D01*
X399941Y336786D01*
X399942Y336777D01*
X399941Y336768D01*
X399964Y336579D01*
X399985Y336386D01*
X399987Y336377D01*
X399988Y336369D01*
X400048Y336187D01*
X400106Y336002D01*
X400110Y335994D01*
X400113Y335986D01*
X400207Y335819D01*
X400301Y335650D01*
X400307Y335643D01*
X400311Y335635D01*
X400436Y335490D01*
X400561Y335343D01*
X400568Y335337D01*
X400574Y335330D01*
X400725Y335214D01*
X400877Y335093D01*
X400885Y335089D01*
X400892Y335084D01*
X401064Y334998D01*
X401236Y334911D01*
X401245Y334908D01*
X401253Y334904D01*
X401439Y334854D01*
X401624Y334803D01*
X401633Y334802D01*
X401642Y334800D01*
X401972Y334773D01*
X425196Y334773D01*
X425214Y334775D01*
X425232Y334773D01*
X425414Y334794D01*
X425597Y334813D01*
X425614Y334818D01*
X425631Y334820D01*
X425806Y334877D01*
X425982Y334931D01*
X425997Y334939D01*
X426014Y334945D01*
X426174Y335035D01*
X426336Y335123D01*
X426349Y335134D01*
X426365Y335143D01*
X426504Y335263D01*
X426645Y335380D01*
X426656Y335394D01*
X426670Y335406D01*
X426782Y335551D01*
X426897Y335694D01*
X426905Y335710D01*
X426916Y335724D01*
X426998Y335889D01*
X427083Y336051D01*
X427088Y336068D01*
X427096Y336084D01*
X427143Y336263D01*
X427194Y336438D01*
X427196Y336456D01*
X427200Y336473D01*
X427227Y336804D01*
X427227Y355293D01*
X427225Y355320D01*
X427227Y355347D01*
X427205Y355520D01*
X427187Y355694D01*
X427180Y355719D01*
X427176Y355746D01*
X427121Y355912D01*
X427069Y356079D01*
X427056Y356102D01*
X427048Y356128D01*
X426961Y356279D01*
X426877Y356433D01*
X426860Y356453D01*
X426847Y356477D01*
X426632Y356730D01*
X425387Y357975D01*
X424235Y360755D01*
X424235Y375845D01*
X425387Y378625D01*
X427515Y380753D01*
X430295Y381905D01*
X433305Y381905D01*
X436085Y380753D01*
X438213Y378625D01*
X439365Y375845D01*
X439365Y360755D01*
X438213Y357975D01*
X436968Y356730D01*
X436951Y356709D01*
X436930Y356691D01*
X436823Y356553D01*
X436713Y356418D01*
X436700Y356394D01*
X436684Y356373D01*
X436606Y356216D01*
X436524Y356062D01*
X436516Y356037D01*
X436504Y356013D01*
X436459Y355843D01*
X436409Y355676D01*
X436407Y355650D01*
X436400Y355624D01*
X436373Y355293D01*
X436373Y336804D01*
X436375Y336786D01*
X436373Y336768D01*
X436394Y336586D01*
X436413Y336403D01*
X436418Y336386D01*
X436420Y336369D01*
X436477Y336194D01*
X436531Y336018D01*
X436539Y336003D01*
X436545Y335986D01*
X436635Y335826D01*
X436723Y335664D01*
X436734Y335651D01*
X436743Y335635D01*
X436863Y335496D01*
X436980Y335355D01*
X436994Y335344D01*
X437006Y335330D01*
X437151Y335218D01*
X437294Y335103D01*
X437310Y335095D01*
X437324Y335084D01*
X437489Y335002D01*
X437651Y334917D01*
X437668Y334912D01*
X437684Y334904D01*
X437863Y334857D01*
X438038Y334806D01*
X438056Y334804D01*
X438073Y334800D01*
X438404Y334773D01*
X441268Y334773D01*
X441299Y334776D01*
X441331Y334774D01*
X441500Y334796D01*
X441669Y334813D01*
X441699Y334822D01*
X441730Y334826D01*
X442046Y334927D01*
X443444Y335507D01*
X445556Y335507D01*
X446954Y334927D01*
X446984Y334918D01*
X447012Y334904D01*
X447177Y334860D01*
X447340Y334811D01*
X447371Y334808D01*
X447401Y334800D01*
X447732Y334773D01*
X601328Y334773D01*
X601336Y334774D01*
X601345Y334773D01*
X601537Y334794D01*
X601728Y334813D01*
X601737Y334815D01*
X601746Y334816D01*
X601928Y334874D01*
X602113Y334931D01*
X602121Y334935D01*
X602130Y334938D01*
X602298Y335031D01*
X602467Y335123D01*
X602474Y335128D01*
X602482Y335133D01*
X602630Y335258D01*
X602776Y335380D01*
X602782Y335387D01*
X602789Y335393D01*
X602909Y335545D01*
X603029Y335694D01*
X603033Y335702D01*
X603038Y335709D01*
X603126Y335881D01*
X603214Y336051D01*
X603217Y336060D01*
X603221Y336068D01*
X603273Y336254D01*
X603326Y336438D01*
X603326Y336447D01*
X603329Y336456D01*
X603343Y336648D01*
X603359Y336840D01*
X603358Y336848D01*
X603358Y336857D01*
X603334Y337050D01*
X603312Y337239D01*
X603309Y337248D01*
X603308Y337257D01*
X603246Y337440D01*
X603187Y337622D01*
X603182Y337630D01*
X603180Y337638D01*
X603084Y337804D01*
X602989Y337973D01*
X602983Y337980D01*
X602979Y337987D01*
X602764Y338240D01*
X601471Y339533D01*
X601471Y346267D01*
X606233Y351029D01*
X612967Y351029D01*
X617729Y346267D01*
X617729Y339533D01*
X616436Y338240D01*
X616430Y338233D01*
X616424Y338228D01*
X616303Y338078D01*
X616181Y337929D01*
X616177Y337921D01*
X616171Y337914D01*
X616083Y337744D01*
X615992Y337573D01*
X615990Y337564D01*
X615986Y337557D01*
X615933Y337372D01*
X615878Y337187D01*
X615877Y337178D01*
X615874Y337170D01*
X615859Y336979D01*
X615841Y336786D01*
X615842Y336777D01*
X615841Y336768D01*
X615864Y336579D01*
X615885Y336386D01*
X615887Y336377D01*
X615888Y336369D01*
X615948Y336187D01*
X616006Y336002D01*
X616010Y335994D01*
X616013Y335986D01*
X616107Y335819D01*
X616201Y335650D01*
X616207Y335643D01*
X616211Y335635D01*
X616336Y335490D01*
X616461Y335343D01*
X616468Y335337D01*
X616474Y335330D01*
X616625Y335214D01*
X616777Y335093D01*
X616785Y335089D01*
X616792Y335084D01*
X616964Y334998D01*
X617136Y334911D01*
X617145Y334908D01*
X617153Y334904D01*
X617339Y334854D01*
X617524Y334803D01*
X617533Y334802D01*
X617542Y334800D01*
X617872Y334773D01*
X631768Y334773D01*
X631799Y334776D01*
X631831Y334774D01*
X632000Y334796D01*
X632169Y334813D01*
X632199Y334822D01*
X632230Y334826D01*
X632546Y334927D01*
X633944Y335507D01*
X636056Y335507D01*
X638006Y334699D01*
X639499Y333206D01*
X640307Y331256D01*
X640307Y329144D01*
X639499Y327194D01*
X638006Y325701D01*
X636056Y324893D01*
X633944Y324893D01*
X632546Y325473D01*
X632516Y325482D01*
X632488Y325496D01*
X632323Y325540D01*
X632160Y325589D01*
X632129Y325592D01*
X632099Y325600D01*
X631768Y325627D01*
X630572Y325627D01*
X630564Y325626D01*
X630555Y325627D01*
X630363Y325606D01*
X630172Y325587D01*
X630163Y325585D01*
X630154Y325584D01*
X629972Y325526D01*
X629787Y325469D01*
X629779Y325465D01*
X629770Y325462D01*
X629602Y325369D01*
X629433Y325277D01*
X629426Y325272D01*
X629418Y325267D01*
X629270Y325142D01*
X629124Y325020D01*
X629118Y325013D01*
X629111Y325007D01*
X628991Y324855D01*
X628871Y324706D01*
X628867Y324698D01*
X628862Y324691D01*
X628774Y324519D01*
X628686Y324349D01*
X628683Y324340D01*
X628679Y324332D01*
X628627Y324146D01*
X628574Y323962D01*
X628574Y323953D01*
X628571Y323944D01*
X628557Y323752D01*
X628541Y323560D01*
X628542Y323552D01*
X628542Y323543D01*
X628566Y323350D01*
X628588Y323161D01*
X628591Y323152D01*
X628592Y323143D01*
X628654Y322960D01*
X628713Y322778D01*
X628718Y322770D01*
X628720Y322762D01*
X628816Y322596D01*
X628911Y322427D01*
X628917Y322420D01*
X628921Y322413D01*
X629136Y322160D01*
X630429Y320867D01*
X630429Y314133D01*
X629136Y312840D01*
X629130Y312833D01*
X629124Y312828D01*
X629003Y312678D01*
X628881Y312529D01*
X628877Y312521D01*
X628871Y312514D01*
X628783Y312344D01*
X628692Y312173D01*
X628690Y312164D01*
X628686Y312157D01*
X628633Y311972D01*
X628578Y311787D01*
X628577Y311778D01*
X628574Y311770D01*
X628559Y311579D01*
X628541Y311386D01*
X628542Y311377D01*
X628541Y311368D01*
X628564Y311179D01*
X628585Y310986D01*
X628587Y310977D01*
X628588Y310969D01*
X628648Y310786D01*
X628706Y310602D01*
X628710Y310594D01*
X628713Y310586D01*
X628807Y310419D01*
X628901Y310250D01*
X628907Y310243D01*
X628911Y310235D01*
X629036Y310090D01*
X629161Y309943D01*
X629168Y309937D01*
X629174Y309930D01*
X629325Y309814D01*
X629477Y309693D01*
X629485Y309689D01*
X629492Y309684D01*
X629664Y309598D01*
X629836Y309511D01*
X629845Y309508D01*
X629853Y309504D01*
X630039Y309454D01*
X630224Y309403D01*
X630233Y309402D01*
X630242Y309400D01*
X630572Y309373D01*
X664828Y309373D01*
X664836Y309374D01*
X664845Y309373D01*
X665037Y309394D01*
X665228Y309413D01*
X665237Y309415D01*
X665246Y309416D01*
X665428Y309474D01*
X665613Y309531D01*
X665621Y309535D01*
X665630Y309538D01*
X665798Y309631D01*
X665967Y309723D01*
X665974Y309728D01*
X665982Y309733D01*
X666130Y309858D01*
X666276Y309980D01*
X666282Y309987D01*
X666289Y309993D01*
X666409Y310145D01*
X666529Y310294D01*
X666533Y310302D01*
X666538Y310309D01*
X666626Y310481D01*
X666714Y310651D01*
X666717Y310660D01*
X666721Y310668D01*
X666773Y310854D01*
X666826Y311038D01*
X666826Y311047D01*
X666829Y311056D01*
X666843Y311248D01*
X666859Y311440D01*
X666858Y311448D01*
X666858Y311457D01*
X666834Y311648D01*
X666812Y311839D01*
X666809Y311848D01*
X666808Y311857D01*
X666746Y312040D01*
X666687Y312222D01*
X666682Y312230D01*
X666680Y312238D01*
X666584Y312404D01*
X666489Y312573D01*
X666483Y312580D01*
X666479Y312587D01*
X666264Y312840D01*
X664971Y314133D01*
X664971Y320867D01*
X669733Y325629D01*
X676467Y325629D01*
X680444Y321652D01*
X680465Y321635D01*
X680482Y321614D01*
X680620Y321507D01*
X680756Y321397D01*
X680779Y321384D01*
X680800Y321368D01*
X680957Y321290D01*
X681111Y321208D01*
X681137Y321200D01*
X681161Y321188D01*
X681330Y321143D01*
X681497Y321093D01*
X681524Y321091D01*
X681550Y321084D01*
X681880Y321057D01*
X702507Y321057D01*
X702516Y321058D01*
X702525Y321057D01*
X702716Y321078D01*
X702907Y321097D01*
X702916Y321099D01*
X702925Y321100D01*
X703107Y321158D01*
X703292Y321215D01*
X703300Y321219D01*
X703309Y321222D01*
X703477Y321315D01*
X703646Y321407D01*
X703653Y321412D01*
X703661Y321417D01*
X703808Y321541D01*
X703956Y321664D01*
X703961Y321671D01*
X703968Y321677D01*
X704087Y321828D01*
X704208Y321978D01*
X704212Y321986D01*
X704218Y321993D01*
X704305Y322166D01*
X704393Y322335D01*
X704396Y322344D01*
X704400Y322352D01*
X704452Y322538D01*
X704505Y322722D01*
X704506Y322731D01*
X704508Y322740D01*
X704522Y322933D01*
X704538Y323124D01*
X704537Y323132D01*
X704537Y323141D01*
X704513Y323334D01*
X704491Y323523D01*
X704488Y323532D01*
X704487Y323541D01*
X704426Y323724D01*
X704366Y323906D01*
X704362Y323914D01*
X704359Y323922D01*
X704265Y324085D01*
X704168Y324257D01*
X704162Y324264D01*
X704158Y324271D01*
X703943Y324524D01*
X702055Y326412D01*
X702055Y328169D01*
X711200Y328169D01*
X720345Y328169D01*
X720345Y326412D01*
X718457Y324524D01*
X718451Y324517D01*
X718444Y324512D01*
X718324Y324362D01*
X718202Y324213D01*
X718198Y324205D01*
X718192Y324198D01*
X718104Y324028D01*
X718013Y323857D01*
X718011Y323848D01*
X718007Y323841D01*
X717953Y323656D01*
X717898Y323471D01*
X717898Y323462D01*
X717895Y323454D01*
X717879Y323263D01*
X717862Y323070D01*
X717863Y323061D01*
X717862Y323052D01*
X717885Y322862D01*
X717905Y322670D01*
X717908Y322661D01*
X717909Y322653D01*
X717969Y322471D01*
X718027Y322286D01*
X718031Y322278D01*
X718034Y322270D01*
X718130Y322099D01*
X718222Y321934D01*
X718227Y321927D01*
X718232Y321919D01*
X718358Y321773D01*
X718482Y321627D01*
X718489Y321621D01*
X718495Y321614D01*
X718646Y321497D01*
X718798Y321377D01*
X718806Y321373D01*
X718813Y321368D01*
X718985Y321282D01*
X719157Y321195D01*
X719166Y321192D01*
X719174Y321188D01*
X719360Y321138D01*
X719545Y321087D01*
X719554Y321086D01*
X719562Y321084D01*
X719893Y321057D01*
X744510Y321057D01*
X744537Y321059D01*
X744564Y321057D01*
X744738Y321079D01*
X744911Y321097D01*
X744937Y321104D01*
X744963Y321108D01*
X745129Y321163D01*
X745296Y321215D01*
X745320Y321228D01*
X745345Y321236D01*
X745497Y321323D01*
X745650Y321407D01*
X745671Y321424D01*
X745694Y321437D01*
X745947Y321652D01*
X746294Y321999D01*
X748244Y322807D01*
X750356Y322807D01*
X752306Y321999D01*
X753799Y320506D01*
X754607Y318556D01*
X754607Y316444D01*
X753799Y314494D01*
X752145Y312840D01*
X752139Y312833D01*
X752133Y312828D01*
X752012Y312678D01*
X751890Y312529D01*
X751886Y312521D01*
X751880Y312514D01*
X751792Y312344D01*
X751701Y312173D01*
X751699Y312164D01*
X751695Y312157D01*
X751642Y311972D01*
X751587Y311787D01*
X751586Y311778D01*
X751583Y311770D01*
X751568Y311579D01*
X751550Y311386D01*
X751551Y311377D01*
X751551Y311368D01*
X751573Y311179D01*
X751594Y310986D01*
X751596Y310977D01*
X751597Y310969D01*
X751657Y310786D01*
X751715Y310602D01*
X751719Y310594D01*
X751722Y310586D01*
X751816Y310419D01*
X751910Y310250D01*
X751916Y310243D01*
X751920Y310235D01*
X752045Y310090D01*
X752170Y309943D01*
X752178Y309937D01*
X752183Y309930D01*
X752334Y309814D01*
X752486Y309693D01*
X752494Y309689D01*
X752501Y309684D01*
X752673Y309598D01*
X752845Y309511D01*
X752854Y309508D01*
X752862Y309504D01*
X753048Y309454D01*
X753233Y309403D01*
X753242Y309402D01*
X753251Y309400D01*
X753581Y309373D01*
X762910Y309373D01*
X764590Y308677D01*
X785143Y288124D01*
X785164Y288107D01*
X785181Y288086D01*
X785319Y287979D01*
X785455Y287869D01*
X785478Y287856D01*
X785499Y287840D01*
X785656Y287762D01*
X785810Y287680D01*
X785836Y287672D01*
X785860Y287660D01*
X786029Y287615D01*
X786196Y287565D01*
X786223Y287563D01*
X786249Y287556D01*
X786579Y287529D01*
X790767Y287529D01*
X795529Y282767D01*
X795529Y276033D01*
X790767Y271271D01*
X784033Y271271D01*
G37*
%LPD*%
%LPC*%
G36*
X733233Y29971D02*
X733233Y29971D01*
X728471Y34733D01*
X728471Y41467D01*
X731432Y44428D01*
X731449Y44449D01*
X731470Y44466D01*
X731577Y44604D01*
X731687Y44740D01*
X731700Y44763D01*
X731716Y44784D01*
X731794Y44941D01*
X731876Y45095D01*
X731884Y45121D01*
X731896Y45145D01*
X731941Y45314D01*
X731991Y45481D01*
X731993Y45508D01*
X732000Y45534D01*
X732027Y45864D01*
X732027Y48065D01*
X732025Y48091D01*
X732027Y48118D01*
X732005Y48291D01*
X731987Y48465D01*
X731980Y48491D01*
X731976Y48517D01*
X731921Y48683D01*
X731869Y48850D01*
X731856Y48874D01*
X731848Y48899D01*
X731761Y49051D01*
X731677Y49204D01*
X731660Y49225D01*
X731647Y49248D01*
X731432Y49501D01*
X720023Y60910D01*
X719327Y62590D01*
X719327Y106028D01*
X719326Y106036D01*
X719327Y106045D01*
X719306Y106237D01*
X719287Y106428D01*
X719285Y106437D01*
X719284Y106446D01*
X719226Y106628D01*
X719169Y106813D01*
X719165Y106821D01*
X719162Y106830D01*
X719069Y106998D01*
X718977Y107167D01*
X718972Y107174D01*
X718967Y107182D01*
X718842Y107330D01*
X718720Y107476D01*
X718713Y107482D01*
X718707Y107489D01*
X718555Y107609D01*
X718406Y107729D01*
X718398Y107733D01*
X718391Y107738D01*
X718219Y107826D01*
X718049Y107914D01*
X718040Y107917D01*
X718032Y107921D01*
X717846Y107973D01*
X717662Y108026D01*
X717653Y108026D01*
X717644Y108029D01*
X717452Y108043D01*
X717260Y108059D01*
X717252Y108058D01*
X717243Y108058D01*
X717050Y108034D01*
X716861Y108012D01*
X716852Y108009D01*
X716843Y108008D01*
X716660Y107946D01*
X716478Y107887D01*
X716470Y107882D01*
X716462Y107880D01*
X716296Y107784D01*
X716127Y107689D01*
X716120Y107683D01*
X716113Y107679D01*
X715860Y107464D01*
X714567Y106171D01*
X707833Y106171D01*
X703071Y110933D01*
X703071Y117667D01*
X707833Y122429D01*
X714567Y122429D01*
X715860Y121136D01*
X715867Y121130D01*
X715872Y121124D01*
X716022Y121003D01*
X716171Y120881D01*
X716179Y120877D01*
X716186Y120871D01*
X716356Y120783D01*
X716527Y120692D01*
X716536Y120690D01*
X716543Y120686D01*
X716728Y120633D01*
X716913Y120578D01*
X716922Y120577D01*
X716930Y120574D01*
X717121Y120559D01*
X717314Y120541D01*
X717323Y120542D01*
X717332Y120541D01*
X717521Y120564D01*
X717714Y120585D01*
X717723Y120587D01*
X717731Y120588D01*
X717913Y120648D01*
X718098Y120706D01*
X718106Y120710D01*
X718114Y120713D01*
X718281Y120807D01*
X718450Y120901D01*
X718457Y120907D01*
X718465Y120911D01*
X718610Y121036D01*
X718757Y121161D01*
X718763Y121168D01*
X718770Y121174D01*
X718886Y121325D01*
X719007Y121477D01*
X719011Y121485D01*
X719016Y121492D01*
X719102Y121664D01*
X719189Y121836D01*
X719192Y121845D01*
X719196Y121853D01*
X719245Y122038D01*
X719297Y122224D01*
X719298Y122233D01*
X719300Y122242D01*
X719327Y122572D01*
X719327Y138885D01*
X719326Y138894D01*
X719327Y138903D01*
X719307Y139093D01*
X719287Y139286D01*
X719285Y139294D01*
X719284Y139303D01*
X719226Y139487D01*
X719169Y139671D01*
X719165Y139679D01*
X719162Y139687D01*
X719069Y139856D01*
X718977Y140025D01*
X718972Y140032D01*
X718967Y140040D01*
X718843Y140186D01*
X718720Y140334D01*
X718713Y140340D01*
X718707Y140347D01*
X718556Y140466D01*
X718406Y140586D01*
X718398Y140591D01*
X718391Y140596D01*
X718219Y140684D01*
X718049Y140772D01*
X718040Y140774D01*
X718032Y140778D01*
X717847Y140830D01*
X717662Y140883D01*
X717653Y140884D01*
X717644Y140886D01*
X717452Y140901D01*
X717260Y140916D01*
X717252Y140915D01*
X717243Y140916D01*
X717051Y140892D01*
X716861Y140869D01*
X716852Y140867D01*
X716843Y140865D01*
X716661Y140804D01*
X716478Y140744D01*
X716470Y140740D01*
X716462Y140737D01*
X716294Y140641D01*
X716127Y140547D01*
X716120Y140541D01*
X716113Y140536D01*
X715860Y140322D01*
X715485Y139947D01*
X712705Y138795D01*
X709695Y138795D01*
X706915Y139947D01*
X704787Y142075D01*
X703635Y144855D01*
X703635Y159945D01*
X704787Y162725D01*
X707048Y164986D01*
X707065Y165007D01*
X707086Y165025D01*
X707193Y165163D01*
X707303Y165298D01*
X707316Y165322D01*
X707332Y165343D01*
X707410Y165500D01*
X707492Y165654D01*
X707500Y165679D01*
X707512Y165703D01*
X707557Y165873D01*
X707607Y166040D01*
X707609Y166066D01*
X707616Y166092D01*
X707643Y166423D01*
X707643Y175485D01*
X707641Y175512D01*
X707643Y175539D01*
X707621Y175713D01*
X707603Y175886D01*
X707596Y175911D01*
X707592Y175938D01*
X707537Y176104D01*
X707485Y176271D01*
X707472Y176294D01*
X707464Y176320D01*
X707377Y176471D01*
X707293Y176625D01*
X707276Y176645D01*
X707263Y176669D01*
X707048Y176922D01*
X659522Y224448D01*
X659501Y224465D01*
X659483Y224486D01*
X659346Y224593D01*
X659210Y224703D01*
X659187Y224716D01*
X659165Y224732D01*
X659008Y224810D01*
X658854Y224892D01*
X658829Y224900D01*
X658805Y224912D01*
X658635Y224957D01*
X658469Y225007D01*
X658442Y225009D01*
X658416Y225016D01*
X658085Y225043D01*
X525490Y225043D01*
X525463Y225041D01*
X525436Y225043D01*
X525262Y225021D01*
X525089Y225003D01*
X525063Y224996D01*
X525037Y224992D01*
X524871Y224937D01*
X524704Y224885D01*
X524680Y224872D01*
X524655Y224864D01*
X524503Y224777D01*
X524350Y224693D01*
X524329Y224676D01*
X524306Y224663D01*
X524053Y224448D01*
X523706Y224101D01*
X521756Y223293D01*
X519644Y223293D01*
X517694Y224101D01*
X516201Y225594D01*
X515393Y227544D01*
X515393Y229656D01*
X516201Y231606D01*
X517694Y233099D01*
X519644Y233907D01*
X521756Y233907D01*
X523706Y233099D01*
X524053Y232752D01*
X524074Y232735D01*
X524091Y232714D01*
X524229Y232607D01*
X524365Y232497D01*
X524388Y232484D01*
X524409Y232468D01*
X524566Y232390D01*
X524720Y232308D01*
X524746Y232300D01*
X524770Y232288D01*
X524939Y232243D01*
X525106Y232193D01*
X525133Y232191D01*
X525159Y232184D01*
X525490Y232157D01*
X661873Y232157D01*
X714757Y179273D01*
X714757Y166423D01*
X714759Y166396D01*
X714757Y166370D01*
X714779Y166196D01*
X714797Y166022D01*
X714804Y165997D01*
X714808Y165970D01*
X714863Y165804D01*
X714915Y165637D01*
X714928Y165614D01*
X714936Y165588D01*
X715023Y165437D01*
X715107Y165283D01*
X715124Y165263D01*
X715137Y165240D01*
X715352Y164987D01*
X715860Y164478D01*
X715867Y164473D01*
X715872Y164466D01*
X716022Y164345D01*
X716171Y164223D01*
X716179Y164219D01*
X716186Y164214D01*
X716356Y164125D01*
X716527Y164035D01*
X716536Y164032D01*
X716543Y164028D01*
X716727Y163975D01*
X716913Y163920D01*
X716922Y163919D01*
X716930Y163917D01*
X717121Y163901D01*
X717314Y163884D01*
X717323Y163885D01*
X717332Y163884D01*
X717521Y163906D01*
X717714Y163927D01*
X717723Y163930D01*
X717731Y163931D01*
X717915Y163991D01*
X718098Y164048D01*
X718106Y164053D01*
X718114Y164056D01*
X718283Y164151D01*
X718450Y164243D01*
X718457Y164249D01*
X718465Y164253D01*
X718609Y164378D01*
X718757Y164504D01*
X718763Y164511D01*
X718770Y164517D01*
X718887Y164668D01*
X719007Y164820D01*
X719011Y164828D01*
X719016Y164835D01*
X719102Y165007D01*
X719189Y165179D01*
X719192Y165187D01*
X719196Y165195D01*
X719246Y165383D01*
X719297Y165566D01*
X719298Y165575D01*
X719300Y165584D01*
X719327Y165915D01*
X719327Y181415D01*
X719325Y181441D01*
X719327Y181468D01*
X719305Y181642D01*
X719287Y181815D01*
X719280Y181841D01*
X719276Y181867D01*
X719221Y182033D01*
X719169Y182200D01*
X719156Y182224D01*
X719148Y182249D01*
X719061Y182401D01*
X718977Y182554D01*
X718960Y182575D01*
X718947Y182598D01*
X718732Y182851D01*
X707323Y194260D01*
X706627Y195940D01*
X706627Y215593D01*
X706625Y215620D01*
X706627Y215647D01*
X706605Y215820D01*
X706587Y215994D01*
X706580Y216019D01*
X706576Y216046D01*
X706521Y216212D01*
X706469Y216379D01*
X706456Y216402D01*
X706448Y216428D01*
X706361Y216579D01*
X706277Y216733D01*
X706260Y216753D01*
X706247Y216777D01*
X706032Y217030D01*
X704787Y218275D01*
X703635Y221055D01*
X703635Y236145D01*
X704787Y238925D01*
X706915Y241053D01*
X709695Y242205D01*
X712705Y242205D01*
X715485Y241053D01*
X717613Y238925D01*
X718765Y236145D01*
X718765Y221055D01*
X717613Y218275D01*
X716368Y217030D01*
X716351Y217009D01*
X716330Y216991D01*
X716223Y216853D01*
X716113Y216718D01*
X716100Y216694D01*
X716084Y216673D01*
X716006Y216516D01*
X715924Y216362D01*
X715916Y216337D01*
X715904Y216313D01*
X715859Y216143D01*
X715809Y215976D01*
X715807Y215950D01*
X715800Y215924D01*
X715773Y215593D01*
X715773Y199585D01*
X715775Y199559D01*
X715773Y199532D01*
X715795Y199358D01*
X715813Y199185D01*
X715820Y199159D01*
X715824Y199133D01*
X715879Y198967D01*
X715931Y198800D01*
X715944Y198776D01*
X715952Y198751D01*
X716039Y198599D01*
X716123Y198446D01*
X716140Y198425D01*
X716153Y198402D01*
X716368Y198149D01*
X727777Y186740D01*
X728473Y185060D01*
X728473Y165915D01*
X728474Y165906D01*
X728473Y165897D01*
X728493Y165707D01*
X728513Y165514D01*
X728515Y165506D01*
X728516Y165497D01*
X728575Y165312D01*
X728631Y165129D01*
X728635Y165121D01*
X728638Y165113D01*
X728731Y164944D01*
X728823Y164775D01*
X728828Y164768D01*
X728833Y164760D01*
X728958Y164613D01*
X729080Y164466D01*
X729087Y164460D01*
X729093Y164453D01*
X729244Y164334D01*
X729394Y164214D01*
X729402Y164209D01*
X729409Y164204D01*
X729581Y164116D01*
X729751Y164028D01*
X729760Y164026D01*
X729768Y164022D01*
X729953Y163970D01*
X730138Y163917D01*
X730147Y163916D01*
X730156Y163914D01*
X730348Y163899D01*
X730540Y163884D01*
X730548Y163885D01*
X730557Y163884D01*
X730749Y163908D01*
X730939Y163931D01*
X730948Y163933D01*
X730957Y163935D01*
X731139Y163996D01*
X731322Y164056D01*
X731330Y164060D01*
X731338Y164063D01*
X731506Y164159D01*
X731673Y164253D01*
X731680Y164259D01*
X731687Y164264D01*
X731940Y164478D01*
X732315Y164853D01*
X735095Y166005D01*
X738105Y166005D01*
X740885Y164853D01*
X743013Y162725D01*
X744165Y159945D01*
X744165Y144855D01*
X743013Y142075D01*
X740885Y139947D01*
X738105Y138795D01*
X735095Y138795D01*
X732315Y139947D01*
X731940Y140322D01*
X731933Y140327D01*
X731928Y140334D01*
X731779Y140454D01*
X731629Y140577D01*
X731621Y140581D01*
X731614Y140586D01*
X731445Y140674D01*
X731273Y140765D01*
X731264Y140768D01*
X731257Y140772D01*
X731073Y140825D01*
X730887Y140880D01*
X730878Y140881D01*
X730870Y140883D01*
X730679Y140899D01*
X730486Y140916D01*
X730477Y140915D01*
X730468Y140916D01*
X730279Y140894D01*
X730086Y140873D01*
X730077Y140870D01*
X730069Y140869D01*
X729886Y140810D01*
X729702Y140752D01*
X729694Y140747D01*
X729686Y140744D01*
X729517Y140649D01*
X729350Y140557D01*
X729343Y140551D01*
X729335Y140547D01*
X729190Y140421D01*
X729043Y140296D01*
X729037Y140289D01*
X729030Y140283D01*
X728913Y140132D01*
X728793Y139980D01*
X728789Y139972D01*
X728784Y139965D01*
X728697Y139792D01*
X728611Y139621D01*
X728608Y139613D01*
X728604Y139605D01*
X728554Y139416D01*
X728503Y139234D01*
X728502Y139225D01*
X728500Y139216D01*
X728473Y138885D01*
X728473Y122572D01*
X728474Y122564D01*
X728473Y122555D01*
X728494Y122363D01*
X728513Y122172D01*
X728515Y122163D01*
X728516Y122154D01*
X728574Y121972D01*
X728631Y121787D01*
X728635Y121779D01*
X728638Y121770D01*
X728731Y121602D01*
X728823Y121433D01*
X728828Y121426D01*
X728833Y121418D01*
X728958Y121270D01*
X729080Y121124D01*
X729087Y121118D01*
X729093Y121111D01*
X729245Y120991D01*
X729394Y120871D01*
X729402Y120867D01*
X729409Y120862D01*
X729581Y120774D01*
X729751Y120686D01*
X729760Y120683D01*
X729768Y120679D01*
X729954Y120627D01*
X730138Y120574D01*
X730147Y120574D01*
X730156Y120571D01*
X730348Y120557D01*
X730540Y120541D01*
X730548Y120542D01*
X730557Y120542D01*
X730750Y120566D01*
X730939Y120588D01*
X730948Y120591D01*
X730957Y120592D01*
X731140Y120654D01*
X731322Y120713D01*
X731330Y120718D01*
X731338Y120720D01*
X731504Y120816D01*
X731673Y120911D01*
X731680Y120917D01*
X731687Y120921D01*
X731940Y121136D01*
X733233Y122429D01*
X739967Y122429D01*
X744729Y117667D01*
X744729Y110933D01*
X739967Y106171D01*
X733233Y106171D01*
X731940Y107464D01*
X731933Y107470D01*
X731928Y107476D01*
X731778Y107597D01*
X731629Y107719D01*
X731621Y107723D01*
X731614Y107729D01*
X731444Y107817D01*
X731273Y107908D01*
X731264Y107910D01*
X731257Y107914D01*
X731072Y107967D01*
X730887Y108022D01*
X730878Y108023D01*
X730870Y108026D01*
X730679Y108041D01*
X730486Y108059D01*
X730477Y108058D01*
X730468Y108059D01*
X730279Y108036D01*
X730086Y108015D01*
X730077Y108013D01*
X730069Y108012D01*
X729887Y107952D01*
X729702Y107894D01*
X729694Y107890D01*
X729686Y107887D01*
X729518Y107792D01*
X729350Y107699D01*
X729343Y107693D01*
X729335Y107689D01*
X729190Y107564D01*
X729043Y107439D01*
X729037Y107432D01*
X729030Y107426D01*
X728914Y107275D01*
X728793Y107123D01*
X728789Y107115D01*
X728784Y107108D01*
X728698Y106936D01*
X728611Y106764D01*
X728608Y106755D01*
X728604Y106747D01*
X728554Y106561D01*
X728503Y106376D01*
X728502Y106367D01*
X728500Y106358D01*
X728473Y106028D01*
X728473Y66235D01*
X728475Y66209D01*
X728473Y66182D01*
X728495Y66008D01*
X728513Y65835D01*
X728520Y65809D01*
X728524Y65783D01*
X728579Y65617D01*
X728631Y65450D01*
X728644Y65426D01*
X728652Y65401D01*
X728739Y65249D01*
X728823Y65096D01*
X728840Y65075D01*
X728853Y65052D01*
X729068Y64799D01*
X740477Y53390D01*
X741173Y51710D01*
X741173Y45864D01*
X741175Y45838D01*
X741173Y45811D01*
X741195Y45637D01*
X741213Y45464D01*
X741220Y45438D01*
X741224Y45412D01*
X741279Y45246D01*
X741331Y45079D01*
X741344Y45055D01*
X741352Y45030D01*
X741439Y44878D01*
X741523Y44725D01*
X741540Y44704D01*
X741553Y44681D01*
X741768Y44428D01*
X744729Y41467D01*
X744729Y34733D01*
X739967Y29971D01*
X733233Y29971D01*
G37*
%LPD*%
%LPC*%
G36*
X351497Y428093D02*
X351497Y428093D01*
X345693Y433897D01*
X345693Y442103D01*
X351448Y447859D01*
X351465Y447879D01*
X351486Y447897D01*
X351593Y448035D01*
X351703Y448170D01*
X351716Y448194D01*
X351732Y448215D01*
X351810Y448372D01*
X351892Y448526D01*
X351900Y448551D01*
X351912Y448575D01*
X351957Y448745D01*
X352007Y448912D01*
X352009Y448938D01*
X352016Y448964D01*
X352043Y449295D01*
X352043Y581885D01*
X352041Y581912D01*
X352043Y581939D01*
X352021Y582113D01*
X352003Y582286D01*
X351996Y582311D01*
X351992Y582338D01*
X351937Y582504D01*
X351885Y582671D01*
X351872Y582694D01*
X351864Y582720D01*
X351777Y582871D01*
X351693Y583025D01*
X351676Y583045D01*
X351663Y583069D01*
X351448Y583322D01*
X301243Y633527D01*
X301243Y674573D01*
X338748Y712078D01*
X338765Y712099D01*
X338786Y712117D01*
X338893Y712254D01*
X339003Y712390D01*
X339016Y712413D01*
X339032Y712435D01*
X339110Y712592D01*
X339192Y712746D01*
X339200Y712771D01*
X339212Y712795D01*
X339257Y712965D01*
X339307Y713131D01*
X339309Y713158D01*
X339316Y713184D01*
X339343Y713515D01*
X339343Y801573D01*
X366827Y829057D01*
X452498Y829057D01*
X452520Y829059D01*
X452542Y829057D01*
X452720Y829079D01*
X452898Y829097D01*
X452920Y829103D01*
X452942Y829106D01*
X453112Y829162D01*
X453283Y829215D01*
X453303Y829225D01*
X453324Y829232D01*
X453480Y829321D01*
X453637Y829407D01*
X453655Y829421D01*
X453674Y829432D01*
X453809Y829550D01*
X453947Y829664D01*
X453961Y829682D01*
X453977Y829696D01*
X454087Y829839D01*
X454199Y829978D01*
X454209Y829998D01*
X454223Y830016D01*
X454374Y830311D01*
X454527Y830680D01*
X457100Y833253D01*
X460461Y834645D01*
X479339Y834645D01*
X482700Y833253D01*
X485273Y830680D01*
X486665Y827319D01*
X486665Y823681D01*
X485273Y820320D01*
X482700Y817747D01*
X479339Y816355D01*
X460461Y816355D01*
X457100Y817747D01*
X454527Y820320D01*
X454374Y820689D01*
X454364Y820709D01*
X454357Y820730D01*
X454269Y820886D01*
X454184Y821044D01*
X454170Y821061D01*
X454159Y821081D01*
X454042Y821217D01*
X453928Y821355D01*
X453911Y821369D01*
X453896Y821386D01*
X453755Y821495D01*
X453615Y821608D01*
X453595Y821619D01*
X453578Y821632D01*
X453418Y821712D01*
X453259Y821795D01*
X453237Y821802D01*
X453217Y821812D01*
X453044Y821858D01*
X452872Y821908D01*
X452850Y821910D01*
X452829Y821916D01*
X452498Y821943D01*
X370615Y821943D01*
X370588Y821941D01*
X370561Y821943D01*
X370387Y821921D01*
X370214Y821903D01*
X370189Y821896D01*
X370162Y821892D01*
X369996Y821837D01*
X369829Y821785D01*
X369806Y821772D01*
X369780Y821764D01*
X369629Y821677D01*
X369475Y821593D01*
X369455Y821576D01*
X369431Y821563D01*
X369178Y821348D01*
X347052Y799222D01*
X347035Y799201D01*
X347014Y799183D01*
X346907Y799046D01*
X346797Y798910D01*
X346784Y798887D01*
X346768Y798865D01*
X346690Y798708D01*
X346608Y798554D01*
X346600Y798529D01*
X346588Y798505D01*
X346543Y798335D01*
X346493Y798169D01*
X346491Y798142D01*
X346484Y798116D01*
X346457Y797785D01*
X346457Y709727D01*
X308952Y672222D01*
X308935Y672201D01*
X308914Y672183D01*
X308807Y672046D01*
X308697Y671910D01*
X308684Y671887D01*
X308668Y671865D01*
X308590Y671708D01*
X308508Y671554D01*
X308500Y671529D01*
X308488Y671505D01*
X308443Y671335D01*
X308393Y671169D01*
X308391Y671142D01*
X308384Y671116D01*
X308357Y670785D01*
X308357Y637315D01*
X308359Y637288D01*
X308357Y637261D01*
X308379Y637087D01*
X308397Y636914D01*
X308404Y636889D01*
X308408Y636862D01*
X308463Y636696D01*
X308515Y636529D01*
X308528Y636506D01*
X308536Y636480D01*
X308623Y636329D01*
X308707Y636175D01*
X308724Y636155D01*
X308737Y636131D01*
X308952Y635878D01*
X359157Y585673D01*
X359157Y449295D01*
X359159Y449268D01*
X359157Y449242D01*
X359179Y449068D01*
X359197Y448894D01*
X359204Y448869D01*
X359208Y448842D01*
X359263Y448676D01*
X359315Y448509D01*
X359328Y448486D01*
X359336Y448460D01*
X359423Y448309D01*
X359507Y448155D01*
X359524Y448135D01*
X359537Y448112D01*
X359752Y447859D01*
X365507Y442103D01*
X365507Y433897D01*
X359703Y428093D01*
X351497Y428093D01*
G37*
%LPD*%
%LPC*%
G36*
X136333Y576071D02*
X136333Y576071D01*
X131571Y580833D01*
X131571Y587567D01*
X136333Y592329D01*
X140462Y592329D01*
X140480Y592331D01*
X140498Y592329D01*
X140680Y592350D01*
X140863Y592369D01*
X140880Y592374D01*
X140897Y592376D01*
X141072Y592433D01*
X141248Y592487D01*
X141263Y592495D01*
X141280Y592501D01*
X141440Y592591D01*
X141602Y592679D01*
X141615Y592690D01*
X141631Y592699D01*
X141770Y592819D01*
X141911Y592936D01*
X141922Y592950D01*
X141936Y592962D01*
X142048Y593107D01*
X142163Y593250D01*
X142171Y593266D01*
X142182Y593280D01*
X142264Y593445D01*
X142349Y593607D01*
X142354Y593624D01*
X142362Y593640D01*
X142409Y593819D01*
X142460Y593994D01*
X142462Y594012D01*
X142466Y594029D01*
X142493Y594360D01*
X142493Y680923D01*
X173648Y712078D01*
X173665Y712099D01*
X173686Y712117D01*
X173793Y712254D01*
X173903Y712390D01*
X173916Y712413D01*
X173932Y712435D01*
X174010Y712592D01*
X174092Y712746D01*
X174100Y712771D01*
X174112Y712795D01*
X174157Y712965D01*
X174207Y713131D01*
X174209Y713158D01*
X174216Y713184D01*
X174243Y713515D01*
X174243Y797785D01*
X174241Y797812D01*
X174243Y797839D01*
X174221Y798013D01*
X174203Y798186D01*
X174196Y798211D01*
X174192Y798238D01*
X174137Y798404D01*
X174085Y798571D01*
X174072Y798594D01*
X174064Y798620D01*
X173977Y798771D01*
X173893Y798925D01*
X173876Y798945D01*
X173863Y798969D01*
X173648Y799222D01*
X98043Y874827D01*
X98043Y883905D01*
X98041Y883932D01*
X98043Y883958D01*
X98021Y884132D01*
X98003Y884306D01*
X97996Y884331D01*
X97992Y884358D01*
X97937Y884524D01*
X97885Y884691D01*
X97872Y884714D01*
X97864Y884740D01*
X97777Y884891D01*
X97693Y885045D01*
X97676Y885065D01*
X97663Y885088D01*
X97448Y885341D01*
X91693Y891097D01*
X91693Y899303D01*
X97497Y905107D01*
X105703Y905107D01*
X111507Y899303D01*
X111507Y891097D01*
X105752Y885341D01*
X105735Y885321D01*
X105714Y885303D01*
X105607Y885165D01*
X105497Y885030D01*
X105484Y885006D01*
X105468Y884985D01*
X105390Y884828D01*
X105308Y884674D01*
X105300Y884649D01*
X105288Y884625D01*
X105243Y884455D01*
X105193Y884288D01*
X105191Y884262D01*
X105184Y884236D01*
X105157Y883905D01*
X105157Y878615D01*
X105159Y878588D01*
X105157Y878561D01*
X105179Y878387D01*
X105197Y878214D01*
X105204Y878189D01*
X105208Y878162D01*
X105263Y877996D01*
X105315Y877829D01*
X105328Y877806D01*
X105336Y877780D01*
X105423Y877629D01*
X105507Y877475D01*
X105524Y877455D01*
X105537Y877431D01*
X105752Y877178D01*
X181357Y801573D01*
X181357Y709727D01*
X150202Y678572D01*
X150185Y678551D01*
X150164Y678533D01*
X150057Y678396D01*
X149947Y678260D01*
X149934Y678237D01*
X149918Y678215D01*
X149840Y678058D01*
X149758Y677904D01*
X149750Y677879D01*
X149738Y677855D01*
X149693Y677685D01*
X149643Y677519D01*
X149641Y677492D01*
X149634Y677466D01*
X149607Y677135D01*
X149607Y589077D01*
X148424Y587894D01*
X148407Y587873D01*
X148386Y587856D01*
X148279Y587718D01*
X148169Y587582D01*
X148156Y587559D01*
X148140Y587537D01*
X148062Y587381D01*
X147980Y587227D01*
X147972Y587201D01*
X147960Y587177D01*
X147915Y587008D01*
X147865Y586841D01*
X147863Y586814D01*
X147856Y586788D01*
X147829Y586457D01*
X147829Y580833D01*
X143067Y576071D01*
X136333Y576071D01*
G37*
%LPD*%
%LPC*%
G36*
X199756Y589787D02*
X199756Y589787D01*
X193102Y591570D01*
X187136Y595015D01*
X182265Y599886D01*
X178820Y605852D01*
X177037Y612506D01*
X177037Y619394D01*
X178820Y626048D01*
X182265Y632014D01*
X187136Y636885D01*
X193102Y640330D01*
X199756Y642113D01*
X206644Y642113D01*
X213298Y640330D01*
X219264Y636885D01*
X224135Y632014D01*
X227580Y626048D01*
X229363Y619394D01*
X229363Y612506D01*
X227580Y605852D01*
X224135Y599886D01*
X219264Y595015D01*
X213298Y591570D01*
X206644Y589787D01*
X199756Y589787D01*
G37*
%LPD*%
%LPC*%
G36*
X555356Y69087D02*
X555356Y69087D01*
X548702Y70870D01*
X542736Y74315D01*
X537865Y79186D01*
X534420Y85152D01*
X532637Y91806D01*
X532637Y98694D01*
X534420Y105348D01*
X537865Y111314D01*
X542736Y116185D01*
X548702Y119630D01*
X555356Y121413D01*
X562244Y121413D01*
X568898Y119630D01*
X574864Y116185D01*
X579735Y111314D01*
X583180Y105348D01*
X584963Y98694D01*
X584963Y91806D01*
X583180Y85152D01*
X579735Y79186D01*
X574864Y74315D01*
X568898Y70870D01*
X562244Y69087D01*
X555356Y69087D01*
G37*
%LPD*%
%LPC*%
G36*
X376497Y428093D02*
X376497Y428093D01*
X370693Y433897D01*
X370693Y442103D01*
X376848Y448259D01*
X376865Y448279D01*
X376886Y448297D01*
X376993Y448435D01*
X377103Y448570D01*
X377116Y448594D01*
X377132Y448615D01*
X377210Y448772D01*
X377292Y448926D01*
X377300Y448951D01*
X377312Y448975D01*
X377357Y449145D01*
X377407Y449312D01*
X377409Y449338D01*
X377416Y449364D01*
X377443Y449695D01*
X377443Y454885D01*
X377441Y454912D01*
X377443Y454939D01*
X377421Y455113D01*
X377403Y455286D01*
X377396Y455311D01*
X377392Y455338D01*
X377337Y455504D01*
X377285Y455671D01*
X377272Y455694D01*
X377264Y455720D01*
X377177Y455871D01*
X377093Y456025D01*
X377076Y456045D01*
X377063Y456069D01*
X376848Y456322D01*
X364743Y468427D01*
X364743Y528523D01*
X423977Y587757D01*
X452410Y587757D01*
X452437Y587759D01*
X452464Y587757D01*
X452638Y587779D01*
X452811Y587797D01*
X452837Y587804D01*
X452863Y587808D01*
X453029Y587863D01*
X453196Y587915D01*
X453220Y587928D01*
X453245Y587936D01*
X453397Y588023D01*
X453550Y588107D01*
X453571Y588124D01*
X453594Y588137D01*
X453847Y588352D01*
X454194Y588699D01*
X456144Y589507D01*
X458256Y589507D01*
X460206Y588699D01*
X461699Y587206D01*
X462507Y585256D01*
X462507Y583144D01*
X461699Y581194D01*
X460206Y579701D01*
X458256Y578893D01*
X456144Y578893D01*
X454194Y579701D01*
X453847Y580048D01*
X453826Y580065D01*
X453809Y580086D01*
X453671Y580193D01*
X453535Y580303D01*
X453512Y580316D01*
X453491Y580332D01*
X453334Y580410D01*
X453180Y580492D01*
X453154Y580500D01*
X453130Y580512D01*
X452961Y580557D01*
X452794Y580607D01*
X452767Y580609D01*
X452741Y580616D01*
X452410Y580643D01*
X427765Y580643D01*
X427738Y580641D01*
X427711Y580643D01*
X427537Y580621D01*
X427364Y580603D01*
X427339Y580596D01*
X427312Y580592D01*
X427146Y580537D01*
X426979Y580485D01*
X426956Y580472D01*
X426930Y580464D01*
X426779Y580377D01*
X426625Y580293D01*
X426605Y580276D01*
X426581Y580263D01*
X426328Y580048D01*
X372452Y526172D01*
X372435Y526151D01*
X372414Y526133D01*
X372307Y525996D01*
X372197Y525860D01*
X372184Y525837D01*
X372168Y525815D01*
X372090Y525658D01*
X372008Y525504D01*
X372000Y525479D01*
X371988Y525455D01*
X371943Y525285D01*
X371893Y525119D01*
X371891Y525092D01*
X371884Y525066D01*
X371857Y524735D01*
X371857Y472215D01*
X371859Y472188D01*
X371857Y472161D01*
X371879Y471987D01*
X371897Y471814D01*
X371904Y471788D01*
X371908Y471762D01*
X371963Y471596D01*
X372015Y471429D01*
X372028Y471406D01*
X372036Y471380D01*
X372123Y471229D01*
X372207Y471075D01*
X372224Y471055D01*
X372237Y471031D01*
X372452Y470778D01*
X384557Y458673D01*
X384557Y448895D01*
X384558Y448884D01*
X384557Y448875D01*
X384559Y448860D01*
X384557Y448842D01*
X384579Y448668D01*
X384597Y448494D01*
X384604Y448469D01*
X384608Y448442D01*
X384663Y448276D01*
X384715Y448109D01*
X384728Y448086D01*
X384736Y448060D01*
X384824Y447908D01*
X384907Y447755D01*
X384924Y447735D01*
X384937Y447712D01*
X385152Y447459D01*
X390507Y442103D01*
X390507Y433897D01*
X384703Y428093D01*
X376497Y428093D01*
G37*
%LPD*%
%LPC*%
G36*
X532344Y248693D02*
X532344Y248693D01*
X530394Y249501D01*
X528901Y250994D01*
X528093Y252944D01*
X528093Y255056D01*
X528901Y257006D01*
X530394Y258499D01*
X532344Y259307D01*
X534456Y259307D01*
X536406Y258499D01*
X536753Y258152D01*
X536774Y258135D01*
X536791Y258114D01*
X536929Y258007D01*
X537065Y257897D01*
X537088Y257884D01*
X537109Y257868D01*
X537266Y257790D01*
X537420Y257708D01*
X537446Y257700D01*
X537470Y257688D01*
X537639Y257643D01*
X537806Y257593D01*
X537833Y257591D01*
X537859Y257584D01*
X538190Y257557D01*
X719110Y257557D01*
X719137Y257559D01*
X719164Y257557D01*
X719338Y257579D01*
X719511Y257597D01*
X719537Y257604D01*
X719563Y257608D01*
X719729Y257663D01*
X719896Y257715D01*
X719920Y257728D01*
X719945Y257736D01*
X720097Y257823D01*
X720250Y257907D01*
X720271Y257924D01*
X720294Y257937D01*
X720547Y258152D01*
X720894Y258499D01*
X722844Y259307D01*
X724956Y259307D01*
X726906Y258499D01*
X728399Y257006D01*
X729207Y255056D01*
X729207Y252944D01*
X728399Y250994D01*
X726906Y249501D01*
X724956Y248693D01*
X722844Y248693D01*
X720894Y249501D01*
X720547Y249848D01*
X720526Y249865D01*
X720509Y249886D01*
X720371Y249993D01*
X720235Y250103D01*
X720212Y250116D01*
X720191Y250132D01*
X720034Y250210D01*
X719880Y250292D01*
X719854Y250300D01*
X719830Y250312D01*
X719661Y250357D01*
X719494Y250407D01*
X719467Y250409D01*
X719441Y250416D01*
X719110Y250443D01*
X538190Y250443D01*
X538163Y250441D01*
X538136Y250443D01*
X537962Y250421D01*
X537789Y250403D01*
X537763Y250396D01*
X537737Y250392D01*
X537571Y250337D01*
X537404Y250285D01*
X537380Y250272D01*
X537355Y250264D01*
X537203Y250177D01*
X537050Y250093D01*
X537029Y250076D01*
X537006Y250063D01*
X536753Y249848D01*
X536406Y249501D01*
X534456Y248693D01*
X532344Y248693D01*
G37*
%LPD*%
%LPC*%
G36*
X460461Y841755D02*
X460461Y841755D01*
X457100Y843147D01*
X454527Y845720D01*
X454374Y846089D01*
X454364Y846109D01*
X454357Y846130D01*
X454269Y846286D01*
X454184Y846444D01*
X454170Y846461D01*
X454159Y846481D01*
X454042Y846617D01*
X453928Y846755D01*
X453911Y846769D01*
X453896Y846786D01*
X453755Y846895D01*
X453615Y847008D01*
X453595Y847019D01*
X453578Y847032D01*
X453418Y847112D01*
X453259Y847195D01*
X453237Y847202D01*
X453217Y847212D01*
X453044Y847258D01*
X452872Y847308D01*
X452850Y847310D01*
X452829Y847316D01*
X452498Y847343D01*
X373090Y847343D01*
X373063Y847341D01*
X373036Y847343D01*
X372862Y847321D01*
X372689Y847303D01*
X372663Y847296D01*
X372637Y847292D01*
X372471Y847237D01*
X372304Y847185D01*
X372280Y847172D01*
X372255Y847164D01*
X372103Y847077D01*
X371950Y846993D01*
X371929Y846976D01*
X371906Y846963D01*
X371653Y846748D01*
X371306Y846401D01*
X369356Y845593D01*
X367244Y845593D01*
X365294Y846401D01*
X363801Y847894D01*
X362993Y849844D01*
X362993Y851956D01*
X363801Y853906D01*
X365294Y855399D01*
X367244Y856207D01*
X369356Y856207D01*
X371306Y855399D01*
X371653Y855052D01*
X371674Y855035D01*
X371691Y855014D01*
X371829Y854907D01*
X371965Y854797D01*
X371988Y854784D01*
X372009Y854768D01*
X372166Y854690D01*
X372320Y854608D01*
X372346Y854600D01*
X372370Y854588D01*
X372539Y854543D01*
X372706Y854493D01*
X372733Y854491D01*
X372759Y854484D01*
X373090Y854457D01*
X386444Y854457D01*
X386452Y854458D01*
X386461Y854457D01*
X386653Y854478D01*
X386844Y854497D01*
X386853Y854499D01*
X386862Y854500D01*
X387044Y854558D01*
X387229Y854615D01*
X387237Y854619D01*
X387246Y854622D01*
X387414Y854715D01*
X387583Y854807D01*
X387590Y854812D01*
X387598Y854817D01*
X387745Y854941D01*
X387892Y855064D01*
X387898Y855071D01*
X387905Y855077D01*
X388024Y855228D01*
X388145Y855378D01*
X388149Y855386D01*
X388154Y855393D01*
X388242Y855566D01*
X388330Y855735D01*
X388333Y855744D01*
X388337Y855752D01*
X388389Y855938D01*
X388442Y856122D01*
X388442Y856131D01*
X388445Y856140D01*
X388459Y856333D01*
X388475Y856524D01*
X388474Y856532D01*
X388474Y856541D01*
X388450Y856734D01*
X388428Y856923D01*
X388425Y856932D01*
X388424Y856941D01*
X388362Y857124D01*
X388303Y857306D01*
X388298Y857314D01*
X388296Y857322D01*
X388202Y857485D01*
X388105Y857657D01*
X388099Y857664D01*
X388095Y857671D01*
X387880Y857924D01*
X385571Y860233D01*
X385571Y866967D01*
X390333Y871729D01*
X397067Y871729D01*
X401829Y866967D01*
X401829Y860233D01*
X399520Y857924D01*
X399514Y857917D01*
X399508Y857912D01*
X399387Y857762D01*
X399265Y857613D01*
X399261Y857605D01*
X399255Y857598D01*
X399167Y857428D01*
X399076Y857257D01*
X399074Y857248D01*
X399070Y857241D01*
X399017Y857056D01*
X398962Y856871D01*
X398961Y856862D01*
X398958Y856854D01*
X398943Y856663D01*
X398925Y856470D01*
X398926Y856461D01*
X398925Y856452D01*
X398948Y856263D01*
X398969Y856070D01*
X398971Y856061D01*
X398972Y856053D01*
X399032Y855871D01*
X399090Y855686D01*
X399094Y855678D01*
X399097Y855670D01*
X399192Y855501D01*
X399285Y855334D01*
X399291Y855327D01*
X399295Y855319D01*
X399421Y855173D01*
X399545Y855027D01*
X399552Y855021D01*
X399558Y855014D01*
X399710Y854897D01*
X399861Y854777D01*
X399869Y854773D01*
X399876Y854768D01*
X400048Y854682D01*
X400220Y854595D01*
X400229Y854592D01*
X400237Y854588D01*
X400423Y854538D01*
X400608Y854487D01*
X400617Y854486D01*
X400626Y854484D01*
X400956Y854457D01*
X452498Y854457D01*
X452520Y854459D01*
X452542Y854457D01*
X452720Y854479D01*
X452898Y854497D01*
X452920Y854503D01*
X452942Y854506D01*
X453112Y854562D01*
X453283Y854615D01*
X453303Y854625D01*
X453324Y854632D01*
X453480Y854721D01*
X453637Y854807D01*
X453655Y854821D01*
X453674Y854832D01*
X453809Y854950D01*
X453947Y855064D01*
X453961Y855082D01*
X453977Y855096D01*
X454087Y855239D01*
X454199Y855378D01*
X454209Y855398D01*
X454223Y855416D01*
X454374Y855711D01*
X454527Y856080D01*
X457100Y858653D01*
X460461Y860045D01*
X479339Y860045D01*
X482700Y858653D01*
X485273Y856080D01*
X486665Y852719D01*
X486665Y849081D01*
X485273Y845720D01*
X482700Y843147D01*
X479339Y841755D01*
X460461Y841755D01*
G37*
%LPD*%
%LPC*%
G36*
X592397Y707493D02*
X592397Y707493D01*
X586593Y713297D01*
X586593Y721503D01*
X592397Y727307D01*
X594035Y727307D01*
X594062Y727309D01*
X594089Y727307D01*
X594263Y727329D01*
X594436Y727347D01*
X594461Y727354D01*
X594488Y727358D01*
X594654Y727413D01*
X594795Y727457D01*
X719110Y727457D01*
X719137Y727459D01*
X719164Y727457D01*
X719338Y727479D01*
X719511Y727497D01*
X719537Y727504D01*
X719563Y727508D01*
X719729Y727563D01*
X719896Y727615D01*
X719920Y727628D01*
X719945Y727636D01*
X720097Y727723D01*
X720250Y727807D01*
X720271Y727824D01*
X720294Y727837D01*
X720547Y728052D01*
X720894Y728399D01*
X722844Y729207D01*
X724956Y729207D01*
X726906Y728399D01*
X728399Y726906D01*
X729207Y724956D01*
X729207Y722844D01*
X728399Y720894D01*
X726906Y719401D01*
X724956Y718593D01*
X722844Y718593D01*
X720894Y719401D01*
X720547Y719748D01*
X720526Y719765D01*
X720509Y719786D01*
X720371Y719893D01*
X720235Y720003D01*
X720212Y720016D01*
X720191Y720032D01*
X720034Y720110D01*
X719880Y720192D01*
X719854Y720200D01*
X719830Y720212D01*
X719661Y720257D01*
X719494Y720307D01*
X719467Y720309D01*
X719441Y720316D01*
X719110Y720343D01*
X608438Y720343D01*
X608420Y720341D01*
X608402Y720343D01*
X608220Y720322D01*
X608037Y720303D01*
X608020Y720298D01*
X608003Y720296D01*
X607828Y720239D01*
X607652Y720185D01*
X607637Y720177D01*
X607620Y720171D01*
X607460Y720081D01*
X607298Y719993D01*
X607285Y719982D01*
X607269Y719973D01*
X607130Y719853D01*
X606989Y719736D01*
X606978Y719722D01*
X606964Y719710D01*
X606852Y719565D01*
X606737Y719422D01*
X606729Y719406D01*
X606718Y719392D01*
X606636Y719227D01*
X606551Y719065D01*
X606546Y719048D01*
X606538Y719032D01*
X606491Y718853D01*
X606440Y718678D01*
X606438Y718660D01*
X606434Y718643D01*
X606407Y718312D01*
X606407Y713297D01*
X600603Y707493D01*
X592397Y707493D01*
G37*
%LPD*%
%LPC*%
G36*
X688088Y427395D02*
X688088Y427395D01*
X687195Y428288D01*
X687195Y460712D01*
X688088Y461605D01*
X720512Y461605D01*
X721405Y460712D01*
X721405Y428288D01*
X720512Y427395D01*
X688088Y427395D01*
G37*
%LPD*%
%LPC*%
G36*
X384388Y719495D02*
X384388Y719495D01*
X383495Y720388D01*
X383495Y752812D01*
X384388Y753705D01*
X416812Y753705D01*
X417705Y752812D01*
X417705Y720388D01*
X416812Y719495D01*
X384388Y719495D01*
G37*
%LPD*%
%LPC*%
G36*
X600288Y541695D02*
X600288Y541695D01*
X599395Y542588D01*
X599395Y575012D01*
X600288Y575905D01*
X632712Y575905D01*
X633605Y575012D01*
X633605Y542588D01*
X632712Y541695D01*
X600288Y541695D01*
G37*
%LPD*%
%LPC*%
G36*
X40388Y490895D02*
X40388Y490895D01*
X39495Y491788D01*
X39495Y524212D01*
X40388Y525105D01*
X72812Y525105D01*
X73705Y524212D01*
X73705Y491788D01*
X72812Y490895D01*
X40388Y490895D01*
G37*
%LPD*%
%LPC*%
G36*
X130388Y490895D02*
X130388Y490895D01*
X129495Y491788D01*
X129495Y524212D01*
X130388Y525105D01*
X162812Y525105D01*
X163705Y524212D01*
X163705Y491788D01*
X162812Y490895D01*
X130388Y490895D01*
G37*
%LPD*%
%LPC*%
G36*
X294388Y490895D02*
X294388Y490895D01*
X293495Y491788D01*
X293495Y524212D01*
X294388Y525105D01*
X326812Y525105D01*
X327705Y524212D01*
X327705Y491788D01*
X326812Y490895D01*
X294388Y490895D01*
G37*
%LPD*%
%LPC*%
G36*
X688088Y655995D02*
X688088Y655995D01*
X687195Y656888D01*
X687195Y689312D01*
X688088Y690205D01*
X720512Y690205D01*
X721405Y689312D01*
X721405Y656888D01*
X720512Y655995D01*
X688088Y655995D01*
G37*
%LPD*%
%LPC*%
G36*
X384388Y490895D02*
X384388Y490895D01*
X383495Y491788D01*
X383495Y524212D01*
X384388Y525105D01*
X416812Y525105D01*
X417705Y524212D01*
X417705Y491788D01*
X416812Y490895D01*
X384388Y490895D01*
G37*
%LPD*%
%LPC*%
G36*
X294388Y719495D02*
X294388Y719495D01*
X293495Y720388D01*
X293495Y752812D01*
X294388Y753705D01*
X326812Y753705D01*
X327705Y752812D01*
X327705Y720388D01*
X326812Y719495D01*
X294388Y719495D01*
G37*
%LPD*%
%LPC*%
G36*
X510288Y541695D02*
X510288Y541695D01*
X509395Y542588D01*
X509395Y575012D01*
X510288Y575905D01*
X542712Y575905D01*
X543605Y575012D01*
X543605Y542588D01*
X542712Y541695D01*
X510288Y541695D01*
G37*
%LPD*%
%LPC*%
G36*
X130388Y719495D02*
X130388Y719495D01*
X129495Y720388D01*
X129495Y752812D01*
X130388Y753705D01*
X162812Y753705D01*
X163705Y752812D01*
X163705Y720388D01*
X162812Y719495D01*
X130388Y719495D01*
G37*
%LPD*%
%LPC*%
G36*
X40388Y719495D02*
X40388Y719495D01*
X39495Y720388D01*
X39495Y752812D01*
X40388Y753705D01*
X72812Y753705D01*
X73705Y752812D01*
X73705Y720388D01*
X72812Y719495D01*
X40388Y719495D01*
G37*
%LPD*%
%LPC*%
G36*
X600288Y770295D02*
X600288Y770295D01*
X599395Y771188D01*
X599395Y803612D01*
X600288Y804505D01*
X632712Y804505D01*
X633605Y803612D01*
X633605Y771188D01*
X632712Y770295D01*
X600288Y770295D01*
G37*
%LPD*%
%LPC*%
G36*
X510288Y770295D02*
X510288Y770295D01*
X509395Y771188D01*
X509395Y803612D01*
X510288Y804505D01*
X542712Y804505D01*
X543605Y803612D01*
X543605Y771188D01*
X542712Y770295D01*
X510288Y770295D01*
G37*
%LPD*%
%LPC*%
G36*
X429905Y625474D02*
X429905Y625474D01*
X426404Y626924D01*
X423724Y629604D01*
X423482Y630189D01*
X423472Y630209D01*
X423465Y630230D01*
X423376Y630386D01*
X423292Y630544D01*
X423278Y630561D01*
X423267Y630581D01*
X423150Y630716D01*
X423035Y630855D01*
X423018Y630869D01*
X423004Y630886D01*
X422862Y630995D01*
X422723Y631108D01*
X422703Y631119D01*
X422685Y631132D01*
X422525Y631212D01*
X422366Y631295D01*
X422345Y631302D01*
X422325Y631312D01*
X422151Y631358D01*
X421980Y631408D01*
X421958Y631410D01*
X421936Y631416D01*
X421605Y631443D01*
X379527Y631443D01*
X354872Y656098D01*
X354851Y656115D01*
X354833Y656136D01*
X354696Y656243D01*
X354560Y656353D01*
X354537Y656366D01*
X354515Y656382D01*
X354358Y656460D01*
X354204Y656542D01*
X354179Y656550D01*
X354155Y656562D01*
X353985Y656607D01*
X353819Y656657D01*
X353792Y656659D01*
X353766Y656666D01*
X353435Y656693D01*
X351497Y656693D01*
X345693Y662497D01*
X345693Y670703D01*
X351497Y676507D01*
X359703Y676507D01*
X365507Y670703D01*
X365507Y662497D01*
X363456Y660446D01*
X363445Y660432D01*
X363431Y660421D01*
X363318Y660277D01*
X363201Y660135D01*
X363193Y660119D01*
X363182Y660105D01*
X363099Y659941D01*
X363013Y659779D01*
X363008Y659762D01*
X363000Y659746D01*
X362950Y659569D01*
X362898Y659393D01*
X362896Y659375D01*
X362892Y659358D01*
X362878Y659175D01*
X362862Y658992D01*
X362863Y658974D01*
X362862Y658957D01*
X362885Y658774D01*
X362905Y658592D01*
X362910Y658575D01*
X362913Y658557D01*
X362971Y658383D01*
X363026Y658208D01*
X363035Y658192D01*
X363041Y658175D01*
X363133Y658016D01*
X363221Y657856D01*
X363233Y657842D01*
X363242Y657827D01*
X363456Y657574D01*
X381878Y639152D01*
X381899Y639135D01*
X381917Y639114D01*
X382054Y639007D01*
X382190Y638897D01*
X382213Y638884D01*
X382235Y638868D01*
X382392Y638790D01*
X382546Y638708D01*
X382571Y638700D01*
X382595Y638688D01*
X382765Y638643D01*
X382931Y638593D01*
X382958Y638591D01*
X382984Y638584D01*
X383315Y638557D01*
X421605Y638557D01*
X421628Y638559D01*
X421650Y638557D01*
X421827Y638579D01*
X422006Y638597D01*
X422027Y638603D01*
X422050Y638606D01*
X422219Y638662D01*
X422391Y638715D01*
X422411Y638725D01*
X422432Y638732D01*
X422587Y638821D01*
X422745Y638907D01*
X422762Y638921D01*
X422781Y638932D01*
X422917Y639050D01*
X423054Y639164D01*
X423068Y639182D01*
X423085Y639196D01*
X423194Y639338D01*
X423307Y639478D01*
X423317Y639498D01*
X423330Y639516D01*
X423482Y639811D01*
X423724Y640396D01*
X426404Y643076D01*
X429905Y644526D01*
X433695Y644526D01*
X437196Y643076D01*
X439876Y640396D01*
X441326Y636895D01*
X441326Y633105D01*
X439876Y629604D01*
X437196Y626924D01*
X433695Y625474D01*
X429905Y625474D01*
G37*
%LPD*%
%LPC*%
G36*
X278344Y820193D02*
X278344Y820193D01*
X276394Y821001D01*
X274901Y822494D01*
X274322Y823893D01*
X274307Y823920D01*
X274297Y823950D01*
X274212Y824098D01*
X274132Y824248D01*
X274112Y824272D01*
X274096Y824299D01*
X273881Y824552D01*
X252701Y845732D01*
X252680Y845749D01*
X252663Y845770D01*
X252525Y845877D01*
X252389Y845987D01*
X252366Y846000D01*
X252345Y846016D01*
X252188Y846094D01*
X252034Y846176D01*
X252008Y846184D01*
X251984Y846196D01*
X251815Y846241D01*
X251648Y846291D01*
X251621Y846293D01*
X251595Y846300D01*
X251265Y846327D01*
X245421Y846327D01*
X245395Y846325D01*
X245368Y846327D01*
X245194Y846305D01*
X245021Y846287D01*
X244995Y846280D01*
X244968Y846276D01*
X244803Y846220D01*
X244636Y846169D01*
X244612Y846156D01*
X244587Y846148D01*
X244436Y846061D01*
X244282Y845977D01*
X244261Y845960D01*
X244238Y845947D01*
X243985Y845732D01*
X241400Y843147D01*
X238039Y841755D01*
X219161Y841755D01*
X215800Y843147D01*
X213227Y845720D01*
X211835Y849081D01*
X211835Y852719D01*
X213227Y856080D01*
X215800Y858653D01*
X219161Y860045D01*
X238039Y860045D01*
X241400Y858653D01*
X243985Y856068D01*
X244006Y856051D01*
X244023Y856030D01*
X244161Y855923D01*
X244296Y855813D01*
X244320Y855800D01*
X244341Y855784D01*
X244498Y855706D01*
X244652Y855624D01*
X244678Y855616D01*
X244702Y855604D01*
X244871Y855559D01*
X245038Y855509D01*
X245065Y855507D01*
X245091Y855500D01*
X245421Y855473D01*
X254910Y855473D01*
X256590Y854777D01*
X280348Y831019D01*
X280372Y830999D01*
X280393Y830975D01*
X280528Y830871D01*
X280660Y830763D01*
X280687Y830749D01*
X280712Y830730D01*
X281007Y830578D01*
X282406Y829999D01*
X283899Y828506D01*
X284707Y826556D01*
X284707Y824444D01*
X283899Y822494D01*
X282406Y821001D01*
X280456Y820193D01*
X278344Y820193D01*
G37*
%LPD*%
%LPC*%
G36*
X479233Y398271D02*
X479233Y398271D01*
X474471Y403033D01*
X474471Y409767D01*
X478448Y413744D01*
X478465Y413765D01*
X478486Y413782D01*
X478593Y413920D01*
X478703Y414056D01*
X478716Y414079D01*
X478732Y414100D01*
X478810Y414257D01*
X478892Y414411D01*
X478900Y414437D01*
X478912Y414461D01*
X478957Y414630D01*
X479007Y414797D01*
X479009Y414824D01*
X479016Y414850D01*
X479043Y415180D01*
X479043Y429485D01*
X479041Y429512D01*
X479043Y429539D01*
X479021Y429713D01*
X479003Y429886D01*
X478996Y429912D01*
X478992Y429938D01*
X478937Y430104D01*
X478885Y430271D01*
X478872Y430295D01*
X478864Y430320D01*
X478777Y430471D01*
X478693Y430625D01*
X478676Y430645D01*
X478663Y430669D01*
X478448Y430922D01*
X453643Y455727D01*
X453643Y473820D01*
X453641Y473846D01*
X453643Y473873D01*
X453621Y474047D01*
X453603Y474220D01*
X453596Y474246D01*
X453592Y474272D01*
X453537Y474438D01*
X453485Y474605D01*
X453472Y474629D01*
X453464Y474654D01*
X453377Y474806D01*
X453293Y474959D01*
X453276Y474980D01*
X453263Y475003D01*
X453048Y475256D01*
X449071Y479233D01*
X449071Y485967D01*
X453833Y490729D01*
X460567Y490729D01*
X465329Y485967D01*
X465329Y479233D01*
X461352Y475256D01*
X461335Y475235D01*
X461314Y475218D01*
X461207Y475080D01*
X461097Y474944D01*
X461084Y474921D01*
X461068Y474900D01*
X460990Y474743D01*
X460908Y474589D01*
X460900Y474563D01*
X460888Y474539D01*
X460843Y474370D01*
X460793Y474203D01*
X460791Y474176D01*
X460784Y474150D01*
X460757Y473820D01*
X460757Y459515D01*
X460759Y459488D01*
X460757Y459461D01*
X460779Y459287D01*
X460797Y459114D01*
X460804Y459089D01*
X460808Y459062D01*
X460863Y458896D01*
X460915Y458729D01*
X460928Y458706D01*
X460936Y458680D01*
X461023Y458529D01*
X461107Y458375D01*
X461124Y458355D01*
X461137Y458331D01*
X461352Y458078D01*
X483478Y435952D01*
X486157Y433273D01*
X486157Y415180D01*
X486159Y415154D01*
X486157Y415127D01*
X486179Y414953D01*
X486197Y414780D01*
X486204Y414754D01*
X486208Y414728D01*
X486263Y414562D01*
X486315Y414395D01*
X486328Y414371D01*
X486336Y414346D01*
X486423Y414194D01*
X486507Y414041D01*
X486524Y414020D01*
X486537Y413997D01*
X486752Y413744D01*
X490729Y409767D01*
X490729Y403033D01*
X485967Y398271D01*
X479233Y398271D01*
G37*
%LPD*%
%LPC*%
G36*
X427854Y600074D02*
X427854Y600074D01*
X422274Y605654D01*
X422274Y613546D01*
X427854Y619126D01*
X435746Y619126D01*
X441120Y613752D01*
X441140Y613735D01*
X441158Y613714D01*
X441296Y613607D01*
X441431Y613497D01*
X441455Y613484D01*
X441476Y613468D01*
X441633Y613390D01*
X441787Y613308D01*
X441812Y613300D01*
X441837Y613288D01*
X442006Y613243D01*
X442173Y613193D01*
X442199Y613191D01*
X442225Y613184D01*
X442556Y613157D01*
X477810Y613157D01*
X477837Y613159D01*
X477864Y613157D01*
X478038Y613179D01*
X478211Y613197D01*
X478237Y613204D01*
X478263Y613208D01*
X478429Y613263D01*
X478596Y613315D01*
X478620Y613328D01*
X478645Y613336D01*
X478797Y613423D01*
X478950Y613507D01*
X478971Y613524D01*
X478994Y613537D01*
X479247Y613752D01*
X479594Y614099D01*
X481544Y614907D01*
X483656Y614907D01*
X485606Y614099D01*
X487099Y612606D01*
X487907Y610656D01*
X487907Y608544D01*
X487099Y606594D01*
X485606Y605101D01*
X483656Y604293D01*
X481544Y604293D01*
X479594Y605101D01*
X479247Y605448D01*
X479226Y605465D01*
X479209Y605486D01*
X479071Y605593D01*
X478935Y605703D01*
X478912Y605716D01*
X478891Y605732D01*
X478734Y605810D01*
X478580Y605892D01*
X478554Y605900D01*
X478530Y605912D01*
X478361Y605957D01*
X478194Y606007D01*
X478167Y606009D01*
X478141Y606016D01*
X477810Y606043D01*
X442556Y606043D01*
X442529Y606041D01*
X442503Y606043D01*
X442329Y606021D01*
X442155Y606003D01*
X442130Y605996D01*
X442103Y605992D01*
X441938Y605937D01*
X441771Y605885D01*
X441747Y605872D01*
X441722Y605864D01*
X441570Y605777D01*
X441416Y605693D01*
X441396Y605676D01*
X441373Y605663D01*
X441120Y605448D01*
X435746Y600074D01*
X427854Y600074D01*
G37*
%LPD*%
%LPC*%
G36*
X219161Y790955D02*
X219161Y790955D01*
X215800Y792347D01*
X213227Y794920D01*
X211835Y798281D01*
X211835Y801919D01*
X213227Y805280D01*
X215800Y807853D01*
X217604Y808600D01*
X217605Y808600D01*
X219161Y809245D01*
X238039Y809245D01*
X241400Y807853D01*
X243973Y805280D01*
X245365Y801919D01*
X245365Y798281D01*
X243973Y794920D01*
X241400Y792347D01*
X238039Y790955D01*
X219161Y790955D01*
G37*
%LPD*%
%LPC*%
G36*
X460461Y790955D02*
X460461Y790955D01*
X457100Y792347D01*
X454527Y794920D01*
X453135Y798281D01*
X453135Y801919D01*
X454527Y805280D01*
X457100Y807853D01*
X458904Y808600D01*
X458905Y808600D01*
X460461Y809245D01*
X479339Y809245D01*
X482700Y807853D01*
X485273Y805280D01*
X486665Y801919D01*
X486665Y798281D01*
X485273Y794920D01*
X482700Y792347D01*
X479339Y790955D01*
X460461Y790955D01*
G37*
%LPD*%
%LPC*%
G36*
X460461Y765555D02*
X460461Y765555D01*
X457100Y766947D01*
X454527Y769520D01*
X453135Y772881D01*
X453135Y776519D01*
X454527Y779880D01*
X457100Y782453D01*
X460461Y783845D01*
X479339Y783845D01*
X482700Y782453D01*
X485273Y779880D01*
X486665Y776519D01*
X486665Y772881D01*
X485273Y769520D01*
X482700Y766947D01*
X479514Y765628D01*
X479339Y765555D01*
X460461Y765555D01*
G37*
%LPD*%
%LPC*%
G36*
X733233Y258571D02*
X733233Y258571D01*
X728471Y263333D01*
X728471Y270067D01*
X733233Y274829D01*
X739967Y274829D01*
X743944Y270852D01*
X743965Y270835D01*
X743982Y270814D01*
X744120Y270707D01*
X744256Y270597D01*
X744279Y270584D01*
X744300Y270568D01*
X744457Y270490D01*
X744611Y270408D01*
X744637Y270400D01*
X744661Y270388D01*
X744830Y270343D01*
X744997Y270293D01*
X745024Y270291D01*
X745050Y270284D01*
X745380Y270257D01*
X753220Y270257D01*
X753246Y270259D01*
X753273Y270257D01*
X753447Y270279D01*
X753620Y270297D01*
X753646Y270304D01*
X753672Y270308D01*
X753838Y270363D01*
X754005Y270415D01*
X754029Y270428D01*
X754054Y270436D01*
X754206Y270523D01*
X754359Y270607D01*
X754380Y270624D01*
X754403Y270637D01*
X754656Y270852D01*
X758633Y274829D01*
X765367Y274829D01*
X770129Y270067D01*
X770129Y263333D01*
X765367Y258571D01*
X758633Y258571D01*
X754656Y262548D01*
X754635Y262565D01*
X754618Y262586D01*
X754480Y262693D01*
X754344Y262803D01*
X754321Y262816D01*
X754300Y262832D01*
X754143Y262910D01*
X753989Y262992D01*
X753963Y263000D01*
X753939Y263012D01*
X753770Y263057D01*
X753603Y263107D01*
X753576Y263109D01*
X753550Y263116D01*
X753220Y263143D01*
X745380Y263143D01*
X745354Y263141D01*
X745327Y263143D01*
X745153Y263121D01*
X744980Y263103D01*
X744954Y263096D01*
X744928Y263092D01*
X744762Y263037D01*
X744595Y262985D01*
X744571Y262972D01*
X744546Y262964D01*
X744394Y262877D01*
X744241Y262793D01*
X744220Y262776D01*
X744197Y262763D01*
X743944Y262548D01*
X739967Y258571D01*
X733233Y258571D01*
G37*
%LPD*%
%LPC*%
G36*
X199833Y398271D02*
X199833Y398271D01*
X195071Y403033D01*
X195071Y409767D01*
X199833Y414529D01*
X206567Y414529D01*
X210544Y410552D01*
X210565Y410535D01*
X210582Y410514D01*
X210720Y410407D01*
X210856Y410297D01*
X210879Y410284D01*
X210900Y410268D01*
X211057Y410190D01*
X211211Y410108D01*
X211237Y410100D01*
X211261Y410088D01*
X211430Y410043D01*
X211597Y409993D01*
X211624Y409991D01*
X211650Y409984D01*
X211980Y409957D01*
X219820Y409957D01*
X219846Y409959D01*
X219873Y409957D01*
X220047Y409979D01*
X220220Y409997D01*
X220246Y410004D01*
X220272Y410008D01*
X220438Y410063D01*
X220605Y410115D01*
X220629Y410128D01*
X220654Y410136D01*
X220806Y410223D01*
X220959Y410307D01*
X220980Y410324D01*
X221003Y410337D01*
X221256Y410552D01*
X225233Y414529D01*
X231967Y414529D01*
X236729Y409767D01*
X236729Y403033D01*
X231967Y398271D01*
X225233Y398271D01*
X221256Y402248D01*
X221235Y402265D01*
X221218Y402286D01*
X221080Y402393D01*
X220944Y402503D01*
X220921Y402516D01*
X220900Y402532D01*
X220743Y402610D01*
X220589Y402692D01*
X220563Y402700D01*
X220539Y402712D01*
X220370Y402757D01*
X220203Y402807D01*
X220176Y402809D01*
X220150Y402816D01*
X219820Y402843D01*
X211980Y402843D01*
X211954Y402841D01*
X211927Y402843D01*
X211753Y402821D01*
X211580Y402803D01*
X211554Y402796D01*
X211528Y402792D01*
X211362Y402737D01*
X211195Y402685D01*
X211171Y402672D01*
X211146Y402664D01*
X210994Y402577D01*
X210841Y402493D01*
X210820Y402476D01*
X210797Y402463D01*
X210544Y402248D01*
X206567Y398271D01*
X199833Y398271D01*
G37*
%LPD*%
%LPC*%
G36*
X430183Y163067D02*
X430183Y163067D01*
X427195Y164305D01*
X424909Y166591D01*
X423671Y169579D01*
X423671Y186021D01*
X424909Y189009D01*
X427195Y191295D01*
X430183Y192533D01*
X433417Y192533D01*
X436405Y191295D01*
X438691Y189009D01*
X439929Y186021D01*
X439929Y169579D01*
X438691Y166591D01*
X436405Y164305D01*
X433417Y163067D01*
X430183Y163067D01*
G37*
%LPD*%
%LPC*%
G36*
X563279Y652271D02*
X563279Y652271D01*
X560291Y653509D01*
X558005Y655795D01*
X556767Y658783D01*
X556767Y662017D01*
X558005Y665005D01*
X560291Y667291D01*
X563279Y668529D01*
X579721Y668529D01*
X582709Y667291D01*
X584995Y665005D01*
X586233Y662017D01*
X586233Y658783D01*
X584995Y655795D01*
X582709Y653509D01*
X579721Y652271D01*
X563279Y652271D01*
G37*
%LPD*%
%LPC*%
G36*
X677579Y360171D02*
X677579Y360171D01*
X674591Y361409D01*
X672305Y363695D01*
X671067Y366683D01*
X671067Y369917D01*
X672305Y372905D01*
X674591Y375191D01*
X677579Y376429D01*
X694021Y376429D01*
X697009Y375191D01*
X699295Y372905D01*
X700533Y369917D01*
X700533Y366683D01*
X699295Y363695D01*
X697009Y361409D01*
X694021Y360171D01*
X677579Y360171D01*
G37*
%LPD*%
%LPC*%
G36*
X226983Y124967D02*
X226983Y124967D01*
X223995Y126205D01*
X221709Y128491D01*
X220471Y131479D01*
X220471Y147921D01*
X221709Y150909D01*
X223995Y153195D01*
X226983Y154433D01*
X230217Y154433D01*
X233205Y153195D01*
X235491Y150909D01*
X236729Y147921D01*
X236729Y131479D01*
X235491Y128491D01*
X233205Y126205D01*
X230217Y124967D01*
X226983Y124967D01*
G37*
%LPD*%
%LPC*%
G36*
X487079Y652271D02*
X487079Y652271D01*
X484091Y653509D01*
X481805Y655795D01*
X480567Y658783D01*
X480567Y662017D01*
X481805Y665005D01*
X484091Y667291D01*
X487079Y668529D01*
X503521Y668529D01*
X506509Y667291D01*
X508795Y665005D01*
X510033Y662017D01*
X510033Y658783D01*
X508795Y655795D01*
X506509Y653509D01*
X503521Y652271D01*
X487079Y652271D01*
G37*
%LPD*%
%LPC*%
G36*
X480983Y124967D02*
X480983Y124967D01*
X477995Y126205D01*
X475709Y128491D01*
X474471Y131479D01*
X474471Y147921D01*
X475709Y150909D01*
X477995Y153195D01*
X480983Y154433D01*
X484217Y154433D01*
X487205Y153195D01*
X489491Y150909D01*
X490729Y147921D01*
X490729Y131479D01*
X489491Y128491D01*
X487205Y126205D01*
X484217Y124967D01*
X480983Y124967D01*
G37*
%LPD*%
%LPC*%
G36*
X176183Y239267D02*
X176183Y239267D01*
X173195Y240505D01*
X170909Y242791D01*
X169671Y245779D01*
X169671Y262221D01*
X170909Y265209D01*
X173195Y267495D01*
X176183Y268733D01*
X179417Y268733D01*
X182405Y267495D01*
X184691Y265209D01*
X185929Y262221D01*
X185929Y245779D01*
X184691Y242791D01*
X182405Y240505D01*
X180061Y239534D01*
X179417Y239267D01*
X176183Y239267D01*
G37*
%LPD*%
%LPC*%
G36*
X430183Y239267D02*
X430183Y239267D01*
X427195Y240505D01*
X424909Y242791D01*
X423671Y245779D01*
X423671Y262221D01*
X424909Y265209D01*
X427195Y267495D01*
X430183Y268733D01*
X433417Y268733D01*
X436405Y267495D01*
X438691Y265209D01*
X439929Y262221D01*
X439929Y245779D01*
X438691Y242791D01*
X436405Y240505D01*
X434061Y239534D01*
X433417Y239267D01*
X430183Y239267D01*
G37*
%LPD*%
%LPC*%
G36*
X430744Y223293D02*
X430744Y223293D01*
X428794Y224101D01*
X427301Y225594D01*
X426493Y227544D01*
X426493Y229656D01*
X427301Y231606D01*
X428794Y233099D01*
X430744Y233907D01*
X432856Y233907D01*
X434806Y233099D01*
X435153Y232752D01*
X435174Y232735D01*
X435191Y232714D01*
X435329Y232607D01*
X435465Y232497D01*
X435488Y232484D01*
X435509Y232468D01*
X435666Y232390D01*
X435820Y232308D01*
X435846Y232300D01*
X435870Y232288D01*
X436039Y232243D01*
X436206Y232193D01*
X436233Y232191D01*
X436259Y232184D01*
X436590Y232157D01*
X454885Y232157D01*
X454912Y232159D01*
X454939Y232157D01*
X455113Y232179D01*
X455286Y232197D01*
X455311Y232204D01*
X455338Y232208D01*
X455504Y232263D01*
X455671Y232315D01*
X455694Y232328D01*
X455720Y232336D01*
X455871Y232423D01*
X456025Y232507D01*
X456045Y232524D01*
X456069Y232537D01*
X456322Y232752D01*
X463998Y240428D01*
X464015Y240449D01*
X464036Y240467D01*
X464143Y240604D01*
X464253Y240740D01*
X464266Y240763D01*
X464282Y240785D01*
X464360Y240942D01*
X464442Y241096D01*
X464450Y241121D01*
X464462Y241145D01*
X464507Y241315D01*
X464557Y241481D01*
X464559Y241508D01*
X464566Y241534D01*
X464593Y241865D01*
X464593Y242356D01*
X465401Y244306D01*
X466894Y245799D01*
X467244Y245944D01*
X468844Y246607D01*
X470956Y246607D01*
X472906Y245799D01*
X474399Y244306D01*
X475207Y242356D01*
X475207Y240244D01*
X474399Y238294D01*
X472906Y236801D01*
X470956Y235993D01*
X470465Y235993D01*
X470438Y235991D01*
X470411Y235993D01*
X470237Y235971D01*
X470064Y235953D01*
X470039Y235946D01*
X470012Y235942D01*
X469846Y235887D01*
X469679Y235835D01*
X469656Y235822D01*
X469630Y235814D01*
X469479Y235727D01*
X469325Y235643D01*
X469305Y235626D01*
X469281Y235613D01*
X469028Y235398D01*
X458673Y225043D01*
X436590Y225043D01*
X436563Y225041D01*
X436536Y225043D01*
X436362Y225021D01*
X436189Y225003D01*
X436163Y224996D01*
X436137Y224992D01*
X435971Y224937D01*
X435804Y224885D01*
X435780Y224872D01*
X435755Y224864D01*
X435603Y224777D01*
X435450Y224693D01*
X435429Y224676D01*
X435406Y224663D01*
X435153Y224448D01*
X434806Y224101D01*
X432856Y223293D01*
X430744Y223293D01*
G37*
%LPD*%
%LPC*%
G36*
X67586Y428093D02*
X67586Y428093D01*
X66693Y428986D01*
X66693Y447014D01*
X67586Y447907D01*
X85614Y447907D01*
X86507Y447014D01*
X86507Y428986D01*
X85614Y428093D01*
X67586Y428093D01*
G37*
%LPD*%
%LPC*%
G36*
X321586Y656693D02*
X321586Y656693D01*
X320693Y657586D01*
X320693Y675614D01*
X321586Y676507D01*
X339614Y676507D01*
X340507Y675614D01*
X340507Y657586D01*
X339614Y656693D01*
X321586Y656693D01*
G37*
%LPD*%
%LPC*%
G36*
X67586Y656693D02*
X67586Y656693D01*
X66693Y657586D01*
X66693Y675614D01*
X67586Y676507D01*
X85614Y676507D01*
X86507Y675614D01*
X86507Y657586D01*
X85614Y656693D01*
X67586Y656693D01*
G37*
%LPD*%
%LPC*%
G36*
X537486Y707493D02*
X537486Y707493D01*
X536593Y708386D01*
X536593Y726414D01*
X537486Y727307D01*
X555514Y727307D01*
X556407Y726414D01*
X556407Y708386D01*
X555514Y707493D01*
X537486Y707493D01*
G37*
%LPD*%
%LPC*%
G36*
X321586Y428093D02*
X321586Y428093D01*
X320693Y428986D01*
X320693Y447014D01*
X321586Y447907D01*
X339614Y447907D01*
X340507Y447014D01*
X340507Y428986D01*
X339614Y428093D01*
X321586Y428093D01*
G37*
%LPD*%
%LPC*%
G36*
X715286Y593193D02*
X715286Y593193D01*
X714393Y594086D01*
X714393Y612114D01*
X715286Y613007D01*
X733314Y613007D01*
X734207Y612114D01*
X734207Y594086D01*
X733314Y593193D01*
X715286Y593193D01*
G37*
%LPD*%
%LPC*%
G36*
X715286Y364593D02*
X715286Y364593D01*
X714393Y365486D01*
X714393Y383514D01*
X715286Y384407D01*
X733314Y384407D01*
X734207Y383514D01*
X734207Y365486D01*
X733314Y364593D01*
X715286Y364593D01*
G37*
%LPD*%
%LPC*%
G36*
X537486Y478893D02*
X537486Y478893D01*
X536593Y479786D01*
X536593Y497814D01*
X537486Y498707D01*
X555514Y498707D01*
X556407Y497814D01*
X556407Y479786D01*
X555514Y478893D01*
X537486Y478893D01*
G37*
%LPD*%
%LPC*%
G36*
X760495Y138795D02*
X760495Y138795D01*
X757715Y139947D01*
X755587Y142075D01*
X754435Y144855D01*
X754435Y159945D01*
X755587Y162725D01*
X757715Y164853D01*
X760495Y166005D01*
X763505Y166005D01*
X766285Y164853D01*
X768413Y162725D01*
X769565Y159945D01*
X769565Y144855D01*
X768413Y142075D01*
X766285Y139947D01*
X763505Y138795D01*
X760495Y138795D01*
G37*
%LPD*%
%LPC*%
G36*
X760495Y214995D02*
X760495Y214995D01*
X757715Y216147D01*
X755587Y218275D01*
X754435Y221055D01*
X754435Y236145D01*
X755587Y238925D01*
X757715Y241053D01*
X760495Y242205D01*
X763505Y242205D01*
X766285Y241053D01*
X768413Y238925D01*
X769565Y236145D01*
X769565Y221055D01*
X768413Y218275D01*
X766285Y216147D01*
X763505Y214995D01*
X760495Y214995D01*
G37*
%LPD*%
%LPC*%
G36*
X735095Y214995D02*
X735095Y214995D01*
X732315Y216147D01*
X730187Y218275D01*
X729035Y221055D01*
X729035Y236145D01*
X730187Y238925D01*
X732315Y241053D01*
X735095Y242205D01*
X738105Y242205D01*
X740885Y241053D01*
X743013Y238925D01*
X744165Y236145D01*
X744165Y221055D01*
X743013Y218275D01*
X740885Y216147D01*
X738105Y214995D01*
X735095Y214995D01*
G37*
%LPD*%
%LPC*%
G36*
X785895Y138795D02*
X785895Y138795D01*
X783115Y139947D01*
X780987Y142075D01*
X779835Y144855D01*
X779835Y159945D01*
X780987Y162725D01*
X783115Y164853D01*
X785895Y166005D01*
X788905Y166005D01*
X791685Y164853D01*
X793813Y162725D01*
X794965Y159945D01*
X794965Y144855D01*
X793813Y142075D01*
X791685Y139947D01*
X788905Y138795D01*
X785895Y138795D01*
G37*
%LPD*%
%LPC*%
G36*
X455695Y354695D02*
X455695Y354695D01*
X452915Y355847D01*
X450787Y357975D01*
X449635Y360755D01*
X449635Y375845D01*
X450787Y378625D01*
X452915Y380753D01*
X455695Y381905D01*
X458705Y381905D01*
X461485Y380753D01*
X463613Y378625D01*
X464765Y375845D01*
X464765Y360755D01*
X463613Y357975D01*
X461485Y355847D01*
X460201Y355315D01*
X458705Y354695D01*
X455695Y354695D01*
G37*
%LPD*%
%LPC*%
G36*
X201695Y354695D02*
X201695Y354695D01*
X198915Y355847D01*
X196787Y357975D01*
X195635Y360755D01*
X195635Y375845D01*
X196787Y378625D01*
X198915Y380753D01*
X201695Y381905D01*
X204705Y381905D01*
X207485Y380753D01*
X209613Y378625D01*
X210765Y375845D01*
X210765Y360755D01*
X209613Y357975D01*
X207485Y355847D01*
X206201Y355315D01*
X204705Y354695D01*
X201695Y354695D01*
G37*
%LPD*%
%LPC*%
G36*
X176295Y354695D02*
X176295Y354695D01*
X173515Y355847D01*
X171387Y357975D01*
X170235Y360755D01*
X170235Y375845D01*
X171387Y378625D01*
X173515Y380753D01*
X176295Y381905D01*
X179305Y381905D01*
X182085Y380753D01*
X184213Y378625D01*
X185365Y375845D01*
X185365Y360755D01*
X184213Y357975D01*
X182085Y355847D01*
X180801Y355315D01*
X179305Y354695D01*
X176295Y354695D01*
G37*
%LPD*%
%LPC*%
G36*
X227095Y354695D02*
X227095Y354695D01*
X224315Y355847D01*
X222187Y357975D01*
X221035Y360755D01*
X221035Y375845D01*
X222187Y378625D01*
X224315Y380753D01*
X227095Y381905D01*
X230105Y381905D01*
X232885Y380753D01*
X235013Y378625D01*
X236165Y375845D01*
X236165Y360755D01*
X235013Y357975D01*
X232885Y355847D01*
X231601Y355315D01*
X230105Y354695D01*
X227095Y354695D01*
G37*
%LPD*%
%LPC*%
G36*
X481095Y354695D02*
X481095Y354695D01*
X478315Y355847D01*
X476187Y357975D01*
X475035Y360755D01*
X475035Y375845D01*
X476187Y378625D01*
X478315Y380753D01*
X481095Y381905D01*
X484105Y381905D01*
X486885Y380753D01*
X489013Y378625D01*
X490165Y375845D01*
X490165Y360755D01*
X489013Y357975D01*
X486885Y355847D01*
X485601Y355315D01*
X484105Y354695D01*
X481095Y354695D01*
G37*
%LPD*%
%LPC*%
G36*
X227095Y278495D02*
X227095Y278495D01*
X224315Y279647D01*
X222187Y281775D01*
X221035Y284555D01*
X221035Y299645D01*
X222187Y302425D01*
X224315Y304553D01*
X225032Y304850D01*
X227095Y305705D01*
X230105Y305705D01*
X232885Y304553D01*
X235013Y302425D01*
X236165Y299645D01*
X236165Y284555D01*
X235013Y281775D01*
X232885Y279647D01*
X230105Y278495D01*
X227095Y278495D01*
G37*
%LPD*%
%LPC*%
G36*
X430295Y278495D02*
X430295Y278495D01*
X427515Y279647D01*
X425387Y281775D01*
X424235Y284555D01*
X424235Y299645D01*
X425387Y302425D01*
X427515Y304553D01*
X428232Y304850D01*
X430295Y305705D01*
X433305Y305705D01*
X436085Y304553D01*
X438213Y302425D01*
X439365Y299645D01*
X439365Y284555D01*
X438213Y281775D01*
X436085Y279647D01*
X433305Y278495D01*
X430295Y278495D01*
G37*
%LPD*%
%LPC*%
G36*
X481095Y278495D02*
X481095Y278495D01*
X478315Y279647D01*
X476187Y281775D01*
X475035Y284555D01*
X475035Y299645D01*
X476187Y302425D01*
X478315Y304553D01*
X479032Y304850D01*
X481095Y305705D01*
X484105Y305705D01*
X486885Y304553D01*
X489013Y302425D01*
X490165Y299645D01*
X490165Y284555D01*
X489013Y281775D01*
X486885Y279647D01*
X484105Y278495D01*
X481095Y278495D01*
G37*
%LPD*%
%LPC*%
G36*
X455695Y278495D02*
X455695Y278495D01*
X452915Y279647D01*
X450787Y281775D01*
X449635Y284555D01*
X449635Y299645D01*
X450787Y302425D01*
X452915Y304553D01*
X453632Y304850D01*
X455695Y305705D01*
X458705Y305705D01*
X461485Y304553D01*
X463613Y302425D01*
X464765Y299645D01*
X464765Y284555D01*
X463613Y281775D01*
X461485Y279647D01*
X458705Y278495D01*
X455695Y278495D01*
G37*
%LPD*%
%LPC*%
G36*
X176295Y278495D02*
X176295Y278495D01*
X173515Y279647D01*
X171387Y281775D01*
X170235Y284555D01*
X170235Y299645D01*
X171387Y302425D01*
X173515Y304553D01*
X174232Y304850D01*
X176295Y305705D01*
X179305Y305705D01*
X182085Y304553D01*
X184213Y302425D01*
X185365Y299645D01*
X185365Y284555D01*
X184213Y281775D01*
X182085Y279647D01*
X179305Y278495D01*
X176295Y278495D01*
G37*
%LPD*%
%LPC*%
G36*
X201695Y278495D02*
X201695Y278495D01*
X198915Y279647D01*
X196787Y281775D01*
X195635Y284555D01*
X195635Y299645D01*
X196787Y302425D01*
X198915Y304553D01*
X199632Y304850D01*
X201695Y305705D01*
X204705Y305705D01*
X207485Y304553D01*
X209613Y302425D01*
X210765Y299645D01*
X210765Y284555D01*
X209613Y281775D01*
X207485Y279647D01*
X204705Y278495D01*
X201695Y278495D01*
G37*
%LPD*%
%LPC*%
G36*
X770197Y364593D02*
X770197Y364593D01*
X764393Y370397D01*
X764393Y378603D01*
X770197Y384407D01*
X778403Y384407D01*
X784207Y378603D01*
X784207Y370397D01*
X778403Y364593D01*
X770197Y364593D01*
G37*
%LPD*%
%LPC*%
G36*
X681297Y885293D02*
X681297Y885293D01*
X675493Y891097D01*
X675493Y899303D01*
X681297Y905107D01*
X689503Y905107D01*
X695307Y899303D01*
X695307Y891097D01*
X689503Y885293D01*
X681297Y885293D01*
G37*
%LPD*%
%LPC*%
G36*
X97497Y656693D02*
X97497Y656693D01*
X91693Y662497D01*
X91693Y670703D01*
X97497Y676507D01*
X105703Y676507D01*
X111507Y670703D01*
X111507Y662497D01*
X105703Y656693D01*
X97497Y656693D01*
G37*
%LPD*%
%LPC*%
G36*
X376497Y656693D02*
X376497Y656693D01*
X370693Y662497D01*
X370693Y670703D01*
X376497Y676507D01*
X384703Y676507D01*
X390507Y670703D01*
X390507Y662497D01*
X384703Y656693D01*
X376497Y656693D01*
G37*
%LPD*%
%LPC*%
G36*
X122497Y885293D02*
X122497Y885293D01*
X116693Y891097D01*
X116693Y899303D01*
X122497Y905107D01*
X130703Y905107D01*
X136507Y899303D01*
X136507Y891097D01*
X130703Y885293D01*
X122497Y885293D01*
G37*
%LPD*%
%LPC*%
G36*
X770197Y593193D02*
X770197Y593193D01*
X764393Y598997D01*
X764393Y607203D01*
X770197Y613007D01*
X778403Y613007D01*
X784207Y607203D01*
X784207Y598997D01*
X778403Y593193D01*
X770197Y593193D01*
G37*
%LPD*%
%LPC*%
G36*
X656297Y885293D02*
X656297Y885293D01*
X650493Y891097D01*
X650493Y899303D01*
X656297Y905107D01*
X664503Y905107D01*
X670307Y899303D01*
X670307Y891097D01*
X664503Y885293D01*
X656297Y885293D01*
G37*
%LPD*%
%LPC*%
G36*
X745197Y593193D02*
X745197Y593193D01*
X739393Y598997D01*
X739393Y607203D01*
X745197Y613007D01*
X753403Y613007D01*
X759207Y607203D01*
X759207Y598997D01*
X753403Y593193D01*
X745197Y593193D01*
G37*
%LPD*%
%LPC*%
G36*
X745197Y364593D02*
X745197Y364593D01*
X739393Y370397D01*
X739393Y378603D01*
X745197Y384407D01*
X753403Y384407D01*
X759207Y378603D01*
X759207Y370397D01*
X753403Y364593D01*
X745197Y364593D01*
G37*
%LPD*%
%LPC*%
G36*
X97497Y428093D02*
X97497Y428093D01*
X91693Y433897D01*
X91693Y442103D01*
X97497Y447907D01*
X105703Y447907D01*
X111507Y442103D01*
X111507Y433897D01*
X105703Y428093D01*
X97497Y428093D01*
G37*
%LPD*%
%LPC*%
G36*
X351497Y885293D02*
X351497Y885293D01*
X345693Y891097D01*
X345693Y899303D01*
X351497Y905107D01*
X359703Y905107D01*
X365507Y899303D01*
X365507Y891097D01*
X359703Y885293D01*
X351497Y885293D01*
G37*
%LPD*%
%LPC*%
G36*
X567397Y478893D02*
X567397Y478893D01*
X561593Y484697D01*
X561593Y492903D01*
X567397Y498707D01*
X575603Y498707D01*
X581407Y492903D01*
X581407Y484697D01*
X575603Y478893D01*
X567397Y478893D01*
G37*
%LPD*%
%LPC*%
G36*
X592397Y478893D02*
X592397Y478893D01*
X586593Y484697D01*
X586593Y492903D01*
X592397Y498707D01*
X600603Y498707D01*
X606407Y492903D01*
X606407Y484697D01*
X600603Y478893D01*
X592397Y478893D01*
G37*
%LPD*%
%LPC*%
G36*
X122497Y428093D02*
X122497Y428093D01*
X116693Y433897D01*
X116693Y442103D01*
X122497Y447907D01*
X130703Y447907D01*
X136507Y442103D01*
X136507Y433897D01*
X130703Y428093D01*
X122497Y428093D01*
G37*
%LPD*%
%LPC*%
G36*
X376497Y885293D02*
X376497Y885293D01*
X370693Y891097D01*
X370693Y899303D01*
X376497Y905107D01*
X384703Y905107D01*
X390507Y899303D01*
X390507Y891097D01*
X384703Y885293D01*
X376497Y885293D01*
G37*
%LPD*%
%LPC*%
G36*
X353656Y268825D02*
X353656Y268825D01*
X350063Y270313D01*
X347313Y273063D01*
X345825Y276656D01*
X345825Y280544D01*
X347313Y284137D01*
X350063Y286887D01*
X353656Y288375D01*
X357544Y288375D01*
X361137Y286887D01*
X363887Y284137D01*
X365375Y280544D01*
X365375Y276656D01*
X363887Y273063D01*
X361137Y270313D01*
X360387Y270003D01*
X357544Y268825D01*
X353656Y268825D01*
G37*
%LPD*%
%LPC*%
G36*
X645756Y268825D02*
X645756Y268825D01*
X642163Y270313D01*
X639413Y273063D01*
X637925Y276656D01*
X637925Y280544D01*
X639413Y284137D01*
X642163Y286887D01*
X645756Y288375D01*
X649644Y288375D01*
X653237Y286887D01*
X655987Y284137D01*
X657475Y280544D01*
X657475Y276656D01*
X655987Y273063D01*
X653237Y270313D01*
X652487Y270003D01*
X649644Y268825D01*
X645756Y268825D01*
G37*
%LPD*%
%LPC*%
G36*
X99656Y268825D02*
X99656Y268825D01*
X96063Y270313D01*
X93313Y273063D01*
X91825Y276656D01*
X91825Y280544D01*
X93313Y284137D01*
X96063Y286887D01*
X99656Y288375D01*
X103544Y288375D01*
X107137Y286887D01*
X109887Y284137D01*
X111375Y280544D01*
X111375Y276656D01*
X109887Y273063D01*
X107137Y270313D01*
X106387Y270003D01*
X103544Y268825D01*
X99656Y268825D01*
G37*
%LPD*%
%LPC*%
G36*
X99656Y183825D02*
X99656Y183825D01*
X96063Y185313D01*
X93313Y188063D01*
X91825Y191656D01*
X91825Y195544D01*
X93313Y199137D01*
X96063Y201887D01*
X99445Y203287D01*
X99445Y203288D01*
X99656Y203375D01*
X103544Y203375D01*
X107137Y201887D01*
X109887Y199137D01*
X111375Y195544D01*
X111375Y191656D01*
X109887Y188063D01*
X107137Y185313D01*
X103544Y183825D01*
X99656Y183825D01*
G37*
%LPD*%
%LPC*%
G36*
X645756Y183825D02*
X645756Y183825D01*
X642163Y185313D01*
X639413Y188063D01*
X637925Y191656D01*
X637925Y195544D01*
X639413Y199137D01*
X642163Y201887D01*
X645545Y203287D01*
X645545Y203288D01*
X645756Y203375D01*
X649644Y203375D01*
X653237Y201887D01*
X655987Y199137D01*
X657475Y195544D01*
X657475Y191656D01*
X655987Y188063D01*
X653237Y185313D01*
X649644Y183825D01*
X645756Y183825D01*
G37*
%LPD*%
%LPC*%
G36*
X353656Y183825D02*
X353656Y183825D01*
X350063Y185313D01*
X347313Y188063D01*
X345825Y191656D01*
X345825Y195544D01*
X347313Y199137D01*
X350063Y201887D01*
X353445Y203287D01*
X353445Y203288D01*
X353656Y203375D01*
X357544Y203375D01*
X361137Y201887D01*
X363887Y199137D01*
X365375Y195544D01*
X365375Y191656D01*
X363887Y188063D01*
X361137Y185313D01*
X357544Y183825D01*
X353656Y183825D01*
G37*
%LPD*%
%LPC*%
G36*
X99656Y88725D02*
X99656Y88725D01*
X96063Y90213D01*
X93313Y92963D01*
X91825Y96556D01*
X91825Y100444D01*
X93313Y104037D01*
X96063Y106787D01*
X99656Y108275D01*
X103544Y108275D01*
X107137Y106787D01*
X109887Y104037D01*
X111375Y100444D01*
X111375Y96556D01*
X109887Y92963D01*
X107137Y90213D01*
X104742Y89221D01*
X103544Y88725D01*
X99656Y88725D01*
G37*
%LPD*%
%LPC*%
G36*
X645756Y88725D02*
X645756Y88725D01*
X642163Y90213D01*
X639413Y92963D01*
X637925Y96556D01*
X637925Y100444D01*
X639413Y104037D01*
X642163Y106787D01*
X645756Y108275D01*
X649644Y108275D01*
X653237Y106787D01*
X655987Y104037D01*
X657475Y100444D01*
X657475Y96556D01*
X655987Y92963D01*
X653237Y90213D01*
X650842Y89221D01*
X649644Y88725D01*
X645756Y88725D01*
G37*
%LPD*%
%LPC*%
G36*
X353656Y88725D02*
X353656Y88725D01*
X350063Y90213D01*
X347313Y92963D01*
X345825Y96556D01*
X345825Y100444D01*
X347313Y104037D01*
X350063Y106787D01*
X353656Y108275D01*
X357544Y108275D01*
X361137Y106787D01*
X363887Y104037D01*
X365375Y100444D01*
X365375Y96556D01*
X363887Y92963D01*
X361137Y90213D01*
X358742Y89221D01*
X357544Y88725D01*
X353656Y88725D01*
G37*
%LPD*%
%LPC*%
G36*
X772805Y561974D02*
X772805Y561974D01*
X769304Y563424D01*
X766624Y566104D01*
X765174Y569605D01*
X765174Y573395D01*
X766624Y576896D01*
X769304Y579576D01*
X772805Y581026D01*
X776595Y581026D01*
X780096Y579576D01*
X782776Y576896D01*
X784226Y573395D01*
X784226Y569605D01*
X782776Y566104D01*
X780096Y563424D01*
X776595Y561974D01*
X772805Y561974D01*
G37*
%LPD*%
%LPC*%
G36*
X758633Y29971D02*
X758633Y29971D01*
X753871Y34733D01*
X753871Y41467D01*
X758633Y46229D01*
X765367Y46229D01*
X770129Y41467D01*
X770129Y34733D01*
X765367Y29971D01*
X758633Y29971D01*
G37*
%LPD*%
%LPC*%
G36*
X504633Y461771D02*
X504633Y461771D01*
X499871Y466533D01*
X499871Y473267D01*
X504633Y478029D01*
X511367Y478029D01*
X516129Y473267D01*
X516129Y466533D01*
X511367Y461771D01*
X504633Y461771D01*
G37*
%LPD*%
%LPC*%
G36*
X225233Y474471D02*
X225233Y474471D01*
X220471Y479233D01*
X220471Y485967D01*
X225233Y490729D01*
X231967Y490729D01*
X236729Y485967D01*
X236729Y479233D01*
X231967Y474471D01*
X225233Y474471D01*
G37*
%LPD*%
%LPC*%
G36*
X479233Y474471D02*
X479233Y474471D01*
X474471Y479233D01*
X474471Y485967D01*
X479233Y490729D01*
X485967Y490729D01*
X490729Y485967D01*
X490729Y479233D01*
X485967Y474471D01*
X479233Y474471D01*
G37*
%LPD*%
%LPC*%
G36*
X199833Y474471D02*
X199833Y474471D01*
X195071Y479233D01*
X195071Y485967D01*
X199833Y490729D01*
X206567Y490729D01*
X211329Y485967D01*
X211329Y479233D01*
X206567Y474471D01*
X199833Y474471D01*
G37*
%LPD*%
%LPC*%
G36*
X479233Y169671D02*
X479233Y169671D01*
X474471Y174433D01*
X474471Y181167D01*
X479233Y185929D01*
X485967Y185929D01*
X490729Y181167D01*
X490729Y174433D01*
X485967Y169671D01*
X479233Y169671D01*
G37*
%LPD*%
%LPC*%
G36*
X60133Y334771D02*
X60133Y334771D01*
X55371Y339533D01*
X55371Y346267D01*
X60133Y351029D01*
X66867Y351029D01*
X71629Y346267D01*
X71629Y339533D01*
X66867Y334771D01*
X60133Y334771D01*
G37*
%LPD*%
%LPC*%
G36*
X453833Y169671D02*
X453833Y169671D01*
X449071Y174433D01*
X449071Y181167D01*
X453833Y185929D01*
X460567Y185929D01*
X465329Y181167D01*
X465329Y174433D01*
X460567Y169671D01*
X453833Y169671D01*
G37*
%LPD*%
%LPC*%
G36*
X428433Y410971D02*
X428433Y410971D01*
X423671Y415733D01*
X423671Y422467D01*
X428433Y427229D01*
X435167Y427229D01*
X439929Y422467D01*
X439929Y415733D01*
X435167Y410971D01*
X428433Y410971D01*
G37*
%LPD*%
%LPC*%
G36*
X707833Y506221D02*
X707833Y506221D01*
X703071Y510983D01*
X703071Y517717D01*
X707833Y522479D01*
X714567Y522479D01*
X719329Y517717D01*
X719329Y510983D01*
X714567Y506221D01*
X707833Y506221D01*
G37*
%LPD*%
%LPC*%
G36*
X453833Y245871D02*
X453833Y245871D01*
X449071Y250633D01*
X449071Y257367D01*
X453833Y262129D01*
X460567Y262129D01*
X465329Y257367D01*
X465329Y250633D01*
X460567Y245871D01*
X453833Y245871D01*
G37*
%LPD*%
%LPC*%
G36*
X479233Y245871D02*
X479233Y245871D01*
X474471Y250633D01*
X474471Y257367D01*
X479233Y262129D01*
X485967Y262129D01*
X490729Y257367D01*
X490729Y250633D01*
X485967Y245871D01*
X479233Y245871D01*
G37*
%LPD*%
%LPC*%
G36*
X504633Y245871D02*
X504633Y245871D01*
X499871Y250633D01*
X499871Y257367D01*
X504633Y262129D01*
X511367Y262129D01*
X516129Y257367D01*
X516129Y250633D01*
X511367Y245871D01*
X504633Y245871D01*
G37*
%LPD*%
%LPC*%
G36*
X60133Y398271D02*
X60133Y398271D01*
X55371Y403033D01*
X55371Y409767D01*
X60133Y414529D01*
X66867Y414529D01*
X71629Y409767D01*
X71629Y403033D01*
X66867Y398271D01*
X60133Y398271D01*
G37*
%LPD*%
%LPC*%
G36*
X174433Y398271D02*
X174433Y398271D01*
X169671Y403033D01*
X169671Y409767D01*
X174433Y414529D01*
X181167Y414529D01*
X185929Y409767D01*
X185929Y403033D01*
X181167Y398271D01*
X174433Y398271D01*
G37*
%LPD*%
%LPC*%
G36*
X453833Y398271D02*
X453833Y398271D01*
X449071Y403033D01*
X449071Y409767D01*
X453833Y414529D01*
X460567Y414529D01*
X465329Y409767D01*
X465329Y403033D01*
X460567Y398271D01*
X453833Y398271D01*
G37*
%LPD*%
%LPC*%
G36*
X225233Y169671D02*
X225233Y169671D01*
X220471Y174433D01*
X220471Y181167D01*
X225233Y185929D01*
X231967Y185929D01*
X236729Y181167D01*
X236729Y174433D01*
X231967Y169671D01*
X225233Y169671D01*
G37*
%LPD*%
%LPC*%
G36*
X225233Y245871D02*
X225233Y245871D01*
X220471Y250633D01*
X220471Y257367D01*
X225233Y262129D01*
X231967Y262129D01*
X236729Y257367D01*
X236729Y250633D01*
X231967Y245871D01*
X225233Y245871D01*
G37*
%LPD*%
%LPC*%
G36*
X199833Y245871D02*
X199833Y245871D01*
X195071Y250633D01*
X195071Y257367D01*
X199833Y262129D01*
X206567Y262129D01*
X211329Y257367D01*
X211329Y250633D01*
X206567Y245871D01*
X199833Y245871D01*
G37*
%LPD*%
%LPC*%
G36*
X199833Y169671D02*
X199833Y169671D01*
X195071Y174433D01*
X195071Y181167D01*
X199833Y185929D01*
X206567Y185929D01*
X211329Y181167D01*
X211329Y174433D01*
X206567Y169671D01*
X199833Y169671D01*
G37*
%LPD*%
%LPC*%
G36*
X758633Y334771D02*
X758633Y334771D01*
X753871Y339533D01*
X753871Y346267D01*
X758633Y351029D01*
X765367Y351029D01*
X770129Y346267D01*
X770129Y339533D01*
X765367Y334771D01*
X758633Y334771D01*
G37*
%LPD*%
%LPC*%
G36*
X60133Y576071D02*
X60133Y576071D01*
X55371Y580833D01*
X55371Y587567D01*
X60133Y592329D01*
X66867Y592329D01*
X71629Y587567D01*
X71629Y580833D01*
X66867Y576071D01*
X60133Y576071D01*
G37*
%LPD*%
%LPC*%
G36*
X733233Y334771D02*
X733233Y334771D01*
X728471Y339533D01*
X728471Y346267D01*
X733233Y351029D01*
X739967Y351029D01*
X744729Y346267D01*
X744729Y339533D01*
X739967Y334771D01*
X733233Y334771D01*
G37*
%LPD*%
%LPC*%
G36*
X123633Y309371D02*
X123633Y309371D01*
X118871Y314133D01*
X118871Y320867D01*
X123633Y325629D01*
X130367Y325629D01*
X135129Y320867D01*
X135129Y314133D01*
X130367Y309371D01*
X123633Y309371D01*
G37*
%LPD*%
%LPC*%
G36*
X250633Y245871D02*
X250633Y245871D01*
X245871Y250633D01*
X245871Y257367D01*
X250633Y262129D01*
X257367Y262129D01*
X262129Y257367D01*
X262129Y250633D01*
X257367Y245871D01*
X250633Y245871D01*
G37*
%LPD*%
%LPC*%
G36*
X174433Y131571D02*
X174433Y131571D01*
X169671Y136333D01*
X169671Y143067D01*
X174433Y147829D01*
X181167Y147829D01*
X185929Y143067D01*
X185929Y136333D01*
X181167Y131571D01*
X174433Y131571D01*
G37*
%LPD*%
%LPC*%
G36*
X491933Y626871D02*
X491933Y626871D01*
X487171Y631633D01*
X487171Y638367D01*
X491933Y643129D01*
X498667Y643129D01*
X503429Y638367D01*
X503429Y631633D01*
X498667Y626871D01*
X491933Y626871D01*
G37*
%LPD*%
%LPC*%
G36*
X199833Y131571D02*
X199833Y131571D01*
X195071Y136333D01*
X195071Y143067D01*
X199833Y147829D01*
X206567Y147829D01*
X211329Y143067D01*
X211329Y136333D01*
X206567Y131571D01*
X199833Y131571D01*
G37*
%LPD*%
%LPC*%
G36*
X428433Y131571D02*
X428433Y131571D01*
X423671Y136333D01*
X423671Y143067D01*
X428433Y147829D01*
X435167Y147829D01*
X439929Y143067D01*
X439929Y136333D01*
X435167Y131571D01*
X428433Y131571D01*
G37*
%LPD*%
%LPC*%
G36*
X72833Y309371D02*
X72833Y309371D01*
X68071Y314133D01*
X68071Y320867D01*
X72833Y325629D01*
X79567Y325629D01*
X84329Y320867D01*
X84329Y314133D01*
X79567Y309371D01*
X72833Y309371D01*
G37*
%LPD*%
%LPC*%
G36*
X758633Y106171D02*
X758633Y106171D01*
X753871Y110933D01*
X753871Y117667D01*
X758633Y122429D01*
X765367Y122429D01*
X770129Y117667D01*
X770129Y110933D01*
X765367Y106171D01*
X758633Y106171D01*
G37*
%LPD*%
%LPC*%
G36*
X784033Y106171D02*
X784033Y106171D01*
X779271Y110933D01*
X779271Y117667D01*
X784033Y122429D01*
X790767Y122429D01*
X795529Y117667D01*
X795529Y110933D01*
X790767Y106171D01*
X784033Y106171D01*
G37*
%LPD*%
%LPC*%
G36*
X707833Y271271D02*
X707833Y271271D01*
X703071Y276033D01*
X703071Y282767D01*
X707833Y287529D01*
X714567Y287529D01*
X719329Y282767D01*
X719329Y276033D01*
X714567Y271271D01*
X707833Y271271D01*
G37*
%LPD*%
%LPC*%
G36*
X453833Y131571D02*
X453833Y131571D01*
X449071Y136333D01*
X449071Y143067D01*
X453833Y147829D01*
X460567Y147829D01*
X465329Y143067D01*
X465329Y136333D01*
X460567Y131571D01*
X453833Y131571D01*
G37*
%LPD*%
%LPC*%
G36*
X314133Y855471D02*
X314133Y855471D01*
X309371Y860233D01*
X309371Y866967D01*
X314133Y871729D01*
X320867Y871729D01*
X325629Y866967D01*
X325629Y860233D01*
X320867Y855471D01*
X314133Y855471D01*
G37*
%LPD*%
%LPC*%
G36*
X231139Y828039D02*
X231139Y828039D01*
X231139Y835661D01*
X237020Y835661D01*
X238599Y835411D01*
X240120Y834916D01*
X241545Y834190D01*
X242839Y833250D01*
X243970Y832119D01*
X244910Y830825D01*
X245636Y829400D01*
X246079Y828039D01*
X231139Y828039D01*
G37*
%LPD*%
%LPC*%
G36*
X27939Y929639D02*
X27939Y929639D01*
X27939Y937261D01*
X33820Y937261D01*
X35399Y937011D01*
X36920Y936516D01*
X38345Y935790D01*
X39639Y934850D01*
X40770Y933719D01*
X41710Y932425D01*
X42436Y931000D01*
X42879Y929639D01*
X27939Y929639D01*
G37*
%LPD*%
%LPC*%
G36*
X211121Y828039D02*
X211121Y828039D01*
X211564Y829400D01*
X212290Y830825D01*
X213230Y832119D01*
X214361Y833250D01*
X215655Y834190D01*
X217080Y834916D01*
X218601Y835411D01*
X220180Y835661D01*
X226061Y835661D01*
X226061Y828039D01*
X211121Y828039D01*
G37*
%LPD*%
%LPC*%
G36*
X27939Y916939D02*
X27939Y916939D01*
X27939Y924561D01*
X42879Y924561D01*
X42436Y923200D01*
X41710Y921775D01*
X40770Y920481D01*
X39639Y919350D01*
X38345Y918410D01*
X36920Y917684D01*
X35399Y917189D01*
X33820Y916939D01*
X27939Y916939D01*
G37*
%LPD*%
%LPC*%
G36*
X231139Y815339D02*
X231139Y815339D01*
X231139Y822961D01*
X246079Y822961D01*
X245636Y821600D01*
X244910Y820175D01*
X243970Y818881D01*
X242839Y817750D01*
X241545Y816810D01*
X240120Y816084D01*
X238599Y815589D01*
X237020Y815339D01*
X231139Y815339D01*
G37*
%LPD*%
%LPC*%
G36*
X220180Y815339D02*
X220180Y815339D01*
X218601Y815589D01*
X217080Y816084D01*
X215655Y816810D01*
X214361Y817750D01*
X213230Y818881D01*
X212290Y820175D01*
X211564Y821600D01*
X211121Y822961D01*
X226061Y822961D01*
X226061Y815339D01*
X220180Y815339D01*
G37*
%LPD*%
%LPC*%
G36*
X611631Y370331D02*
X611631Y370331D01*
X611631Y377445D01*
X616924Y377445D01*
X618345Y377220D01*
X619714Y376775D01*
X620997Y376121D01*
X622161Y375275D01*
X623179Y374257D01*
X624025Y373093D01*
X624679Y371810D01*
X625124Y370441D01*
X625141Y370331D01*
X611631Y370331D01*
G37*
%LPD*%
%LPC*%
G36*
X484631Y65531D02*
X484631Y65531D01*
X484631Y79041D01*
X484741Y79024D01*
X486110Y78579D01*
X487393Y77925D01*
X488557Y77079D01*
X489575Y76061D01*
X490421Y74897D01*
X491075Y73614D01*
X491520Y72245D01*
X491745Y70824D01*
X491745Y65531D01*
X484631Y65531D01*
G37*
%LPD*%
%LPC*%
G36*
X230631Y65531D02*
X230631Y65531D01*
X230631Y79041D01*
X230741Y79024D01*
X232110Y78579D01*
X233393Y77925D01*
X234557Y77079D01*
X235575Y76061D01*
X236421Y74897D01*
X237075Y73614D01*
X237520Y72245D01*
X237745Y70824D01*
X237745Y65531D01*
X230631Y65531D01*
G37*
%LPD*%
%LPC*%
G36*
X484631Y61469D02*
X484631Y61469D01*
X491745Y61469D01*
X491745Y56176D01*
X491520Y54755D01*
X491075Y53386D01*
X490421Y52103D01*
X489575Y50939D01*
X488557Y49921D01*
X487393Y49075D01*
X486110Y48421D01*
X484741Y47976D01*
X484631Y47959D01*
X484631Y61469D01*
G37*
%LPD*%
%LPC*%
G36*
X594059Y370331D02*
X594059Y370331D01*
X594076Y370441D01*
X594521Y371810D01*
X595175Y373093D01*
X596021Y374257D01*
X597039Y375275D01*
X598203Y376121D01*
X599486Y376775D01*
X600855Y377220D01*
X602276Y377445D01*
X607569Y377445D01*
X607569Y370331D01*
X594059Y370331D01*
G37*
%LPD*%
%LPC*%
G36*
X230631Y61469D02*
X230631Y61469D01*
X237745Y61469D01*
X237745Y56176D01*
X237520Y54755D01*
X237075Y53386D01*
X236421Y52103D01*
X235575Y50939D01*
X234557Y49921D01*
X233393Y49075D01*
X232110Y48421D01*
X230741Y47976D01*
X230631Y47959D01*
X230631Y61469D01*
G37*
%LPD*%
%LPC*%
G36*
X473455Y65531D02*
X473455Y65531D01*
X473455Y70824D01*
X473680Y72245D01*
X474125Y73614D01*
X474779Y74897D01*
X475625Y76061D01*
X476643Y77079D01*
X477807Y77925D01*
X479090Y78579D01*
X480459Y79024D01*
X480569Y79041D01*
X480569Y65531D01*
X473455Y65531D01*
G37*
%LPD*%
%LPC*%
G36*
X611631Y359155D02*
X611631Y359155D01*
X611631Y366269D01*
X625141Y366269D01*
X625124Y366159D01*
X624679Y364790D01*
X624025Y363507D01*
X623179Y362343D01*
X622161Y361325D01*
X620997Y360479D01*
X619714Y359825D01*
X618345Y359380D01*
X616924Y359155D01*
X611631Y359155D01*
G37*
%LPD*%
%LPC*%
G36*
X219455Y65531D02*
X219455Y65531D01*
X219455Y70824D01*
X219680Y72245D01*
X220125Y73614D01*
X220779Y74897D01*
X221625Y76061D01*
X222643Y77079D01*
X223807Y77925D01*
X225090Y78579D01*
X226459Y79024D01*
X226569Y79041D01*
X226569Y65531D01*
X219455Y65531D01*
G37*
%LPD*%
%LPC*%
G36*
X602276Y359155D02*
X602276Y359155D01*
X600855Y359380D01*
X599486Y359825D01*
X598203Y360479D01*
X597039Y361325D01*
X596021Y362343D01*
X595175Y363507D01*
X594521Y364790D01*
X594076Y366159D01*
X594059Y366269D01*
X607569Y366269D01*
X607569Y359155D01*
X602276Y359155D01*
G37*
%LPD*%
%LPC*%
G36*
X480459Y47976D02*
X480459Y47976D01*
X479090Y48421D01*
X477807Y49075D01*
X476643Y49921D01*
X475625Y50939D01*
X474779Y52103D01*
X474125Y53386D01*
X473680Y54755D01*
X473455Y56176D01*
X473455Y61469D01*
X480569Y61469D01*
X480569Y47959D01*
X480459Y47976D01*
G37*
%LPD*%
%LPC*%
G36*
X226459Y47976D02*
X226459Y47976D01*
X225090Y48421D01*
X223807Y49075D01*
X222643Y49921D01*
X221625Y50939D01*
X220779Y52103D01*
X220125Y53386D01*
X219680Y54755D01*
X219455Y56176D01*
X219455Y61469D01*
X226569Y61469D01*
X226569Y47959D01*
X226459Y47976D01*
G37*
%LPD*%
%LPC*%
G36*
X510031Y370331D02*
X510031Y370331D01*
X510031Y382702D01*
X511294Y382292D01*
X512497Y381679D01*
X513590Y380885D01*
X514545Y379930D01*
X515339Y378837D01*
X515952Y377634D01*
X516369Y376349D01*
X516581Y375015D01*
X516581Y370331D01*
X510031Y370331D01*
G37*
%LPD*%
%LPC*%
G36*
X256031Y370331D02*
X256031Y370331D01*
X256031Y382702D01*
X257294Y382292D01*
X258497Y381679D01*
X259590Y380885D01*
X260545Y379930D01*
X261339Y378837D01*
X261952Y377634D01*
X262369Y376349D01*
X262581Y375015D01*
X262581Y370331D01*
X256031Y370331D01*
G37*
%LPD*%
%LPC*%
G36*
X789431Y230631D02*
X789431Y230631D01*
X789431Y243002D01*
X790694Y242592D01*
X791897Y241979D01*
X792990Y241185D01*
X793945Y240230D01*
X794739Y239137D01*
X795352Y237934D01*
X795769Y236649D01*
X795981Y235315D01*
X795981Y230631D01*
X789431Y230631D01*
G37*
%LPD*%
%LPC*%
G36*
X256031Y366269D02*
X256031Y366269D01*
X262581Y366269D01*
X262581Y361585D01*
X262369Y360251D01*
X261952Y358966D01*
X261339Y357763D01*
X260545Y356670D01*
X259590Y355715D01*
X258497Y354921D01*
X257294Y354308D01*
X256031Y353898D01*
X256031Y366269D01*
G37*
%LPD*%
%LPC*%
G36*
X510031Y366269D02*
X510031Y366269D01*
X516581Y366269D01*
X516581Y361585D01*
X516369Y360251D01*
X515952Y358966D01*
X515339Y357763D01*
X514545Y356670D01*
X513590Y355715D01*
X512497Y354921D01*
X511294Y354308D01*
X510031Y353898D01*
X510031Y366269D01*
G37*
%LPD*%
%LPC*%
G36*
X789431Y226569D02*
X789431Y226569D01*
X795981Y226569D01*
X795981Y221885D01*
X795769Y220551D01*
X795352Y219266D01*
X794739Y218063D01*
X793945Y216970D01*
X792990Y216015D01*
X791897Y215221D01*
X790694Y214608D01*
X789431Y214198D01*
X789431Y226569D01*
G37*
%LPD*%
%LPC*%
G36*
X499419Y370331D02*
X499419Y370331D01*
X499419Y375015D01*
X499631Y376349D01*
X500048Y377634D01*
X500661Y378837D01*
X501455Y379930D01*
X502410Y380885D01*
X503503Y381679D01*
X504706Y382292D01*
X505969Y382702D01*
X505969Y370331D01*
X499419Y370331D01*
G37*
%LPD*%
%LPC*%
G36*
X245419Y370331D02*
X245419Y370331D01*
X245419Y375015D01*
X245631Y376349D01*
X246048Y377634D01*
X246661Y378837D01*
X247455Y379930D01*
X248410Y380885D01*
X249503Y381679D01*
X250706Y382292D01*
X251969Y382702D01*
X251969Y370331D01*
X245419Y370331D01*
G37*
%LPD*%
%LPC*%
G36*
X778819Y230631D02*
X778819Y230631D01*
X778819Y235315D01*
X779031Y236649D01*
X779448Y237934D01*
X780061Y239137D01*
X780855Y240230D01*
X781810Y241185D01*
X782903Y241979D01*
X784106Y242592D01*
X785369Y243002D01*
X785369Y230631D01*
X778819Y230631D01*
G37*
%LPD*%
%LPC*%
G36*
X504706Y354308D02*
X504706Y354308D01*
X503503Y354921D01*
X502410Y355715D01*
X501455Y356670D01*
X500661Y357763D01*
X500048Y358966D01*
X499631Y360251D01*
X499419Y361585D01*
X499419Y366269D01*
X505969Y366269D01*
X505969Y353898D01*
X504706Y354308D01*
G37*
%LPD*%
%LPC*%
G36*
X784106Y214608D02*
X784106Y214608D01*
X782903Y215221D01*
X781810Y216015D01*
X780855Y216970D01*
X780061Y218063D01*
X779448Y219266D01*
X779031Y220551D01*
X778819Y221885D01*
X778819Y226569D01*
X785369Y226569D01*
X785369Y214198D01*
X784106Y214608D01*
G37*
%LPD*%
%LPC*%
G36*
X250706Y354308D02*
X250706Y354308D01*
X249503Y354921D01*
X248410Y355715D01*
X247455Y356670D01*
X246661Y357763D01*
X246048Y358966D01*
X245631Y360251D01*
X245419Y361585D01*
X245419Y366269D01*
X251969Y366269D01*
X251969Y353898D01*
X250706Y354308D01*
G37*
%LPD*%
%LPC*%
G36*
X79349Y897949D02*
X79349Y897949D01*
X79349Y906123D01*
X85317Y906123D01*
X85963Y905950D01*
X86542Y905615D01*
X87015Y905142D01*
X87350Y904563D01*
X87523Y903917D01*
X87523Y897949D01*
X79349Y897949D01*
G37*
%LPD*%
%LPC*%
G36*
X333349Y897949D02*
X333349Y897949D01*
X333349Y906123D01*
X339317Y906123D01*
X339963Y905950D01*
X340542Y905615D01*
X341015Y905142D01*
X341350Y904563D01*
X341523Y903917D01*
X341523Y897949D01*
X333349Y897949D01*
G37*
%LPD*%
%LPC*%
G36*
X638149Y897949D02*
X638149Y897949D01*
X638149Y906123D01*
X644117Y906123D01*
X644763Y905950D01*
X645342Y905615D01*
X645815Y905142D01*
X646150Y904563D01*
X646323Y903917D01*
X646323Y897949D01*
X638149Y897949D01*
G37*
%LPD*%
%LPC*%
G36*
X333349Y892451D02*
X333349Y892451D01*
X341523Y892451D01*
X341523Y886483D01*
X341350Y885837D01*
X341015Y885258D01*
X340542Y884785D01*
X339963Y884450D01*
X339317Y884277D01*
X333349Y884277D01*
X333349Y892451D01*
G37*
%LPD*%
%LPC*%
G36*
X638149Y892451D02*
X638149Y892451D01*
X646323Y892451D01*
X646323Y886483D01*
X646150Y885837D01*
X645815Y885258D01*
X645342Y884785D01*
X644763Y884450D01*
X644117Y884277D01*
X638149Y884277D01*
X638149Y892451D01*
G37*
%LPD*%
%LPC*%
G36*
X79349Y892451D02*
X79349Y892451D01*
X87523Y892451D01*
X87523Y886483D01*
X87350Y885837D01*
X87015Y885258D01*
X86542Y884785D01*
X85963Y884450D01*
X85317Y884277D01*
X79349Y884277D01*
X79349Y892451D01*
G37*
%LPD*%
%LPC*%
G36*
X624477Y897949D02*
X624477Y897949D01*
X624477Y903917D01*
X624650Y904563D01*
X624985Y905142D01*
X625458Y905615D01*
X626037Y905950D01*
X626683Y906123D01*
X632651Y906123D01*
X632651Y897949D01*
X624477Y897949D01*
G37*
%LPD*%
%LPC*%
G36*
X319677Y897949D02*
X319677Y897949D01*
X319677Y903917D01*
X319850Y904563D01*
X320185Y905142D01*
X320658Y905615D01*
X321237Y905950D01*
X321883Y906123D01*
X327851Y906123D01*
X327851Y897949D01*
X319677Y897949D01*
G37*
%LPD*%
%LPC*%
G36*
X65677Y897949D02*
X65677Y897949D01*
X65677Y903917D01*
X65850Y904563D01*
X66185Y905142D01*
X66658Y905615D01*
X67237Y905950D01*
X67883Y906123D01*
X73851Y906123D01*
X73851Y897949D01*
X65677Y897949D01*
G37*
%LPD*%
%LPC*%
G36*
X321883Y884277D02*
X321883Y884277D01*
X321237Y884450D01*
X320658Y884785D01*
X320185Y885258D01*
X319850Y885837D01*
X319677Y886483D01*
X319677Y892451D01*
X327851Y892451D01*
X327851Y884277D01*
X321883Y884277D01*
G37*
%LPD*%
%LPC*%
G36*
X67883Y884277D02*
X67883Y884277D01*
X67237Y884450D01*
X66658Y884785D01*
X66185Y885258D01*
X65850Y885837D01*
X65677Y886483D01*
X65677Y892451D01*
X73851Y892451D01*
X73851Y884277D01*
X67883Y884277D01*
G37*
%LPD*%
%LPC*%
G36*
X626683Y884277D02*
X626683Y884277D01*
X626037Y884450D01*
X625458Y884785D01*
X624985Y885258D01*
X624650Y885837D01*
X624477Y886483D01*
X624477Y892451D01*
X632651Y892451D01*
X632651Y884277D01*
X626683Y884277D01*
G37*
%LPD*%
%LPC*%
G36*
X776731Y548131D02*
X776731Y548131D01*
X776731Y556642D01*
X779067Y556642D01*
X785242Y550467D01*
X785242Y548131D01*
X776731Y548131D01*
G37*
%LPD*%
%LPC*%
G36*
X764158Y548131D02*
X764158Y548131D01*
X764158Y550467D01*
X770333Y556642D01*
X772669Y556642D01*
X772669Y548131D01*
X764158Y548131D01*
G37*
%LPD*%
%LPC*%
G36*
X776731Y535558D02*
X776731Y535558D01*
X776731Y544069D01*
X785242Y544069D01*
X785242Y541733D01*
X779067Y535558D01*
X776731Y535558D01*
G37*
%LPD*%
%LPC*%
G36*
X770333Y535558D02*
X770333Y535558D01*
X764158Y541733D01*
X764158Y544069D01*
X772669Y544069D01*
X772669Y535558D01*
X770333Y535558D01*
G37*
%LPD*%
%LPC*%
G36*
X104349Y166349D02*
X104349Y166349D01*
X104349Y174053D01*
X105742Y173600D01*
X107256Y172829D01*
X108630Y171831D01*
X109831Y170630D01*
X110829Y169256D01*
X111600Y167742D01*
X112053Y166349D01*
X104349Y166349D01*
G37*
%LPD*%
%LPC*%
G36*
X650449Y131249D02*
X650449Y131249D01*
X650449Y138953D01*
X651842Y138500D01*
X653356Y137729D01*
X654730Y136731D01*
X655931Y135530D01*
X656929Y134156D01*
X657700Y132642D01*
X658153Y131249D01*
X650449Y131249D01*
G37*
%LPD*%
%LPC*%
G36*
X358349Y166349D02*
X358349Y166349D01*
X358349Y174053D01*
X359742Y173600D01*
X361256Y172829D01*
X362630Y171831D01*
X363831Y170630D01*
X364829Y169256D01*
X365600Y167742D01*
X366053Y166349D01*
X358349Y166349D01*
G37*
%LPD*%
%LPC*%
G36*
X104349Y131249D02*
X104349Y131249D01*
X104349Y138953D01*
X105742Y138500D01*
X107256Y137729D01*
X108630Y136731D01*
X109831Y135530D01*
X110829Y134156D01*
X111600Y132642D01*
X112053Y131249D01*
X104349Y131249D01*
G37*
%LPD*%
%LPC*%
G36*
X650449Y166349D02*
X650449Y166349D01*
X650449Y174053D01*
X651842Y173600D01*
X653356Y172829D01*
X654730Y171831D01*
X655931Y170630D01*
X656929Y169256D01*
X657700Y167742D01*
X658153Y166349D01*
X650449Y166349D01*
G37*
%LPD*%
%LPC*%
G36*
X358349Y131249D02*
X358349Y131249D01*
X358349Y138953D01*
X359742Y138500D01*
X361256Y137729D01*
X362630Y136731D01*
X363831Y135530D01*
X364829Y134156D01*
X365600Y132642D01*
X366053Y131249D01*
X358349Y131249D01*
G37*
%LPD*%
%LPC*%
G36*
X345147Y131249D02*
X345147Y131249D01*
X345600Y132642D01*
X346371Y134156D01*
X347369Y135530D01*
X348570Y136731D01*
X349944Y137729D01*
X351458Y138500D01*
X352851Y138953D01*
X352851Y131249D01*
X345147Y131249D01*
G37*
%LPD*%
%LPC*%
G36*
X650449Y160851D02*
X650449Y160851D01*
X658153Y160851D01*
X657700Y159458D01*
X656929Y157944D01*
X655931Y156570D01*
X654730Y155369D01*
X653356Y154371D01*
X651842Y153600D01*
X650449Y153147D01*
X650449Y160851D01*
G37*
%LPD*%
%LPC*%
G36*
X358349Y125751D02*
X358349Y125751D01*
X366053Y125751D01*
X365600Y124358D01*
X364829Y122844D01*
X363831Y121470D01*
X362630Y120269D01*
X361256Y119271D01*
X359742Y118500D01*
X358349Y118047D01*
X358349Y125751D01*
G37*
%LPD*%
%LPC*%
G36*
X637247Y131249D02*
X637247Y131249D01*
X637700Y132642D01*
X638471Y134156D01*
X639469Y135530D01*
X640670Y136731D01*
X642044Y137729D01*
X643558Y138500D01*
X644951Y138953D01*
X644951Y131249D01*
X637247Y131249D01*
G37*
%LPD*%
%LPC*%
G36*
X104349Y160851D02*
X104349Y160851D01*
X112053Y160851D01*
X111600Y159458D01*
X110829Y157944D01*
X109831Y156570D01*
X108630Y155369D01*
X107256Y154371D01*
X105742Y153600D01*
X104349Y153147D01*
X104349Y160851D01*
G37*
%LPD*%
%LPC*%
G36*
X91147Y166349D02*
X91147Y166349D01*
X91600Y167742D01*
X92371Y169256D01*
X93369Y170630D01*
X94570Y171831D01*
X95944Y172829D01*
X97458Y173600D01*
X98851Y174053D01*
X98851Y166349D01*
X91147Y166349D01*
G37*
%LPD*%
%LPC*%
G36*
X358349Y160851D02*
X358349Y160851D01*
X366053Y160851D01*
X365600Y159458D01*
X364829Y157944D01*
X363831Y156570D01*
X362630Y155369D01*
X361256Y154371D01*
X359742Y153600D01*
X358349Y153147D01*
X358349Y160851D01*
G37*
%LPD*%
%LPC*%
G36*
X345147Y166349D02*
X345147Y166349D01*
X345600Y167742D01*
X346371Y169256D01*
X347369Y170630D01*
X348570Y171831D01*
X349944Y172829D01*
X351458Y173600D01*
X352851Y174053D01*
X352851Y166349D01*
X345147Y166349D01*
G37*
%LPD*%
%LPC*%
G36*
X91147Y131249D02*
X91147Y131249D01*
X91600Y132642D01*
X92371Y134156D01*
X93369Y135530D01*
X94570Y136731D01*
X95944Y137729D01*
X97458Y138500D01*
X98851Y138953D01*
X98851Y131249D01*
X91147Y131249D01*
G37*
%LPD*%
%LPC*%
G36*
X104349Y125751D02*
X104349Y125751D01*
X112053Y125751D01*
X111600Y124358D01*
X110829Y122844D01*
X109831Y121470D01*
X108630Y120269D01*
X107256Y119271D01*
X105742Y118500D01*
X104349Y118047D01*
X104349Y125751D01*
G37*
%LPD*%
%LPC*%
G36*
X637247Y166349D02*
X637247Y166349D01*
X637700Y167742D01*
X638471Y169256D01*
X639469Y170630D01*
X640670Y171831D01*
X642044Y172829D01*
X643558Y173600D01*
X644951Y174053D01*
X644951Y166349D01*
X637247Y166349D01*
G37*
%LPD*%
%LPC*%
G36*
X650449Y125751D02*
X650449Y125751D01*
X658153Y125751D01*
X657700Y124358D01*
X656929Y122844D01*
X655931Y121470D01*
X654730Y120269D01*
X653356Y119271D01*
X651842Y118500D01*
X650449Y118047D01*
X650449Y125751D01*
G37*
%LPD*%
%LPC*%
G36*
X97458Y118500D02*
X97458Y118500D01*
X95944Y119271D01*
X94570Y120269D01*
X93369Y121470D01*
X92371Y122844D01*
X91600Y124358D01*
X91147Y125751D01*
X98851Y125751D01*
X98851Y118047D01*
X97458Y118500D01*
G37*
%LPD*%
%LPC*%
G36*
X351458Y118500D02*
X351458Y118500D01*
X349944Y119271D01*
X348570Y120269D01*
X347369Y121470D01*
X346371Y122844D01*
X345600Y124358D01*
X345147Y125751D01*
X352851Y125751D01*
X352851Y118047D01*
X351458Y118500D01*
G37*
%LPD*%
%LPC*%
G36*
X643558Y153600D02*
X643558Y153600D01*
X642044Y154371D01*
X640670Y155369D01*
X639469Y156570D01*
X638471Y157944D01*
X637700Y159458D01*
X637247Y160851D01*
X644951Y160851D01*
X644951Y153147D01*
X643558Y153600D01*
G37*
%LPD*%
%LPC*%
G36*
X643558Y118500D02*
X643558Y118500D01*
X642044Y119271D01*
X640670Y120269D01*
X639469Y121470D01*
X638471Y122844D01*
X637700Y124358D01*
X637247Y125751D01*
X644951Y125751D01*
X644951Y118047D01*
X643558Y118500D01*
G37*
%LPD*%
%LPC*%
G36*
X97458Y153600D02*
X97458Y153600D01*
X95944Y154371D01*
X94570Y155369D01*
X93369Y156570D01*
X92371Y157944D01*
X91600Y159458D01*
X91147Y160851D01*
X98851Y160851D01*
X98851Y153147D01*
X97458Y153600D01*
G37*
%LPD*%
%LPC*%
G36*
X351458Y153600D02*
X351458Y153600D01*
X349944Y154371D01*
X348570Y155369D01*
X347369Y156570D01*
X346371Y157944D01*
X345600Y159458D01*
X345147Y160851D01*
X352851Y160851D01*
X352851Y153147D01*
X351458Y153600D01*
G37*
%LPD*%
%LPC*%
G36*
X319531Y344931D02*
X319531Y344931D01*
X319531Y352045D01*
X321288Y352045D01*
X326645Y346688D01*
X326645Y344931D01*
X319531Y344931D01*
G37*
%LPD*%
%LPC*%
G36*
X141731Y344931D02*
X141731Y344931D01*
X141731Y352045D01*
X143488Y352045D01*
X148845Y346688D01*
X148845Y344931D01*
X141731Y344931D01*
G37*
%LPD*%
%LPC*%
G36*
X179831Y65531D02*
X179831Y65531D01*
X179831Y72645D01*
X181588Y72645D01*
X186945Y67288D01*
X186945Y65531D01*
X179831Y65531D01*
G37*
%LPD*%
%LPC*%
G36*
X141731Y408431D02*
X141731Y408431D01*
X141731Y415545D01*
X143488Y415545D01*
X148845Y410188D01*
X148845Y408431D01*
X141731Y408431D01*
G37*
%LPD*%
%LPC*%
G36*
X789431Y516381D02*
X789431Y516381D01*
X789431Y523495D01*
X791188Y523495D01*
X796545Y518138D01*
X796545Y516381D01*
X789431Y516381D01*
G37*
%LPD*%
%LPC*%
G36*
X205231Y65531D02*
X205231Y65531D01*
X205231Y72645D01*
X206988Y72645D01*
X212345Y67288D01*
X212345Y65531D01*
X205231Y65531D01*
G37*
%LPD*%
%LPC*%
G36*
X433831Y65531D02*
X433831Y65531D01*
X433831Y72645D01*
X435588Y72645D01*
X440945Y67288D01*
X440945Y65531D01*
X433831Y65531D01*
G37*
%LPD*%
%LPC*%
G36*
X459231Y65531D02*
X459231Y65531D01*
X459231Y72645D01*
X460988Y72645D01*
X466345Y67288D01*
X466345Y65531D01*
X459231Y65531D01*
G37*
%LPD*%
%LPC*%
G36*
X713231Y332231D02*
X713231Y332231D01*
X713231Y339345D01*
X714988Y339345D01*
X720345Y333988D01*
X720345Y332231D01*
X713231Y332231D01*
G37*
%LPD*%
%LPC*%
G36*
X256031Y179831D02*
X256031Y179831D01*
X256031Y186945D01*
X257788Y186945D01*
X263145Y181588D01*
X263145Y179831D01*
X256031Y179831D01*
G37*
%LPD*%
%LPC*%
G36*
X510031Y179831D02*
X510031Y179831D01*
X510031Y186945D01*
X511788Y186945D01*
X517145Y181588D01*
X517145Y179831D01*
X510031Y179831D01*
G37*
%LPD*%
%LPC*%
G36*
X789431Y332231D02*
X789431Y332231D01*
X789431Y339345D01*
X791188Y339345D01*
X796545Y333988D01*
X796545Y332231D01*
X789431Y332231D01*
G37*
%LPD*%
%LPC*%
G36*
X713231Y40131D02*
X713231Y40131D01*
X713231Y47245D01*
X714988Y47245D01*
X720345Y41888D01*
X720345Y40131D01*
X713231Y40131D01*
G37*
%LPD*%
%LPC*%
G36*
X433831Y471931D02*
X433831Y471931D01*
X433831Y479045D01*
X435588Y479045D01*
X440945Y473688D01*
X440945Y471931D01*
X433831Y471931D01*
G37*
%LPD*%
%LPC*%
G36*
X573531Y637031D02*
X573531Y637031D01*
X573531Y644145D01*
X575288Y644145D01*
X580645Y638788D01*
X580645Y637031D01*
X573531Y637031D01*
G37*
%LPD*%
%LPC*%
G36*
X179831Y459231D02*
X179831Y459231D01*
X179831Y466345D01*
X181588Y466345D01*
X186945Y460988D01*
X186945Y459231D01*
X179831Y459231D01*
G37*
%LPD*%
%LPC*%
G36*
X687831Y344931D02*
X687831Y344931D01*
X687831Y352045D01*
X689588Y352045D01*
X694945Y346688D01*
X694945Y344931D01*
X687831Y344931D01*
G37*
%LPD*%
%LPC*%
G36*
X548131Y357631D02*
X548131Y357631D01*
X548131Y364745D01*
X549888Y364745D01*
X555245Y359388D01*
X555245Y357631D01*
X548131Y357631D01*
G37*
%LPD*%
%LPC*%
G36*
X789431Y40131D02*
X789431Y40131D01*
X789431Y47245D01*
X791188Y47245D01*
X796545Y41888D01*
X796545Y40131D01*
X789431Y40131D01*
G37*
%LPD*%
%LPC*%
G36*
X294131Y357631D02*
X294131Y357631D01*
X294131Y364745D01*
X295888Y364745D01*
X301245Y359388D01*
X301245Y357631D01*
X294131Y357631D01*
G37*
%LPD*%
%LPC*%
G36*
X510031Y421131D02*
X510031Y421131D01*
X510031Y428245D01*
X511788Y428245D01*
X517145Y422888D01*
X517145Y421131D01*
X510031Y421131D01*
G37*
%LPD*%
%LPC*%
G36*
X130555Y344931D02*
X130555Y344931D01*
X130555Y346688D01*
X135912Y352045D01*
X137669Y352045D01*
X137669Y344931D01*
X130555Y344931D01*
G37*
%LPD*%
%LPC*%
G36*
X676655Y344931D02*
X676655Y344931D01*
X676655Y346688D01*
X682012Y352045D01*
X683769Y352045D01*
X683769Y344931D01*
X676655Y344931D01*
G37*
%LPD*%
%LPC*%
G36*
X130555Y408431D02*
X130555Y408431D01*
X130555Y410188D01*
X135912Y415545D01*
X137669Y415545D01*
X137669Y408431D01*
X130555Y408431D01*
G37*
%LPD*%
%LPC*%
G36*
X778255Y516381D02*
X778255Y516381D01*
X778255Y518138D01*
X783612Y523495D01*
X785369Y523495D01*
X785369Y516381D01*
X778255Y516381D01*
G37*
%LPD*%
%LPC*%
G36*
X562355Y637031D02*
X562355Y637031D01*
X562355Y638788D01*
X567712Y644145D01*
X569469Y644145D01*
X569469Y637031D01*
X562355Y637031D01*
G37*
%LPD*%
%LPC*%
G36*
X308355Y344931D02*
X308355Y344931D01*
X308355Y346688D01*
X313712Y352045D01*
X315469Y352045D01*
X315469Y344931D01*
X308355Y344931D01*
G37*
%LPD*%
%LPC*%
G36*
X573531Y625855D02*
X573531Y625855D01*
X573531Y632969D01*
X580645Y632969D01*
X580645Y631212D01*
X575288Y625855D01*
X573531Y625855D01*
G37*
%LPD*%
%LPC*%
G36*
X789431Y28955D02*
X789431Y28955D01*
X789431Y36069D01*
X796545Y36069D01*
X796545Y34312D01*
X791188Y28955D01*
X789431Y28955D01*
G37*
%LPD*%
%LPC*%
G36*
X778255Y40131D02*
X778255Y40131D01*
X778255Y41888D01*
X783612Y47245D01*
X785369Y47245D01*
X785369Y40131D01*
X778255Y40131D01*
G37*
%LPD*%
%LPC*%
G36*
X141731Y397255D02*
X141731Y397255D01*
X141731Y404369D01*
X148845Y404369D01*
X148845Y402612D01*
X143488Y397255D01*
X141731Y397255D01*
G37*
%LPD*%
%LPC*%
G36*
X713231Y28955D02*
X713231Y28955D01*
X713231Y36069D01*
X720345Y36069D01*
X720345Y34312D01*
X714988Y28955D01*
X713231Y28955D01*
G37*
%LPD*%
%LPC*%
G36*
X510031Y409955D02*
X510031Y409955D01*
X510031Y417069D01*
X517145Y417069D01*
X517145Y415312D01*
X511788Y409955D01*
X510031Y409955D01*
G37*
%LPD*%
%LPC*%
G36*
X536955Y357631D02*
X536955Y357631D01*
X536955Y359388D01*
X542312Y364745D01*
X544069Y364745D01*
X544069Y357631D01*
X536955Y357631D01*
G37*
%LPD*%
%LPC*%
G36*
X498855Y421131D02*
X498855Y421131D01*
X498855Y422888D01*
X504212Y428245D01*
X505969Y428245D01*
X505969Y421131D01*
X498855Y421131D01*
G37*
%LPD*%
%LPC*%
G36*
X282955Y357631D02*
X282955Y357631D01*
X282955Y359388D01*
X288312Y364745D01*
X290069Y364745D01*
X290069Y357631D01*
X282955Y357631D01*
G37*
%LPD*%
%LPC*%
G36*
X179831Y448055D02*
X179831Y448055D01*
X179831Y455169D01*
X186945Y455169D01*
X186945Y453412D01*
X181588Y448055D01*
X179831Y448055D01*
G37*
%LPD*%
%LPC*%
G36*
X294131Y346455D02*
X294131Y346455D01*
X294131Y353569D01*
X301245Y353569D01*
X301245Y351812D01*
X295888Y346455D01*
X294131Y346455D01*
G37*
%LPD*%
%LPC*%
G36*
X548131Y346455D02*
X548131Y346455D01*
X548131Y353569D01*
X555245Y353569D01*
X555245Y351812D01*
X549888Y346455D01*
X548131Y346455D01*
G37*
%LPD*%
%LPC*%
G36*
X702055Y40131D02*
X702055Y40131D01*
X702055Y41888D01*
X707412Y47245D01*
X709169Y47245D01*
X709169Y40131D01*
X702055Y40131D01*
G37*
%LPD*%
%LPC*%
G36*
X168655Y459231D02*
X168655Y459231D01*
X168655Y460988D01*
X174012Y466345D01*
X175769Y466345D01*
X175769Y459231D01*
X168655Y459231D01*
G37*
%LPD*%
%LPC*%
G36*
X433831Y460755D02*
X433831Y460755D01*
X433831Y467869D01*
X440945Y467869D01*
X440945Y466112D01*
X435588Y460755D01*
X433831Y460755D01*
G37*
%LPD*%
%LPC*%
G36*
X422655Y471931D02*
X422655Y471931D01*
X422655Y473688D01*
X428012Y479045D01*
X429769Y479045D01*
X429769Y471931D01*
X422655Y471931D01*
G37*
%LPD*%
%LPC*%
G36*
X789431Y321055D02*
X789431Y321055D01*
X789431Y328169D01*
X796545Y328169D01*
X796545Y326412D01*
X791188Y321055D01*
X789431Y321055D01*
G37*
%LPD*%
%LPC*%
G36*
X778255Y332231D02*
X778255Y332231D01*
X778255Y333988D01*
X783612Y339345D01*
X785369Y339345D01*
X785369Y332231D01*
X778255Y332231D01*
G37*
%LPD*%
%LPC*%
G36*
X498855Y179831D02*
X498855Y179831D01*
X498855Y181588D01*
X504212Y186945D01*
X505969Y186945D01*
X505969Y179831D01*
X498855Y179831D01*
G37*
%LPD*%
%LPC*%
G36*
X702055Y332231D02*
X702055Y332231D01*
X702055Y333988D01*
X707412Y339345D01*
X709169Y339345D01*
X709169Y332231D01*
X702055Y332231D01*
G37*
%LPD*%
%LPC*%
G36*
X179831Y54355D02*
X179831Y54355D01*
X179831Y61469D01*
X186945Y61469D01*
X186945Y59712D01*
X181588Y54355D01*
X179831Y54355D01*
G37*
%LPD*%
%LPC*%
G36*
X459231Y54355D02*
X459231Y54355D01*
X459231Y61469D01*
X466345Y61469D01*
X466345Y59712D01*
X460988Y54355D01*
X459231Y54355D01*
G37*
%LPD*%
%LPC*%
G36*
X141731Y333755D02*
X141731Y333755D01*
X141731Y340869D01*
X148845Y340869D01*
X148845Y339112D01*
X143488Y333755D01*
X141731Y333755D01*
G37*
%LPD*%
%LPC*%
G36*
X433831Y54355D02*
X433831Y54355D01*
X433831Y61469D01*
X440945Y61469D01*
X440945Y59712D01*
X435588Y54355D01*
X433831Y54355D01*
G37*
%LPD*%
%LPC*%
G36*
X422655Y65531D02*
X422655Y65531D01*
X422655Y67288D01*
X428012Y72645D01*
X429769Y72645D01*
X429769Y65531D01*
X422655Y65531D01*
G37*
%LPD*%
%LPC*%
G36*
X168655Y65531D02*
X168655Y65531D01*
X168655Y67288D01*
X174012Y72645D01*
X175769Y72645D01*
X175769Y65531D01*
X168655Y65531D01*
G37*
%LPD*%
%LPC*%
G36*
X256031Y168655D02*
X256031Y168655D01*
X256031Y175769D01*
X263145Y175769D01*
X263145Y174012D01*
X257788Y168655D01*
X256031Y168655D01*
G37*
%LPD*%
%LPC*%
G36*
X448055Y65531D02*
X448055Y65531D01*
X448055Y67288D01*
X453412Y72645D01*
X455169Y72645D01*
X455169Y65531D01*
X448055Y65531D01*
G37*
%LPD*%
%LPC*%
G36*
X244855Y179831D02*
X244855Y179831D01*
X244855Y181588D01*
X250212Y186945D01*
X251969Y186945D01*
X251969Y179831D01*
X244855Y179831D01*
G37*
%LPD*%
%LPC*%
G36*
X194055Y65531D02*
X194055Y65531D01*
X194055Y67288D01*
X199412Y72645D01*
X201169Y72645D01*
X201169Y65531D01*
X194055Y65531D01*
G37*
%LPD*%
%LPC*%
G36*
X510031Y168655D02*
X510031Y168655D01*
X510031Y175769D01*
X517145Y175769D01*
X517145Y174012D01*
X511788Y168655D01*
X510031Y168655D01*
G37*
%LPD*%
%LPC*%
G36*
X789431Y505205D02*
X789431Y505205D01*
X789431Y512319D01*
X796545Y512319D01*
X796545Y510562D01*
X791188Y505205D01*
X789431Y505205D01*
G37*
%LPD*%
%LPC*%
G36*
X687831Y333755D02*
X687831Y333755D01*
X687831Y340869D01*
X694945Y340869D01*
X694945Y339112D01*
X689588Y333755D01*
X687831Y333755D01*
G37*
%LPD*%
%LPC*%
G36*
X205231Y54355D02*
X205231Y54355D01*
X205231Y61469D01*
X212345Y61469D01*
X212345Y59712D01*
X206988Y54355D01*
X205231Y54355D01*
G37*
%LPD*%
%LPC*%
G36*
X199412Y54355D02*
X199412Y54355D01*
X194055Y59712D01*
X194055Y61469D01*
X201169Y61469D01*
X201169Y54355D01*
X199412Y54355D01*
G37*
%LPD*%
%LPC*%
G36*
X174012Y54355D02*
X174012Y54355D01*
X168655Y59712D01*
X168655Y61469D01*
X175769Y61469D01*
X175769Y54355D01*
X174012Y54355D01*
G37*
%LPD*%
%LPC*%
G36*
X250212Y168655D02*
X250212Y168655D01*
X244855Y174012D01*
X244855Y175769D01*
X251969Y175769D01*
X251969Y168655D01*
X250212Y168655D01*
G37*
%LPD*%
%LPC*%
G36*
X504212Y168655D02*
X504212Y168655D01*
X498855Y174012D01*
X498855Y175769D01*
X505969Y175769D01*
X505969Y168655D01*
X504212Y168655D01*
G37*
%LPD*%
%LPC*%
G36*
X783612Y321055D02*
X783612Y321055D01*
X778255Y326412D01*
X778255Y328169D01*
X785369Y328169D01*
X785369Y321055D01*
X783612Y321055D01*
G37*
%LPD*%
%LPC*%
G36*
X783612Y28955D02*
X783612Y28955D01*
X778255Y34312D01*
X778255Y36069D01*
X785369Y36069D01*
X785369Y28955D01*
X783612Y28955D01*
G37*
%LPD*%
%LPC*%
G36*
X453412Y54355D02*
X453412Y54355D01*
X448055Y59712D01*
X448055Y61469D01*
X455169Y61469D01*
X455169Y54355D01*
X453412Y54355D01*
G37*
%LPD*%
%LPC*%
G36*
X707412Y28955D02*
X707412Y28955D01*
X702055Y34312D01*
X702055Y36069D01*
X709169Y36069D01*
X709169Y28955D01*
X707412Y28955D01*
G37*
%LPD*%
%LPC*%
G36*
X428012Y54355D02*
X428012Y54355D01*
X422655Y59712D01*
X422655Y61469D01*
X429769Y61469D01*
X429769Y54355D01*
X428012Y54355D01*
G37*
%LPD*%
%LPC*%
G36*
X288312Y346455D02*
X288312Y346455D01*
X282955Y351812D01*
X282955Y353569D01*
X290069Y353569D01*
X290069Y346455D01*
X288312Y346455D01*
G37*
%LPD*%
%LPC*%
G36*
X542312Y346455D02*
X542312Y346455D01*
X536955Y351812D01*
X536955Y353569D01*
X544069Y353569D01*
X544069Y346455D01*
X542312Y346455D01*
G37*
%LPD*%
%LPC*%
G36*
X428012Y460755D02*
X428012Y460755D01*
X422655Y466112D01*
X422655Y467869D01*
X429769Y467869D01*
X429769Y460755D01*
X428012Y460755D01*
G37*
%LPD*%
%LPC*%
G36*
X504212Y409955D02*
X504212Y409955D01*
X498855Y415312D01*
X498855Y417069D01*
X505969Y417069D01*
X505969Y409955D01*
X504212Y409955D01*
G37*
%LPD*%
%LPC*%
G36*
X174012Y448055D02*
X174012Y448055D01*
X168655Y453412D01*
X168655Y455169D01*
X175769Y455169D01*
X175769Y448055D01*
X174012Y448055D01*
G37*
%LPD*%
%LPC*%
G36*
X135912Y397255D02*
X135912Y397255D01*
X130555Y402612D01*
X130555Y404369D01*
X137669Y404369D01*
X137669Y397255D01*
X135912Y397255D01*
G37*
%LPD*%
%LPC*%
G36*
X783612Y505205D02*
X783612Y505205D01*
X778255Y510562D01*
X778255Y512319D01*
X785369Y512319D01*
X785369Y505205D01*
X783612Y505205D01*
G37*
%LPD*%
%LPC*%
G36*
X682012Y333755D02*
X682012Y333755D01*
X676655Y339112D01*
X676655Y340869D01*
X683769Y340869D01*
X683769Y333755D01*
X682012Y333755D01*
G37*
%LPD*%
%LPC*%
G36*
X567712Y625855D02*
X567712Y625855D01*
X562355Y631212D01*
X562355Y632969D01*
X569469Y632969D01*
X569469Y625855D01*
X567712Y625855D01*
G37*
%LPD*%
%LPC*%
G36*
X135912Y333755D02*
X135912Y333755D01*
X130555Y339112D01*
X130555Y340869D01*
X137669Y340869D01*
X137669Y333755D01*
X135912Y333755D01*
G37*
%LPD*%
D10*
X76600Y438000D03*
D11*
X101600Y438000D03*
X126600Y438000D03*
D12*
X146600Y508000D03*
X56600Y508000D03*
D10*
X76600Y666600D03*
D11*
X101600Y666600D03*
X126600Y666600D03*
D12*
X146600Y736600D03*
X56600Y736600D03*
D10*
X76600Y895200D03*
D11*
X101600Y895200D03*
X126600Y895200D03*
D12*
X146600Y965200D03*
X56600Y965200D03*
D13*
X139700Y584200D03*
X63500Y584200D03*
D10*
X330600Y438000D03*
D11*
X355600Y438000D03*
X380600Y438000D03*
D12*
X400600Y508000D03*
X310600Y508000D03*
D10*
X330600Y895200D03*
D11*
X355600Y895200D03*
X380600Y895200D03*
D12*
X400600Y965200D03*
X310600Y965200D03*
D10*
X330600Y666600D03*
D11*
X355600Y666600D03*
X380600Y666600D03*
D12*
X400600Y736600D03*
X310600Y736600D03*
D10*
X546500Y717400D03*
D11*
X571500Y717400D03*
X596500Y717400D03*
D12*
X616500Y787400D03*
X526500Y787400D03*
D10*
X724300Y603100D03*
D11*
X749300Y603100D03*
X774300Y603100D03*
D12*
X794300Y673100D03*
X704300Y673100D03*
D10*
X546500Y488800D03*
D11*
X571500Y488800D03*
X596500Y488800D03*
D12*
X616500Y558800D03*
X526500Y558800D03*
D14*
X101600Y13500D03*
X101600Y98500D03*
X101600Y128500D03*
X101600Y278600D03*
X101600Y193600D03*
X101600Y163600D03*
X355600Y13500D03*
X355600Y98500D03*
X355600Y128500D03*
X355600Y278600D03*
X355600Y193600D03*
X355600Y163600D03*
X647700Y278600D03*
X647700Y193600D03*
X647700Y163600D03*
X647700Y13500D03*
X647700Y98500D03*
X647700Y128500D03*
D13*
X393700Y863600D03*
X317500Y863600D03*
D10*
X635400Y895200D03*
D11*
X660400Y895200D03*
X685400Y895200D03*
D12*
X705400Y965200D03*
X615400Y965200D03*
D13*
X698500Y863600D03*
X622300Y863600D03*
X139700Y406400D03*
X63500Y406400D03*
D15*
X33020Y774700D02*
X17780Y774700D01*
X17780Y800100D02*
X33020Y800100D01*
X33020Y825500D02*
X17780Y825500D01*
X17780Y850900D02*
X33020Y850900D01*
D13*
X787400Y514350D03*
X711200Y514350D03*
D16*
X774700Y546100D03*
D17*
X774700Y571500D03*
D10*
X724300Y374500D03*
D11*
X749300Y374500D03*
X774300Y374500D03*
D12*
X794300Y444500D03*
X704300Y444500D03*
D15*
X779780Y914400D02*
X795020Y914400D01*
X795020Y889000D02*
X779780Y889000D01*
X779780Y863600D02*
X795020Y863600D01*
X795020Y838200D02*
X779780Y838200D01*
X779780Y812800D02*
X795020Y812800D01*
X795020Y787400D02*
X779780Y787400D01*
X779780Y762000D02*
X795020Y762000D01*
D18*
X177800Y298140D02*
X177800Y286060D01*
X203200Y286060D02*
X203200Y298140D01*
X228600Y298140D02*
X228600Y286060D01*
X254000Y286060D02*
X254000Y298140D01*
X254000Y362260D02*
X254000Y374340D01*
X228600Y374340D02*
X228600Y362260D01*
X203200Y362260D02*
X203200Y374340D01*
X177800Y374340D02*
X177800Y362260D01*
D19*
X203200Y482600D03*
X203200Y406400D03*
D20*
X228600Y406400D03*
X228600Y482600D03*
D13*
X139700Y342900D03*
X63500Y342900D03*
D21*
X76200Y317500D03*
X127000Y317500D03*
D19*
X228600Y254000D03*
X228600Y177800D03*
X254000Y254000D03*
X254000Y177800D03*
D22*
X228600Y70104D02*
X228600Y56896D01*
X228600Y133096D02*
X228600Y146304D01*
D20*
X203200Y177800D03*
X203200Y254000D03*
D19*
X203200Y139700D03*
X203200Y63500D03*
D22*
X177800Y171196D02*
X177800Y184404D01*
X177800Y247396D02*
X177800Y260604D01*
D19*
X177800Y139700D03*
X177800Y63500D03*
X177800Y457200D03*
X177800Y406400D03*
X292100Y355600D03*
X292100Y304800D03*
D18*
X431800Y298140D02*
X431800Y286060D01*
X457200Y286060D02*
X457200Y298140D01*
X482600Y298140D02*
X482600Y286060D01*
X508000Y286060D02*
X508000Y298140D01*
X508000Y362260D02*
X508000Y374340D01*
X482600Y374340D02*
X482600Y362260D01*
X457200Y362260D02*
X457200Y374340D01*
X431800Y374340D02*
X431800Y362260D01*
X711200Y158440D02*
X711200Y146360D01*
X736600Y146360D02*
X736600Y158440D01*
X762000Y158440D02*
X762000Y146360D01*
X787400Y146360D02*
X787400Y158440D01*
X787400Y222560D02*
X787400Y234640D01*
X762000Y234640D02*
X762000Y222560D01*
X736600Y222560D02*
X736600Y234640D01*
X711200Y234640D02*
X711200Y222560D01*
D19*
X457200Y482600D03*
X457200Y406400D03*
X482600Y482600D03*
X482600Y406400D03*
D21*
X317500Y342900D03*
X393700Y342900D03*
D13*
X381000Y317500D03*
X330200Y317500D03*
D22*
X482600Y70104D02*
X482600Y56896D01*
X482600Y133096D02*
X482600Y146304D01*
D19*
X482600Y254000D03*
X482600Y177800D03*
D20*
X457200Y177800D03*
X457200Y254000D03*
D19*
X508000Y254000D03*
X508000Y177800D03*
D22*
X431800Y171196D02*
X431800Y184404D01*
X431800Y247396D02*
X431800Y260604D01*
D19*
X431800Y139700D03*
X431800Y63500D03*
X457200Y139700D03*
X457200Y63500D03*
X546100Y355600D03*
X546100Y304800D03*
X431800Y469900D03*
X431800Y419100D03*
D13*
X685800Y342900D03*
X609600Y342900D03*
D22*
X602996Y368300D02*
X616204Y368300D01*
X679196Y368300D02*
X692404Y368300D01*
D21*
X622300Y317500D03*
X673100Y317500D03*
D19*
X762000Y114300D03*
X762000Y38100D03*
X787400Y114300D03*
X787400Y38100D03*
X711200Y114300D03*
X711200Y38100D03*
D20*
X736600Y38100D03*
X736600Y114300D03*
D22*
X501904Y660400D02*
X488696Y660400D01*
X564896Y660400D02*
X578104Y660400D01*
D21*
X495300Y635000D03*
X571500Y635000D03*
D20*
X736600Y266700D03*
X736600Y342900D03*
D19*
X762000Y342900D03*
X762000Y266700D03*
X787400Y330200D03*
X787400Y279400D03*
X711200Y330200D03*
X711200Y279400D03*
D16*
X431800Y609600D03*
D17*
X431800Y635000D03*
D20*
X508000Y419100D03*
X508000Y469900D03*
D15*
X33020Y876300D02*
X17780Y876300D01*
X17780Y901700D02*
X33020Y901700D01*
X33020Y927100D02*
X17780Y927100D01*
X462280Y774700D02*
X477520Y774700D01*
X477520Y800100D02*
X462280Y800100D01*
X462280Y825500D02*
X477520Y825500D01*
X477520Y850900D02*
X462280Y850900D01*
X236220Y800100D02*
X220980Y800100D01*
X220980Y825500D02*
X236220Y825500D01*
X236220Y850900D02*
X220980Y850900D01*
D23*
X146050Y590550D02*
X139700Y584200D01*
X146050Y590550D02*
X146050Y679450D01*
X177800Y711200D01*
X177800Y800100D01*
X101600Y876300D01*
X101600Y895200D01*
D24*
X742950Y793750D03*
X628650Y628650D03*
D23*
X63500Y800100D02*
X25400Y800100D01*
X63500Y800100D02*
X114300Y749300D01*
X114300Y698500D01*
X127000Y685800D01*
X127000Y666600D01*
X126600Y666600D01*
X25400Y660400D02*
X25400Y774700D01*
X25400Y660400D02*
X88900Y596900D01*
X88900Y482600D01*
X38100Y431800D01*
X38100Y266700D01*
X76200Y228600D01*
X165100Y228600D01*
X177800Y215900D01*
X177800Y177800D01*
D24*
X469900Y241300D03*
D23*
X457200Y228600D01*
X431800Y228600D01*
D24*
X431800Y228600D03*
D23*
X431800Y609600D02*
X482600Y609600D01*
D24*
X482600Y609600D03*
D23*
X469900Y850900D02*
X368300Y850900D01*
D24*
X368300Y850900D03*
D23*
X355600Y666600D02*
X355600Y660400D01*
X381000Y635000D01*
X431800Y635000D01*
X355600Y584200D02*
X355600Y438000D01*
X355600Y584200D02*
X304800Y635000D01*
X304800Y673100D01*
X342900Y711200D01*
X342900Y800100D01*
X368300Y825500D01*
X469900Y825500D01*
X381000Y438150D02*
X380972Y438120D01*
X380942Y438092D01*
X380910Y438068D01*
X380875Y438047D01*
X380839Y438029D01*
X380801Y438015D01*
X380762Y438004D01*
X380721Y437997D01*
X380681Y437994D01*
X380640Y437995D01*
X380600Y438000D01*
X381000Y438150D02*
X381000Y457200D01*
X368300Y469900D01*
X368300Y527050D01*
X425450Y584200D01*
X457200Y584200D01*
D24*
X457200Y584200D03*
X723900Y254000D03*
D23*
X533400Y254000D01*
D24*
X533400Y254000D03*
D23*
X736600Y914400D02*
X787400Y914400D01*
X736600Y914400D02*
X698500Y876300D01*
X495300Y876300D01*
D24*
X495300Y876300D03*
X723900Y723900D03*
D23*
X596500Y723900D02*
X596500Y717400D01*
X596500Y723900D02*
X723900Y723900D01*
X762000Y863600D02*
X787400Y863600D01*
X762000Y863600D02*
X749300Y850900D01*
X596900Y850900D01*
X571500Y825500D01*
X571500Y717400D01*
D24*
X647700Y812800D03*
D23*
X787400Y812800D01*
X787400Y838200D02*
X673100Y838200D01*
D24*
X673100Y838200D03*
D23*
X228600Y406400D02*
X203200Y406400D01*
D25*
X190500Y330200D02*
X431800Y330200D01*
X431800Y368300D01*
X431800Y330200D02*
X444500Y330200D01*
D24*
X635000Y330200D03*
D25*
X444500Y330200D01*
D24*
X444500Y330200D03*
X190500Y330200D03*
D25*
X711200Y228600D02*
X711200Y196850D01*
X723900Y184150D01*
X723900Y63500D01*
X736600Y50800D01*
X736600Y38100D01*
X279400Y292100D02*
X254000Y292100D01*
X279400Y292100D02*
X292100Y304800D01*
X406400Y304800D01*
X419100Y317500D01*
X508000Y317500D01*
X508000Y292100D01*
X508000Y317500D02*
X533400Y317500D01*
X546100Y304800D01*
X762000Y304800D01*
X787400Y279400D01*
X254000Y850900D02*
X228600Y850900D01*
X254000Y850900D02*
X279400Y825500D01*
D24*
X279400Y825500D03*
D23*
X457200Y482600D02*
X457200Y457200D01*
X482600Y431800D01*
X482600Y406400D01*
X673100Y317500D02*
X749300Y317500D01*
D24*
X749300Y317500D03*
X520700Y228600D03*
D23*
X660400Y228600D01*
X711200Y177800D01*
X711200Y152400D01*
X736600Y266700D02*
X762000Y266700D01*
M02*
