G04 EAGLE Gerber RS-274X export*
G75*
%MOMM*%
%FSLAX34Y34*%
%LPD*%
%INBoard Outline*%
%IPPOS*%
%AMOC8*
5,1,8,0,0,1.08239X$1,22.5*%
G01*
%ADD10C,0.000000*%
%ADD11C,0.254000*%


D10*
X0Y0D02*
X812800Y0D01*
X812800Y990600D01*
X0Y990600D01*
X0Y0D01*
X542798Y95250D02*
X542803Y95643D01*
X542817Y96035D01*
X542841Y96427D01*
X542875Y96818D01*
X542918Y97209D01*
X542971Y97598D01*
X543034Y97986D01*
X543105Y98372D01*
X543187Y98756D01*
X543278Y99138D01*
X543378Y99518D01*
X543487Y99895D01*
X543606Y100270D01*
X543733Y100641D01*
X543870Y101009D01*
X544016Y101374D01*
X544171Y101735D01*
X544334Y102092D01*
X544507Y102445D01*
X544687Y102793D01*
X544877Y103137D01*
X545075Y103477D01*
X545281Y103811D01*
X545495Y104140D01*
X545717Y104464D01*
X545947Y104782D01*
X546185Y105095D01*
X546430Y105402D01*
X546683Y105702D01*
X546943Y105996D01*
X547211Y106284D01*
X547485Y106565D01*
X547766Y106839D01*
X548054Y107107D01*
X548348Y107367D01*
X548648Y107620D01*
X548955Y107865D01*
X549268Y108103D01*
X549586Y108333D01*
X549910Y108555D01*
X550239Y108769D01*
X550573Y108975D01*
X550913Y109173D01*
X551257Y109363D01*
X551605Y109543D01*
X551958Y109716D01*
X552315Y109879D01*
X552676Y110034D01*
X553041Y110180D01*
X553409Y110317D01*
X553780Y110444D01*
X554155Y110563D01*
X554532Y110672D01*
X554912Y110772D01*
X555294Y110863D01*
X555678Y110945D01*
X556064Y111016D01*
X556452Y111079D01*
X556841Y111132D01*
X557232Y111175D01*
X557623Y111209D01*
X558015Y111233D01*
X558407Y111247D01*
X558800Y111252D01*
X559193Y111247D01*
X559585Y111233D01*
X559977Y111209D01*
X560368Y111175D01*
X560759Y111132D01*
X561148Y111079D01*
X561536Y111016D01*
X561922Y110945D01*
X562306Y110863D01*
X562688Y110772D01*
X563068Y110672D01*
X563445Y110563D01*
X563820Y110444D01*
X564191Y110317D01*
X564559Y110180D01*
X564924Y110034D01*
X565285Y109879D01*
X565642Y109716D01*
X565995Y109543D01*
X566343Y109363D01*
X566687Y109173D01*
X567027Y108975D01*
X567361Y108769D01*
X567690Y108555D01*
X568014Y108333D01*
X568332Y108103D01*
X568645Y107865D01*
X568952Y107620D01*
X569252Y107367D01*
X569546Y107107D01*
X569834Y106839D01*
X570115Y106565D01*
X570389Y106284D01*
X570657Y105996D01*
X570917Y105702D01*
X571170Y105402D01*
X571415Y105095D01*
X571653Y104782D01*
X571883Y104464D01*
X572105Y104140D01*
X572319Y103811D01*
X572525Y103477D01*
X572723Y103137D01*
X572913Y102793D01*
X573093Y102445D01*
X573266Y102092D01*
X573429Y101735D01*
X573584Y101374D01*
X573730Y101009D01*
X573867Y100641D01*
X573994Y100270D01*
X574113Y99895D01*
X574222Y99518D01*
X574322Y99138D01*
X574413Y98756D01*
X574495Y98372D01*
X574566Y97986D01*
X574629Y97598D01*
X574682Y97209D01*
X574725Y96818D01*
X574759Y96427D01*
X574783Y96035D01*
X574797Y95643D01*
X574802Y95250D01*
X574797Y94857D01*
X574783Y94465D01*
X574759Y94073D01*
X574725Y93682D01*
X574682Y93291D01*
X574629Y92902D01*
X574566Y92514D01*
X574495Y92128D01*
X574413Y91744D01*
X574322Y91362D01*
X574222Y90982D01*
X574113Y90605D01*
X573994Y90230D01*
X573867Y89859D01*
X573730Y89491D01*
X573584Y89126D01*
X573429Y88765D01*
X573266Y88408D01*
X573093Y88055D01*
X572913Y87707D01*
X572723Y87363D01*
X572525Y87023D01*
X572319Y86689D01*
X572105Y86360D01*
X571883Y86036D01*
X571653Y85718D01*
X571415Y85405D01*
X571170Y85098D01*
X570917Y84798D01*
X570657Y84504D01*
X570389Y84216D01*
X570115Y83935D01*
X569834Y83661D01*
X569546Y83393D01*
X569252Y83133D01*
X568952Y82880D01*
X568645Y82635D01*
X568332Y82397D01*
X568014Y82167D01*
X567690Y81945D01*
X567361Y81731D01*
X567027Y81525D01*
X566687Y81327D01*
X566343Y81137D01*
X565995Y80957D01*
X565642Y80784D01*
X565285Y80621D01*
X564924Y80466D01*
X564559Y80320D01*
X564191Y80183D01*
X563820Y80056D01*
X563445Y79937D01*
X563068Y79828D01*
X562688Y79728D01*
X562306Y79637D01*
X561922Y79555D01*
X561536Y79484D01*
X561148Y79421D01*
X560759Y79368D01*
X560368Y79325D01*
X559977Y79291D01*
X559585Y79267D01*
X559193Y79253D01*
X558800Y79248D01*
X558407Y79253D01*
X558015Y79267D01*
X557623Y79291D01*
X557232Y79325D01*
X556841Y79368D01*
X556452Y79421D01*
X556064Y79484D01*
X555678Y79555D01*
X555294Y79637D01*
X554912Y79728D01*
X554532Y79828D01*
X554155Y79937D01*
X553780Y80056D01*
X553409Y80183D01*
X553041Y80320D01*
X552676Y80466D01*
X552315Y80621D01*
X551958Y80784D01*
X551605Y80957D01*
X551257Y81137D01*
X550913Y81327D01*
X550573Y81525D01*
X550239Y81731D01*
X549910Y81945D01*
X549586Y82167D01*
X549268Y82397D01*
X548955Y82635D01*
X548648Y82880D01*
X548348Y83133D01*
X548054Y83393D01*
X547766Y83661D01*
X547485Y83935D01*
X547211Y84216D01*
X546943Y84504D01*
X546683Y84798D01*
X546430Y85098D01*
X546185Y85405D01*
X545947Y85718D01*
X545717Y86036D01*
X545495Y86360D01*
X545281Y86689D01*
X545075Y87023D01*
X544877Y87363D01*
X544687Y87707D01*
X544507Y88055D01*
X544334Y88408D01*
X544171Y88765D01*
X544016Y89126D01*
X543870Y89491D01*
X543733Y89859D01*
X543606Y90230D01*
X543487Y90605D01*
X543378Y90982D01*
X543278Y91362D01*
X543187Y91744D01*
X543105Y92128D01*
X543034Y92514D01*
X542971Y92902D01*
X542918Y93291D01*
X542875Y93682D01*
X542841Y94073D01*
X542817Y94465D01*
X542803Y94857D01*
X542798Y95250D01*
X187198Y615950D02*
X187203Y616343D01*
X187217Y616735D01*
X187241Y617127D01*
X187275Y617518D01*
X187318Y617909D01*
X187371Y618298D01*
X187434Y618686D01*
X187505Y619072D01*
X187587Y619456D01*
X187678Y619838D01*
X187778Y620218D01*
X187887Y620595D01*
X188006Y620970D01*
X188133Y621341D01*
X188270Y621709D01*
X188416Y622074D01*
X188571Y622435D01*
X188734Y622792D01*
X188907Y623145D01*
X189087Y623493D01*
X189277Y623837D01*
X189475Y624177D01*
X189681Y624511D01*
X189895Y624840D01*
X190117Y625164D01*
X190347Y625482D01*
X190585Y625795D01*
X190830Y626102D01*
X191083Y626402D01*
X191343Y626696D01*
X191611Y626984D01*
X191885Y627265D01*
X192166Y627539D01*
X192454Y627807D01*
X192748Y628067D01*
X193048Y628320D01*
X193355Y628565D01*
X193668Y628803D01*
X193986Y629033D01*
X194310Y629255D01*
X194639Y629469D01*
X194973Y629675D01*
X195313Y629873D01*
X195657Y630063D01*
X196005Y630243D01*
X196358Y630416D01*
X196715Y630579D01*
X197076Y630734D01*
X197441Y630880D01*
X197809Y631017D01*
X198180Y631144D01*
X198555Y631263D01*
X198932Y631372D01*
X199312Y631472D01*
X199694Y631563D01*
X200078Y631645D01*
X200464Y631716D01*
X200852Y631779D01*
X201241Y631832D01*
X201632Y631875D01*
X202023Y631909D01*
X202415Y631933D01*
X202807Y631947D01*
X203200Y631952D01*
X203593Y631947D01*
X203985Y631933D01*
X204377Y631909D01*
X204768Y631875D01*
X205159Y631832D01*
X205548Y631779D01*
X205936Y631716D01*
X206322Y631645D01*
X206706Y631563D01*
X207088Y631472D01*
X207468Y631372D01*
X207845Y631263D01*
X208220Y631144D01*
X208591Y631017D01*
X208959Y630880D01*
X209324Y630734D01*
X209685Y630579D01*
X210042Y630416D01*
X210395Y630243D01*
X210743Y630063D01*
X211087Y629873D01*
X211427Y629675D01*
X211761Y629469D01*
X212090Y629255D01*
X212414Y629033D01*
X212732Y628803D01*
X213045Y628565D01*
X213352Y628320D01*
X213652Y628067D01*
X213946Y627807D01*
X214234Y627539D01*
X214515Y627265D01*
X214789Y626984D01*
X215057Y626696D01*
X215317Y626402D01*
X215570Y626102D01*
X215815Y625795D01*
X216053Y625482D01*
X216283Y625164D01*
X216505Y624840D01*
X216719Y624511D01*
X216925Y624177D01*
X217123Y623837D01*
X217313Y623493D01*
X217493Y623145D01*
X217666Y622792D01*
X217829Y622435D01*
X217984Y622074D01*
X218130Y621709D01*
X218267Y621341D01*
X218394Y620970D01*
X218513Y620595D01*
X218622Y620218D01*
X218722Y619838D01*
X218813Y619456D01*
X218895Y619072D01*
X218966Y618686D01*
X219029Y618298D01*
X219082Y617909D01*
X219125Y617518D01*
X219159Y617127D01*
X219183Y616735D01*
X219197Y616343D01*
X219202Y615950D01*
X219197Y615557D01*
X219183Y615165D01*
X219159Y614773D01*
X219125Y614382D01*
X219082Y613991D01*
X219029Y613602D01*
X218966Y613214D01*
X218895Y612828D01*
X218813Y612444D01*
X218722Y612062D01*
X218622Y611682D01*
X218513Y611305D01*
X218394Y610930D01*
X218267Y610559D01*
X218130Y610191D01*
X217984Y609826D01*
X217829Y609465D01*
X217666Y609108D01*
X217493Y608755D01*
X217313Y608407D01*
X217123Y608063D01*
X216925Y607723D01*
X216719Y607389D01*
X216505Y607060D01*
X216283Y606736D01*
X216053Y606418D01*
X215815Y606105D01*
X215570Y605798D01*
X215317Y605498D01*
X215057Y605204D01*
X214789Y604916D01*
X214515Y604635D01*
X214234Y604361D01*
X213946Y604093D01*
X213652Y603833D01*
X213352Y603580D01*
X213045Y603335D01*
X212732Y603097D01*
X212414Y602867D01*
X212090Y602645D01*
X211761Y602431D01*
X211427Y602225D01*
X211087Y602027D01*
X210743Y601837D01*
X210395Y601657D01*
X210042Y601484D01*
X209685Y601321D01*
X209324Y601166D01*
X208959Y601020D01*
X208591Y600883D01*
X208220Y600756D01*
X207845Y600637D01*
X207468Y600528D01*
X207088Y600428D01*
X206706Y600337D01*
X206322Y600255D01*
X205936Y600184D01*
X205548Y600121D01*
X205159Y600068D01*
X204768Y600025D01*
X204377Y599991D01*
X203985Y599967D01*
X203593Y599953D01*
X203200Y599948D01*
X202807Y599953D01*
X202415Y599967D01*
X202023Y599991D01*
X201632Y600025D01*
X201241Y600068D01*
X200852Y600121D01*
X200464Y600184D01*
X200078Y600255D01*
X199694Y600337D01*
X199312Y600428D01*
X198932Y600528D01*
X198555Y600637D01*
X198180Y600756D01*
X197809Y600883D01*
X197441Y601020D01*
X197076Y601166D01*
X196715Y601321D01*
X196358Y601484D01*
X196005Y601657D01*
X195657Y601837D01*
X195313Y602027D01*
X194973Y602225D01*
X194639Y602431D01*
X194310Y602645D01*
X193986Y602867D01*
X193668Y603097D01*
X193355Y603335D01*
X193048Y603580D01*
X192748Y603833D01*
X192454Y604093D01*
X192166Y604361D01*
X191885Y604635D01*
X191611Y604916D01*
X191343Y605204D01*
X191083Y605498D01*
X190830Y605798D01*
X190585Y606105D01*
X190347Y606418D01*
X190117Y606736D01*
X189895Y607060D01*
X189681Y607389D01*
X189475Y607723D01*
X189277Y608063D01*
X189087Y608407D01*
X188907Y608755D01*
X188734Y609108D01*
X188571Y609465D01*
X188416Y609826D01*
X188270Y610191D01*
X188133Y610559D01*
X188006Y610930D01*
X187887Y611305D01*
X187778Y611682D01*
X187678Y612062D01*
X187587Y612444D01*
X187505Y612828D01*
X187434Y613214D01*
X187371Y613602D01*
X187318Y613991D01*
X187275Y614382D01*
X187241Y614773D01*
X187217Y615165D01*
X187203Y615557D01*
X187198Y615950D01*
D11*
X0Y0D02*
X812800Y0D01*
X812800Y990600D01*
X0Y990600D01*
X0Y0D01*
X574802Y94726D02*
X574733Y93681D01*
X574597Y92642D01*
X574392Y91614D01*
X574121Y90602D01*
X573784Y89610D01*
X573383Y88642D01*
X572920Y87703D01*
X572396Y86795D01*
X571814Y85924D01*
X571176Y85093D01*
X570486Y84305D01*
X569745Y83564D01*
X568957Y82874D01*
X568126Y82236D01*
X567255Y81654D01*
X566347Y81130D01*
X565408Y80667D01*
X564440Y80266D01*
X563448Y79929D01*
X562436Y79658D01*
X561408Y79453D01*
X560369Y79317D01*
X559324Y79248D01*
X558276Y79248D01*
X557231Y79317D01*
X556192Y79453D01*
X555164Y79658D01*
X554152Y79929D01*
X553160Y80266D01*
X552192Y80667D01*
X551253Y81130D01*
X550345Y81654D01*
X549474Y82236D01*
X548643Y82874D01*
X547855Y83564D01*
X547114Y84305D01*
X546424Y85093D01*
X545786Y85924D01*
X545204Y86795D01*
X544680Y87703D01*
X544217Y88642D01*
X543816Y89610D01*
X543479Y90602D01*
X543208Y91614D01*
X543003Y92642D01*
X542867Y93681D01*
X542798Y94726D01*
X542798Y95774D01*
X542867Y96819D01*
X543003Y97858D01*
X543208Y98886D01*
X543479Y99898D01*
X543816Y100890D01*
X544217Y101858D01*
X544680Y102797D01*
X545204Y103705D01*
X545786Y104576D01*
X546424Y105407D01*
X547114Y106195D01*
X547855Y106936D01*
X548643Y107626D01*
X549474Y108264D01*
X550345Y108846D01*
X551253Y109370D01*
X552192Y109833D01*
X553160Y110234D01*
X554152Y110571D01*
X555164Y110842D01*
X556192Y111047D01*
X557231Y111183D01*
X558276Y111252D01*
X559324Y111252D01*
X560369Y111183D01*
X561408Y111047D01*
X562436Y110842D01*
X563448Y110571D01*
X564440Y110234D01*
X565408Y109833D01*
X566347Y109370D01*
X567255Y108846D01*
X568126Y108264D01*
X568957Y107626D01*
X569745Y106936D01*
X570486Y106195D01*
X571176Y105407D01*
X571814Y104576D01*
X572396Y103705D01*
X572920Y102797D01*
X573383Y101858D01*
X573784Y100890D01*
X574121Y99898D01*
X574392Y98886D01*
X574597Y97858D01*
X574733Y96819D01*
X574802Y95774D01*
X574802Y94726D01*
X219202Y615426D02*
X219133Y614381D01*
X218997Y613342D01*
X218792Y612314D01*
X218521Y611302D01*
X218184Y610310D01*
X217783Y609342D01*
X217320Y608403D01*
X216796Y607495D01*
X216214Y606624D01*
X215576Y605793D01*
X214886Y605005D01*
X214145Y604264D01*
X213357Y603574D01*
X212526Y602936D01*
X211655Y602354D01*
X210747Y601830D01*
X209808Y601367D01*
X208840Y600966D01*
X207848Y600629D01*
X206836Y600358D01*
X205808Y600153D01*
X204769Y600017D01*
X203724Y599948D01*
X202676Y599948D01*
X201631Y600017D01*
X200592Y600153D01*
X199564Y600358D01*
X198552Y600629D01*
X197560Y600966D01*
X196592Y601367D01*
X195653Y601830D01*
X194745Y602354D01*
X193874Y602936D01*
X193043Y603574D01*
X192255Y604264D01*
X191514Y605005D01*
X190824Y605793D01*
X190186Y606624D01*
X189604Y607495D01*
X189080Y608403D01*
X188617Y609342D01*
X188216Y610310D01*
X187879Y611302D01*
X187608Y612314D01*
X187403Y613342D01*
X187267Y614381D01*
X187198Y615426D01*
X187198Y616474D01*
X187267Y617519D01*
X187403Y618558D01*
X187608Y619586D01*
X187879Y620598D01*
X188216Y621590D01*
X188617Y622558D01*
X189080Y623497D01*
X189604Y624405D01*
X190186Y625276D01*
X190824Y626107D01*
X191514Y626895D01*
X192255Y627636D01*
X193043Y628326D01*
X193874Y628964D01*
X194745Y629546D01*
X195653Y630070D01*
X196592Y630533D01*
X197560Y630934D01*
X198552Y631271D01*
X199564Y631542D01*
X200592Y631747D01*
X201631Y631883D01*
X202676Y631952D01*
X203724Y631952D01*
X204769Y631883D01*
X205808Y631747D01*
X206836Y631542D01*
X207848Y631271D01*
X208840Y630934D01*
X209808Y630533D01*
X210747Y630070D01*
X211655Y629546D01*
X212526Y628964D01*
X213357Y628326D01*
X214145Y627636D01*
X214886Y626895D01*
X215576Y626107D01*
X216214Y625276D01*
X216796Y624405D01*
X217320Y623497D01*
X217783Y622558D01*
X218184Y621590D01*
X218521Y620598D01*
X218792Y619586D01*
X218997Y618558D01*
X219133Y617519D01*
X219202Y616474D01*
X219202Y615426D01*
M02*
